<?xml version="1.0" encoding="UTF-8"?>
<svg width="396px" height="305px" viewBox="0 0 396 305" version="1.1" xmlns="http://www.w3.org/2000/svg" xmlns:xlink="http://www.w3.org/1999/xlink">
    <title>3F843C23-7ED9-4A55-8B4D-F947A8F37B41</title>
    <defs>
        <linearGradient x1="93.4519256%" y1="37.3871359%" x2="8.79253438%" y2="62.5866906%" id="linearGradient-1">
            <stop stop-color="#793100" offset="1%"></stop>
            <stop stop-color="#FFB310" offset="100%"></stop>
        </linearGradient>
        <linearGradient x1="93.1755222%" y1="26.5807527%" x2="8.24659958%" y2="72.6569571%" id="linearGradient-2">
            <stop stop-color="#FF9A00" offset="1%"></stop>
            <stop stop-color="#F0CD2E" offset="100%"></stop>
        </linearGradient>
        <linearGradient x1="93.0161501%" y1="30.0990315%" x2="6.8060076%" y2="70.0005722%" id="linearGradient-3">
            <stop stop-color="#FFE000" offset="0%"></stop>
            <stop stop-color="#CC7200" offset="99%"></stop>
        </linearGradient>
        <linearGradient x1="109.067454%" y1="28.6365699%" x2="33.6555251%" y2="70.3813413%" id="linearGradient-4">
            <stop stop-color="#FFE000" offset="0%"></stop>
            <stop stop-color="#CC7200" offset="99%"></stop>
        </linearGradient>
        <linearGradient x1="80.5504381%" y1="61.4282018%" x2="-45.9159363%" y2="14.1041527%" id="linearGradient-5">
            <stop stop-color="#FFFF9C" offset="0%"></stop>
            <stop stop-color="#F0CD2E" offset="100%"></stop>
        </linearGradient>
        <linearGradient x1="29.0464775%" y1="21.3462581%" x2="72.7813759%" y2="81.158063%" id="linearGradient-6">
            <stop stop-color="#FFD63B" offset="0%"></stop>
            <stop stop-color="#F0AB00" offset="99%"></stop>
        </linearGradient>
    </defs>
    <g id="Visual-design" stroke="none" stroke-width="1" fill="none" fill-rule="evenodd">
        <g id="Landing-temp-1" transform="translate(-180.000000, -4487.000000)" fill-rule="nonzero">
            <g id="Group-3-Copy" transform="translate(99.000000, 4346.000000)">
                <g id="Group-2" transform="translate(77.000000, 96.000000)">
                    <g id="Group-13" transform="translate(4.000000, 45.000000)">
                        <g id="Untitled-1-07-Copy" transform="translate(0.000000, 105.000000)">
                            <path d="M218.684739,55.1138167 L218.684739,55.1138167 L213.421959,42.4446718 L214.820355,49.1776097 C201.964135,31.9712127 178.356807,21.0526316 148.22739,21.0526316 C118.402463,21.0526316 88.3444704,31.7393004 64.932617,48.6539368 L64.932617,48.6539368 C55.9206561,55.0968356 47.8034159,62.6959631 40.7914925,71.2541653 C33.2281256,80.605468 27.4954544,90.8021285 24.183662,101.503759 C21.6462501,109.702982 20.7102271,117.614184 21.2139503,125.069042 C19.217853,123.808487 16.5413534,122.330981 16.5413534,122.330981 L25.3151597,142.507352 L25.3151597,142.507352 C35.2768508,166.11004 62.1019931,181.954887 98.4302127,181.954887 C123.285572,181.954887 148.302573,174.529953 169.5003,162.268525 C172.632907,160.455619 175.679054,158.537978 178.638741,156.515603 C179.458231,155.958266 180.266444,155.393447 181.070898,154.817407 C200.956688,140.603426 216.143568,121.949448 222.473941,101.500019 C227.804386,84.2412545 226.045113,68.2206027 218.684739,55.1138167 Z" id="Path" fill="url(#linearGradient-1)"></path>
                            <path d="M213.459175,81.9548872 C207.178448,102.399625 192.101719,121.067698 172.360161,135.251094 C171.561542,135.823368 170.755459,136.395641 169.945645,136.952952 C167.0124,138.967753 163.988347,140.884057 160.873485,142.701866 C139.822042,154.981426 114.993953,162.406015 90.3151394,162.406015 C35.9568141,162.406015 2.96340796,126.386472 16.614565,81.9548872 C19.9060687,71.2537539 25.5971607,61.0426061 33.1056703,51.7066995 C40.0653302,43.1489038 48.1224629,35.5501088 57.0679665,29.1075217 L57.0679665,29.1075217 C80.3137449,12.1936717 110.153726,1.5037594 139.7586,1.5037594 C194.120658,1.5037594 227.114064,37.5195625 213.459175,81.9548872 Z" id="Path" fill="url(#linearGradient-2)"></path>
                            <path d="M188.907046,24.3163151 C176.589257,14.7371999 159.236105,9.02255639 138.486229,9.02255639 C100.5773,9.04866769 62.2577777,28.0726115 40.5299442,55.0194683 C33.635715,63.5727827 28.4062536,72.9243566 25.3865289,82.7235528 C17.8428163,107.204757 25.8045872,128.895783 44.2140829,142.294608 C44.2363192,142.306144 44.2564979,142.321268 44.2738056,142.33937 C56.4460208,151.168718 73.2056793,156.390977 93.0671811,156.390977 C119.09131,156.390977 145.302072,147.438533 166.227383,133.095972 C185.446867,119.920958 200.19462,102.195119 206.200475,82.7123622 C213.516495,58.9398928 206.20794,37.7934737 188.907046,24.3163151 Z" id="Path" fill="url(#linearGradient-3)"></path>
                            <path d="M201.818079,81.956776 C195.740195,102.04978 180.244928,120.212436 160.23763,133.188459 C159.6291,133.566218 159.016859,133.966643 158.404617,134.351957 C139.480801,146.160705 116.753668,153.383459 94.1786678,153.383459 C46.6835985,153.383459 17.8266333,121.406154 29.7597695,81.956776 C32.2755239,73.6460767 36.4053686,65.6564727 41.7968011,58.2335072 C48.5388746,48.9481895 57.2586725,40.5430505 67.2920059,33.4676234 C87.2696194,19.3621001 112.427164,10.5263158 137.399181,10.5263158 C184.912803,10.5263158 213.751215,42.5073976 201.818079,81.956776 Z" id="Path" fill="url(#linearGradient-4)"></path>
                            <path d="M201.816818,81.9547873 C195.73884,102.05101 180.243337,120.209382 160.235734,133.185044 C159.627194,133.562793 159.014943,133.963206 158.402693,134.34851 C139.478587,146.156929 116.751107,153.383459 94.1757622,153.383459 C89.3781552,153.392992 84.5862201,153.047067 79.8379691,152.348228 C41.0472629,146.57623 19.0915896,117.270498 29.7558798,81.9547873 C32.2716727,73.6443194 36.4015805,65.6549378 41.7930953,58.232179 C48.5352718,48.9471199 57.2552029,40.5422148 67.2886896,33.4669847 C83.2702824,22.1798583 102.56916,14.2735813 122.43205,11.5575693 C127.39219,10.8746308 132.391637,10.5301111 137.396936,10.5263158 C184.911283,10.5263158 213.753847,42.5065072 201.816818,81.9547873 Z" id="Path" fill="url(#linearGradient-5)"></path>
                            <path d="M171.73136,81.2048632 C169.065094,89.8150626 164.5977,98.0615554 158.746831,105.699396 L158.679708,105.781045 C154.747182,110.853769 150.349099,115.551468 145.542288,119.813443 C140.671585,124.13974 135.456186,128.065561 129.947429,131.552262 L128.101552,132.695341 C113.289792,141.721205 96.1660252,148.026691 78.598502,150.37594 C39.6150829,144.69395 17.5503335,115.90174 28.263875,81.2048632 C30.7996245,73.0400188 34.9463206,65.1869231 40.3608916,57.8979439 C46.6368715,49.4695978 54.6170243,41.7538199 63.7680966,35.1440072 C64.5139053,34.6058698 65.2410688,34.0825775 65.9868774,33.5704191 C66.3597818,33.2957834 66.7699765,33.0285703 67.1652551,32.7613572 L67.8886895,32.2788891 C68.787389,31.6850823 69.7010046,31.0949867 70.6183493,30.516025 C70.8420919,30.3824185 71.0583764,30.2413893 71.282119,30.1077828 L71.4350098,30.0075779 L71.9645339,29.6884067 C72.2255669,29.5251098 72.4866,29.3655242 72.7550911,29.2059386 C73.348009,28.8533658 73.948385,28.4970817 74.55249,28.1519315 L75.1901564,27.7808022 L75.8874875,27.3874051 C76.1820819,27.2241082 76.4729473,27.0571001 76.7749998,26.8938032 C77.9869389,26.2257705 79.2100651,25.5725829 80.4481075,24.9453744 C80.664392,24.8303243 80.8806765,24.7226968 81.1006901,24.6150693 L81.2386647,24.5445548 C81.8203955,24.2513626 82.4021262,23.9655931 82.987586,23.6798235 L83.9049307,23.241891 C84.6507394,22.8707617 85.396548,22.5367453 86.1721891,22.1953064 L87.2424245,21.7165496 C87.5183737,21.5977882 87.7831358,21.4753156 88.0665431,21.3454203 C88.2902857,21.2415041 88.5065702,21.1487218 88.7340418,21.0522282 C89.3157726,20.8035716 89.9012324,20.5623375 90.4829632,20.3099696 L92.6719116,19.4415271 L93.7682503,19.022151 L94.8869633,18.6101975 C95.2598677,18.4691683 95.6700624,18.3318505 96.061612,18.1833988 L97.1132022,17.8122695 L98.2319152,17.4411402 C98.2319152,17.4411402 98.2319152,17.4411402 98.2319152,17.4411402 L99.3506282,17.0700109 L100.469341,16.6988816 C100.812413,16.5875428 101.151756,16.4873379 101.494828,16.3797104 L101.726029,16.3091959 C102.065372,16.208991 102.397257,16.1050748 102.729141,16.0122924 C103.061026,15.9195101 103.47495,15.7821923 103.847854,15.6745648 L105.309639,15.2700339 L106.1263,15.0510676 C106.413436,14.9768417 106.704302,14.8951933 106.998896,14.8246787 C108.139983,14.5228269 109.283557,14.2432428 110.429616,13.9859265 L111.175425,13.8226296 C111.481206,13.7521151 111.786988,13.6816005 112.092769,13.6185085 C112.711791,13.484902 113.333298,13.3611922 113.957291,13.2473793 C114.330195,13.1768647 114.7031,13.1026388 115.046172,13.0395469 L115.747232,12.9059403 L115.922497,12.8725387 L116.742886,12.7277982 C117.369366,12.6214079 117.999574,12.5174917 118.633511,12.4160496 L119.468817,12.2898657 L119.569501,12.2898657 L120.356329,12.1748156 L121.40792,12.0300752 C160.372693,17.7231985 182.459817,46.5228312 171.73136,81.2048632 Z" id="Path" fill="url(#linearGradient-6)"></path>
                            <path d="M214.935318,82.0073703 C208.598317,102.465445 193.386502,121.145697 173.46806,135.338346 L165.022491,133.545551 C165.523276,133.219928 166.01653,132.883077 166.528611,132.546227 C185.916145,119.326702 200.792848,101.540977 206.851217,81.9923992 C219.483801,41.1698187 188.905794,8.08357938 138.54113,8.08357938 C111.073261,8.08357938 83.3945344,17.9271098 61.8494832,33.5008476 L57.1428571,29.1367577 L57.1428571,29.1367577 C80.5969159,12.2006454 110.704261,1.5037594 140.574392,1.5037594 C195.423529,1.5037594 228.712554,37.5430578 214.935318,82.0073703 Z" id="Path" fill="#FFFFFF" opacity="0.2"></path>
                            <path d="M173.220206,81.932296 C170.539238,90.6330392 166.047212,98.966251 160.164082,106.68441 L160.09659,106.766917 L64.6616541,35.3870703 C65.411575,34.8432738 66.1427479,34.3144786 66.8926689,33.7969344 C67.2676293,33.5194107 67.6800858,33.2493877 68.0775439,32.9793646 L68.8049672,32.491823 C69.7086219,31.8917717 70.627275,31.2954708 71.5496777,30.7104208 C71.774654,30.5754093 71.9921311,30.4328971 72.2171073,30.2978856 L72.3708411,30.1966269 L72.903285,29.8740994 C73.1657573,29.7090853 73.4282296,29.5478215 73.6982011,29.3865577 C74.2943883,29.0302773 74.8980746,28.6702465 75.5055105,28.3214667 L76.1466929,27.9464347 L76.847869,27.5489008 C77.1440877,27.3838867 77.4365569,27.2151222 77.7402749,27.0501081 C78.9588963,26.3750505 80.1887666,25.7149941 81.4336354,25.08119 C81.6511124,24.96493 81.8685895,24.8561708 82.0898162,24.7474115 L82.2285515,24.6761554 C82.8134898,24.3798801 83.3984282,24.0911054 83.9871161,23.8023307 L84.9095188,23.3597929 C85.6594397,22.9847609 86.4093606,22.6472321 87.1892784,22.3022026 L88.2654149,21.8184113 C88.5428856,21.698401 88.8091075,21.5746405 89.0940775,21.4433792 C89.3190538,21.3383703 89.5365308,21.2446123 89.7652567,21.1471039 C90.350195,20.8958325 90.9388829,20.6520616 91.5238213,20.3970399 L93.7248391,19.5194649 L94.8272229,19.0956787 L95.9521042,18.6793932 C96.3270647,18.536881 96.7395212,18.3981191 97.1332297,18.2481063 L98.1906182,17.8730743 L99.3154995,17.4980422 C99.3154995,17.4980422 99.3154995,17.4980422 99.3154995,17.4980422 L100.440381,17.1230102 L101.565262,16.7479782 C101.910226,16.6354686 102.25144,16.5342099 102.596404,16.4254506 L102.828879,16.3541945 C103.170093,16.2529359 103.503808,16.1479269 103.837523,16.0541689 C104.171237,15.9604109 104.587444,15.8216491 104.962404,15.7128898 L106.432249,15.3041048 L107.253412,15.0828359 C107.542132,15.0078295 107.834601,14.9253225 108.13082,14.8540664 C109.278199,14.5490403 110.428078,14.2665162 111.580456,14.006494 L112.330377,13.8414799 C112.637845,13.7702238 112.945312,13.6989677 113.25278,13.6352123 C113.875214,13.5002008 114.500148,13.3751901 115.127582,13.2601803 C115.502542,13.1889242 115.877503,13.1139178 116.222467,13.0501623 L116.927392,12.9151508 L117.103624,12.8813979 L117.928537,12.7351354 C118.55847,12.6276262 119.192153,12.5226173 119.829586,12.4201085 L120.669498,12.2925976 L120.770737,12.2925976 L121.561903,12.1763377 L122.619292,12.0300752 C161.79891,17.7830666 184.007818,46.8855524 173.220206,81.932296 Z" id="Path" fill="#FFFFFF" opacity="0.2"></path>
                        </g>
                        <g id="Untitled-1-07-Copy-3" transform="translate(150.000000, 105.000000)">
                            <path d="M218.684739,55.1138167 L218.684739,55.1138167 L213.421959,42.4446718 L214.820355,49.1776097 C201.964135,31.9712127 178.356807,21.0526316 148.22739,21.0526316 C118.402463,21.0526316 88.3444704,31.7393004 64.932617,48.6539368 L64.932617,48.6539368 C55.9206561,55.0968356 47.8034159,62.6959631 40.7914925,71.2541653 C33.2281256,80.605468 27.4954544,90.8021285 24.183662,101.503759 C21.6462501,109.702982 20.7102271,117.614184 21.2139503,125.069042 C19.217853,123.808487 16.5413534,122.330981 16.5413534,122.330981 L25.3151597,142.507352 L25.3151597,142.507352 C35.2768508,166.11004 62.1019931,181.954887 98.4302127,181.954887 C123.285572,181.954887 148.302573,174.529953 169.5003,162.268525 C172.632907,160.455619 175.679054,158.537978 178.638741,156.515603 C179.458231,155.958266 180.266444,155.393447 181.070898,154.817407 C200.956688,140.603426 216.143568,121.949448 222.473941,101.500019 C227.804386,84.2412545 226.045113,68.2206027 218.684739,55.1138167 Z" id="Path" fill="url(#linearGradient-1)"></path>
                            <path d="M213.459175,81.9548872 C207.178448,102.399625 192.101719,121.067698 172.360161,135.251094 C171.561542,135.823368 170.755459,136.395641 169.945645,136.952952 C167.0124,138.967753 163.988347,140.884057 160.873485,142.701866 C139.822042,154.981426 114.993953,162.406015 90.3151394,162.406015 C35.9568141,162.406015 2.96340796,126.386472 16.614565,81.9548872 C19.9060687,71.2537539 25.5971607,61.0426061 33.1056703,51.7066995 C40.0653302,43.1489038 48.1224629,35.5501088 57.0679665,29.1075217 L57.0679665,29.1075217 C80.3137449,12.1936717 110.153726,1.5037594 139.7586,1.5037594 C194.120658,1.5037594 227.114064,37.5195625 213.459175,81.9548872 Z" id="Path" fill="url(#linearGradient-2)"></path>
                            <path d="M188.907046,24.3163151 C176.589257,14.7371999 159.236105,9.02255639 138.486229,9.02255639 C100.5773,9.04866769 62.2577777,28.0726115 40.5299442,55.0194683 C33.635715,63.5727827 28.4062536,72.9243566 25.3865289,82.7235528 C17.8428163,107.204757 25.8045872,128.895783 44.2140829,142.294608 C44.2363192,142.306144 44.2564979,142.321268 44.2738056,142.33937 C56.4460208,151.168718 73.2056793,156.390977 93.0671811,156.390977 C119.09131,156.390977 145.302072,147.438533 166.227383,133.095972 C185.446867,119.920958 200.19462,102.195119 206.200475,82.7123622 C213.516495,58.9398928 206.20794,37.7934737 188.907046,24.3163151 Z" id="Path" fill="url(#linearGradient-3)"></path>
                            <path d="M201.818079,81.956776 C195.740195,102.04978 180.244928,120.212436 160.23763,133.188459 C159.6291,133.566218 159.016859,133.966643 158.404617,134.351957 C139.480801,146.160705 116.753668,153.383459 94.1786678,153.383459 C46.6835985,153.383459 17.8266333,121.406154 29.7597695,81.956776 C32.2755239,73.6460767 36.4053686,65.6564727 41.7968011,58.2335072 C48.5388746,48.9481895 57.2586725,40.5430505 67.2920059,33.4676234 C87.2696194,19.3621001 112.427164,10.5263158 137.399181,10.5263158 C184.912803,10.5263158 213.751215,42.5073976 201.818079,81.956776 Z" id="Path" fill="url(#linearGradient-4)"></path>
                            <path d="M201.816818,81.9547873 C195.73884,102.05101 180.243337,120.209382 160.235734,133.185044 C159.627194,133.562793 159.014943,133.963206 158.402693,134.34851 C139.478587,146.156929 116.751107,153.383459 94.1757622,153.383459 C89.3781552,153.392992 84.5862201,153.047067 79.8379691,152.348228 C41.0472629,146.57623 19.0915896,117.270498 29.7558798,81.9547873 C32.2716727,73.6443194 36.4015805,65.6549378 41.7930953,58.232179 C48.5352718,48.9471199 57.2552029,40.5422148 67.2886896,33.4669847 C83.2702824,22.1798583 102.56916,14.2735813 122.43205,11.5575693 C127.39219,10.8746308 132.391637,10.5301111 137.396936,10.5263158 C184.911283,10.5263158 213.753847,42.5065072 201.816818,81.9547873 Z" id="Path" fill="url(#linearGradient-5)"></path>
                            <path d="M171.73136,81.2048632 C169.065094,89.8150626 164.5977,98.0615554 158.746831,105.699396 L158.679708,105.781045 C154.747182,110.853769 150.349099,115.551468 145.542288,119.813443 C140.671585,124.13974 135.456186,128.065561 129.947429,131.552262 L128.101552,132.695341 C113.289792,141.721205 96.1660252,148.026691 78.598502,150.37594 C39.6150829,144.69395 17.5503335,115.90174 28.263875,81.2048632 C30.7996245,73.0400188 34.9463206,65.1869231 40.3608916,57.8979439 C46.6368715,49.4695978 54.6170243,41.7538199 63.7680966,35.1440072 C64.5139053,34.6058698 65.2410688,34.0825775 65.9868774,33.5704191 C66.3597818,33.2957834 66.7699765,33.0285703 67.1652551,32.7613572 L67.8886895,32.2788891 C68.787389,31.6850823 69.7010046,31.0949867 70.6183493,30.516025 C70.8420919,30.3824185 71.0583764,30.2413893 71.282119,30.1077828 L71.4350098,30.0075779 L71.9645339,29.6884067 C72.2255669,29.5251098 72.4866,29.3655242 72.7550911,29.2059386 C73.348009,28.8533658 73.948385,28.4970817 74.55249,28.1519315 L75.1901564,27.7808022 L75.8874875,27.3874051 C76.1820819,27.2241082 76.4729473,27.0571001 76.7749998,26.8938032 C77.9869389,26.2257705 79.2100651,25.5725829 80.4481075,24.9453744 C80.664392,24.8303243 80.8806765,24.7226968 81.1006901,24.6150693 L81.2386647,24.5445548 C81.8203955,24.2513626 82.4021262,23.9655931 82.987586,23.6798235 L83.9049307,23.241891 C84.6507394,22.8707617 85.396548,22.5367453 86.1721891,22.1953064 L87.2424245,21.7165496 C87.5183737,21.5977882 87.7831358,21.4753156 88.0665431,21.3454203 C88.2902857,21.2415041 88.5065702,21.1487218 88.7340418,21.0522282 C89.3157726,20.8035716 89.9012324,20.5623375 90.4829632,20.3099696 L92.6719116,19.4415271 L93.7682503,19.022151 L94.8869633,18.6101975 C95.2598677,18.4691683 95.6700624,18.3318505 96.061612,18.1833988 L97.1132022,17.8122695 L98.2319152,17.4411402 C98.2319152,17.4411402 98.2319152,17.4411402 98.2319152,17.4411402 L99.3506282,17.0700109 L100.469341,16.6988816 C100.812413,16.5875428 101.151756,16.4873379 101.494828,16.3797104 L101.726029,16.3091959 C102.065372,16.208991 102.397257,16.1050748 102.729141,16.0122924 C103.061026,15.9195101 103.47495,15.7821923 103.847854,15.6745648 L105.309639,15.2700339 L106.1263,15.0510676 C106.413436,14.9768417 106.704302,14.8951933 106.998896,14.8246787 C108.139983,14.5228269 109.283557,14.2432428 110.429616,13.9859265 L111.175425,13.8226296 C111.481206,13.7521151 111.786988,13.6816005 112.092769,13.6185085 C112.711791,13.484902 113.333298,13.3611922 113.957291,13.2473793 C114.330195,13.1768647 114.7031,13.1026388 115.046172,13.0395469 L115.747232,12.9059403 L115.922497,12.8725387 L116.742886,12.7277982 C117.369366,12.6214079 117.999574,12.5174917 118.633511,12.4160496 L119.468817,12.2898657 L119.569501,12.2898657 L120.356329,12.1748156 L121.40792,12.0300752 C160.372693,17.7231985 182.459817,46.5228312 171.73136,81.2048632 Z" id="Path" fill="url(#linearGradient-6)"></path>
                            <path d="M214.935318,82.0073703 C208.598317,102.465445 193.386502,121.145697 173.46806,135.338346 L165.022491,133.545551 C165.523276,133.219928 166.01653,132.883077 166.528611,132.546227 C185.916145,119.326702 200.792848,101.540977 206.851217,81.9923992 C219.483801,41.1698187 188.905794,8.08357938 138.54113,8.08357938 C111.073261,8.08357938 83.3945344,17.9271098 61.8494832,33.5008476 L57.1428571,29.1367577 L57.1428571,29.1367577 C80.5969159,12.2006454 110.704261,1.5037594 140.574392,1.5037594 C195.423529,1.5037594 228.712554,37.5430578 214.935318,82.0073703 Z" id="Path" fill="#FFFFFF" opacity="0.2"></path>
                            <path d="M173.220206,81.932296 C170.539238,90.6330392 166.047212,98.966251 160.164082,106.68441 L160.09659,106.766917 L64.6616541,35.3870703 C65.411575,34.8432738 66.1427479,34.3144786 66.8926689,33.7969344 C67.2676293,33.5194107 67.6800858,33.2493877 68.0775439,32.9793646 L68.8049672,32.491823 C69.7086219,31.8917717 70.627275,31.2954708 71.5496777,30.7104208 C71.774654,30.5754093 71.9921311,30.4328971 72.2171073,30.2978856 L72.3708411,30.1966269 L72.903285,29.8740994 C73.1657573,29.7090853 73.4282296,29.5478215 73.6982011,29.3865577 C74.2943883,29.0302773 74.8980746,28.6702465 75.5055105,28.3214667 L76.1466929,27.9464347 L76.847869,27.5489008 C77.1440877,27.3838867 77.4365569,27.2151222 77.7402749,27.0501081 C78.9588963,26.3750505 80.1887666,25.7149941 81.4336354,25.08119 C81.6511124,24.96493 81.8685895,24.8561708 82.0898162,24.7474115 L82.2285515,24.6761554 C82.8134898,24.3798801 83.3984282,24.0911054 83.9871161,23.8023307 L84.9095188,23.3597929 C85.6594397,22.9847609 86.4093606,22.6472321 87.1892784,22.3022026 L88.2654149,21.8184113 C88.5428856,21.698401 88.8091075,21.5746405 89.0940775,21.4433792 C89.3190538,21.3383703 89.5365308,21.2446123 89.7652567,21.1471039 C90.350195,20.8958325 90.9388829,20.6520616 91.5238213,20.3970399 L93.7248391,19.5194649 L94.8272229,19.0956787 L95.9521042,18.6793932 C96.3270647,18.536881 96.7395212,18.3981191 97.1332297,18.2481063 L98.1906182,17.8730743 L99.3154995,17.4980422 C99.3154995,17.4980422 99.3154995,17.4980422 99.3154995,17.4980422 L100.440381,17.1230102 L101.565262,16.7479782 C101.910226,16.6354686 102.25144,16.5342099 102.596404,16.4254506 L102.828879,16.3541945 C103.170093,16.2529359 103.503808,16.1479269 103.837523,16.0541689 C104.171237,15.9604109 104.587444,15.8216491 104.962404,15.7128898 L106.432249,15.3041048 L107.253412,15.0828359 C107.542132,15.0078295 107.834601,14.9253225 108.13082,14.8540664 C109.278199,14.5490403 110.428078,14.2665162 111.580456,14.006494 L112.330377,13.8414799 C112.637845,13.7702238 112.945312,13.6989677 113.25278,13.6352123 C113.875214,13.5002008 114.500148,13.3751901 115.127582,13.2601803 C115.502542,13.1889242 115.877503,13.1139178 116.222467,13.0501623 L116.927392,12.9151508 L117.103624,12.8813979 L117.928537,12.7351354 C118.55847,12.6276262 119.192153,12.5226173 119.829586,12.4201085 L120.669498,12.2925976 L120.770737,12.2925976 L121.561903,12.1763377 L122.619292,12.0300752 C161.79891,17.7830666 184.007818,46.8855524 173.220206,81.932296 Z" id="Path" fill="#FFFFFF" opacity="0.2"></path>
                        </g>
                        <g id="Untitled-1-07-Copy-2" transform="translate(91.894737, 0.000000)">
                            <path d="M218.684739,55.1138167 L218.684739,55.1138167 L213.421959,42.4446718 L214.820355,49.1776097 C201.964135,31.9712127 178.356807,21.0526316 148.22739,21.0526316 C118.402463,21.0526316 88.3444704,31.7393004 64.932617,48.6539368 L64.932617,48.6539368 C55.9206561,55.0968356 47.8034159,62.6959631 40.7914925,71.2541653 C33.2281256,80.605468 27.4954544,90.8021285 24.183662,101.503759 C21.6462501,109.702982 20.7102271,117.614184 21.2139503,125.069042 C19.217853,123.808487 16.5413534,122.330981 16.5413534,122.330981 L25.3151597,142.507352 L25.3151597,142.507352 C35.2768508,166.11004 62.1019931,181.954887 98.4302127,181.954887 C123.285572,181.954887 148.302573,174.529953 169.5003,162.268525 C172.632907,160.455619 175.679054,158.537978 178.638741,156.515603 C179.458231,155.958266 180.266444,155.393447 181.070898,154.817407 C200.956688,140.603426 216.143568,121.949448 222.473941,101.500019 C227.804386,84.2412545 226.045113,68.2206027 218.684739,55.1138167 Z" id="Path" fill="url(#linearGradient-1)"></path>
                            <path d="M213.459175,81.9548872 C207.178448,102.399625 192.101719,121.067698 172.360161,135.251094 C171.561542,135.823368 170.755459,136.395641 169.945645,136.952952 C167.0124,138.967753 163.988347,140.884057 160.873485,142.701866 C139.822042,154.981426 114.993953,162.406015 90.3151394,162.406015 C35.9568141,162.406015 2.96340796,126.386472 16.614565,81.9548872 C19.9060687,71.2537539 25.5971607,61.0426061 33.1056703,51.7066995 C40.0653302,43.1489038 48.1224629,35.5501088 57.0679665,29.1075217 L57.0679665,29.1075217 C80.3137449,12.1936717 110.153726,1.5037594 139.7586,1.5037594 C194.120658,1.5037594 227.114064,37.5195625 213.459175,81.9548872 Z" id="Path" fill="url(#linearGradient-2)"></path>
                            <path d="M188.907046,24.3163151 C176.589257,14.7371999 159.236105,9.02255639 138.486229,9.02255639 C100.5773,9.04866769 62.2577777,28.0726115 40.5299442,55.0194683 C33.635715,63.5727827 28.4062536,72.9243566 25.3865289,82.7235528 C17.8428163,107.204757 25.8045872,128.895783 44.2140829,142.294608 C44.2363192,142.306144 44.2564979,142.321268 44.2738056,142.33937 C56.4460208,151.168718 73.2056793,156.390977 93.0671811,156.390977 C119.09131,156.390977 145.302072,147.438533 166.227383,133.095972 C185.446867,119.920958 200.19462,102.195119 206.200475,82.7123622 C213.516495,58.9398928 206.20794,37.7934737 188.907046,24.3163151 Z" id="Path" fill="url(#linearGradient-3)"></path>
                            <path d="M201.818079,81.956776 C195.740195,102.04978 180.244928,120.212436 160.23763,133.188459 C159.6291,133.566218 159.016859,133.966643 158.404617,134.351957 C139.480801,146.160705 116.753668,153.383459 94.1786678,153.383459 C46.6835985,153.383459 17.8266333,121.406154 29.7597695,81.956776 C32.2755239,73.6460767 36.4053686,65.6564727 41.7968011,58.2335072 C48.5388746,48.9481895 57.2586725,40.5430505 67.2920059,33.4676234 C87.2696194,19.3621001 112.427164,10.5263158 137.399181,10.5263158 C184.912803,10.5263158 213.751215,42.5073976 201.818079,81.956776 Z" id="Path" fill="url(#linearGradient-4)"></path>
                            <path d="M201.816818,81.9547873 C195.73884,102.05101 180.243337,120.209382 160.235734,133.185044 C159.627194,133.562793 159.014943,133.963206 158.402693,134.34851 C139.478587,146.156929 116.751107,153.383459 94.1757622,153.383459 C89.3781552,153.392992 84.5862201,153.047067 79.8379691,152.348228 C41.0472629,146.57623 19.0915896,117.270498 29.7558798,81.9547873 C32.2716727,73.6443194 36.4015805,65.6549378 41.7930953,58.232179 C48.5352718,48.9471199 57.2552029,40.5422148 67.2886896,33.4669847 C83.2702824,22.1798583 102.56916,14.2735813 122.43205,11.5575693 C127.39219,10.8746308 132.391637,10.5301111 137.396936,10.5263158 C184.911283,10.5263158 213.753847,42.5065072 201.816818,81.9547873 Z" id="Path" fill="url(#linearGradient-5)"></path>
                            <path d="M171.73136,81.2048632 C169.065094,89.8150626 164.5977,98.0615554 158.746831,105.699396 L158.679708,105.781045 C154.747182,110.853769 150.349099,115.551468 145.542288,119.813443 C140.671585,124.13974 135.456186,128.065561 129.947429,131.552262 L128.101552,132.695341 C113.289792,141.721205 96.1660252,148.026691 78.598502,150.37594 C39.6150829,144.69395 17.5503335,115.90174 28.263875,81.2048632 C30.7996245,73.0400188 34.9463206,65.1869231 40.3608916,57.8979439 C46.6368715,49.4695978 54.6170243,41.7538199 63.7680966,35.1440072 C64.5139053,34.6058698 65.2410688,34.0825775 65.9868774,33.5704191 C66.3597818,33.2957834 66.7699765,33.0285703 67.1652551,32.7613572 L67.8886895,32.2788891 C68.787389,31.6850823 69.7010046,31.0949867 70.6183493,30.516025 C70.8420919,30.3824185 71.0583764,30.2413893 71.282119,30.1077828 L71.4350098,30.0075779 L71.9645339,29.6884067 C72.2255669,29.5251098 72.4866,29.3655242 72.7550911,29.2059386 C73.348009,28.8533658 73.948385,28.4970817 74.55249,28.1519315 L75.1901564,27.7808022 L75.8874875,27.3874051 C76.1820819,27.2241082 76.4729473,27.0571001 76.7749998,26.8938032 C77.9869389,26.2257705 79.2100651,25.5725829 80.4481075,24.9453744 C80.664392,24.8303243 80.8806765,24.7226968 81.1006901,24.6150693 L81.2386647,24.5445548 C81.8203955,24.2513626 82.4021262,23.9655931 82.987586,23.6798235 L83.9049307,23.241891 C84.6507394,22.8707617 85.396548,22.5367453 86.1721891,22.1953064 L87.2424245,21.7165496 C87.5183737,21.5977882 87.7831358,21.4753156 88.0665431,21.3454203 C88.2902857,21.2415041 88.5065702,21.1487218 88.7340418,21.0522282 C89.3157726,20.8035716 89.9012324,20.5623375 90.4829632,20.3099696 L92.6719116,19.4415271 L93.7682503,19.022151 L94.8869633,18.6101975 C95.2598677,18.4691683 95.6700624,18.3318505 96.061612,18.1833988 L97.1132022,17.8122695 L98.2319152,17.4411402 C98.2319152,17.4411402 98.2319152,17.4411402 98.2319152,17.4411402 L99.3506282,17.0700109 L100.469341,16.6988816 C100.812413,16.5875428 101.151756,16.4873379 101.494828,16.3797104 L101.726029,16.3091959 C102.065372,16.208991 102.397257,16.1050748 102.729141,16.0122924 C103.061026,15.9195101 103.47495,15.7821923 103.847854,15.6745648 L105.309639,15.2700339 L106.1263,15.0510676 C106.413436,14.9768417 106.704302,14.8951933 106.998896,14.8246787 C108.139983,14.5228269 109.283557,14.2432428 110.429616,13.9859265 L111.175425,13.8226296 C111.481206,13.7521151 111.786988,13.6816005 112.092769,13.6185085 C112.711791,13.484902 113.333298,13.3611922 113.957291,13.2473793 C114.330195,13.1768647 114.7031,13.1026388 115.046172,13.0395469 L115.747232,12.9059403 L115.922497,12.8725387 L116.742886,12.7277982 C117.369366,12.6214079 117.999574,12.5174917 118.633511,12.4160496 L119.468817,12.2898657 L119.569501,12.2898657 L120.356329,12.1748156 L121.40792,12.0300752 C160.372693,17.7231985 182.459817,46.5228312 171.73136,81.2048632 Z" id="Path" fill="url(#linearGradient-6)"></path>
                            <path d="M214.935318,82.0073703 C208.598317,102.465445 193.386502,121.145697 173.46806,135.338346 L165.022491,133.545551 C165.523276,133.219928 166.01653,132.883077 166.528611,132.546227 C185.916145,119.326702 200.792848,101.540977 206.851217,81.9923992 C219.483801,41.1698187 188.905794,8.08357938 138.54113,8.08357938 C111.073261,8.08357938 83.3945344,17.9271098 61.8494832,33.5008476 L57.1428571,29.1367577 L57.1428571,29.1367577 C80.5969159,12.2006454 110.704261,1.5037594 140.574392,1.5037594 C195.423529,1.5037594 228.712554,37.5430578 214.935318,82.0073703 Z" id="Path" fill="#FFFFFF" opacity="0.2"></path>
                            <path d="M173.220206,81.932296 C170.539238,90.6330392 166.047212,98.966251 160.164082,106.68441 L160.09659,106.766917 L64.6616541,35.3870703 C65.411575,34.8432738 66.1427479,34.3144786 66.8926689,33.7969344 C67.2676293,33.5194107 67.6800858,33.2493877 68.0775439,32.9793646 L68.8049672,32.491823 C69.7086219,31.8917717 70.627275,31.2954708 71.5496777,30.7104208 C71.774654,30.5754093 71.9921311,30.4328971 72.2171073,30.2978856 L72.3708411,30.1966269 L72.903285,29.8740994 C73.1657573,29.7090853 73.4282296,29.5478215 73.6982011,29.3865577 C74.2943883,29.0302773 74.8980746,28.6702465 75.5055105,28.3214667 L76.1466929,27.9464347 L76.847869,27.5489008 C77.1440877,27.3838867 77.4365569,27.2151222 77.7402749,27.0501081 C78.9588963,26.3750505 80.1887666,25.7149941 81.4336354,25.08119 C81.6511124,24.96493 81.8685895,24.8561708 82.0898162,24.7474115 L82.2285515,24.6761554 C82.8134898,24.3798801 83.3984282,24.0911054 83.9871161,23.8023307 L84.9095188,23.3597929 C85.6594397,22.9847609 86.4093606,22.6472321 87.1892784,22.3022026 L88.2654149,21.8184113 C88.5428856,21.698401 88.8091075,21.5746405 89.0940775,21.4433792 C89.3190538,21.3383703 89.5365308,21.2446123 89.7652567,21.1471039 C90.350195,20.8958325 90.9388829,20.6520616 91.5238213,20.3970399 L93.7248391,19.5194649 L94.8272229,19.0956787 L95.9521042,18.6793932 C96.3270647,18.536881 96.7395212,18.3981191 97.1332297,18.2481063 L98.1906182,17.8730743 L99.3154995,17.4980422 C99.3154995,17.4980422 99.3154995,17.4980422 99.3154995,17.4980422 L100.440381,17.1230102 L101.565262,16.7479782 C101.910226,16.6354686 102.25144,16.5342099 102.596404,16.4254506 L102.828879,16.3541945 C103.170093,16.2529359 103.503808,16.1479269 103.837523,16.0541689 C104.171237,15.9604109 104.587444,15.8216491 104.962404,15.7128898 L106.432249,15.3041048 L107.253412,15.0828359 C107.542132,15.0078295 107.834601,14.9253225 108.13082,14.8540664 C109.278199,14.5490403 110.428078,14.2665162 111.580456,14.006494 L112.330377,13.8414799 C112.637845,13.7702238 112.945312,13.6989677 113.25278,13.6352123 C113.875214,13.5002008 114.500148,13.3751901 115.127582,13.2601803 C115.502542,13.1889242 115.877503,13.1139178 116.222467,13.0501623 L116.927392,12.9151508 L117.103624,12.8813979 L117.928537,12.7351354 C118.55847,12.6276262 119.192153,12.5226173 119.829586,12.4201085 L120.669498,12.2925976 L120.770737,12.2925976 L121.561903,12.1763377 L122.619292,12.0300752 C161.79891,17.7830666 184.007818,46.8855524 173.220206,81.932296 Z" id="Path" fill="#FFFFFF" opacity="0.2"></path>
                        </g>
                    </g>
                </g>
            </g>
        </g>
    </g>
</svg>