<?xml version="1.0" encoding="UTF-8"?>
<svg width="134px" height="165px" viewBox="0 0 134 165" version="1.1" xmlns="http://www.w3.org/2000/svg" xmlns:xlink="http://www.w3.org/1999/xlink">
    <title>F0FA0726-992C-40B0-AA5A-4C0710D2F182</title>
    <g id="Visual-design" stroke="none" stroke-width="1" fill="none" fill-rule="evenodd" opacity="0.357308321">
        <g id="Careers" transform="translate(-1306.000000, -820.000000)" fill="#D2A955">
            <g id="Group-2" transform="translate(226.000000, 820.000000)">
                <path d="M1081.83333,3.66666667 C1082.84586,3.66666667 1083.66667,2.84585537 1083.66667,1.83333333 C1083.66667,0.820811292 1082.84586,0 1081.83333,0 C1080.82081,0 1080,0.820811292 1080,1.83333333 C1080,2.84585537 1080.82081,3.66666667 1081.83333,3.66666667 Z M1096.5,3.66666667 C1097.51252,3.66666667 1098.33333,2.84585537 1098.33333,1.83333333 C1098.33333,0.820811292 1097.51252,0 1096.5,0 C1095.48748,0 1094.66667,0.820811292 1094.66667,1.83333333 C1094.66667,2.84585537 1095.48748,3.66666667 1096.5,3.66666667 Z M1111.16667,3.66666667 C1112.17919,3.66666667 1113,2.84585537 1113,1.83333333 C1113,0.820811292 1112.17919,0 1111.16667,0 C1110.15414,0 1109.33333,0.820811292 1109.33333,1.83333333 C1109.33333,2.84585537 1110.15414,3.66666667 1111.16667,3.66666667 Z M1125.83333,3.66666667 C1126.84586,3.66666667 1127.66667,2.84585537 1127.66667,1.83333333 C1127.66667,0.820811292 1126.84586,0 1125.83333,0 C1124.82081,0 1124,0.820811292 1124,1.83333333 C1124,2.84585537 1124.82081,3.66666667 1125.83333,3.66666667 Z M1140.5,3.66666667 C1141.51252,3.66666667 1142.33333,2.84585537 1142.33333,1.83333333 C1142.33333,0.820811292 1141.51252,0 1140.5,0 C1139.48748,0 1138.66667,0.820811292 1138.66667,1.83333333 C1138.66667,2.84585537 1139.48748,3.66666667 1140.5,3.66666667 Z M1155.16667,3.66666667 C1156.17919,3.66666667 1157,2.84585537 1157,1.83333333 C1157,0.820811292 1156.17919,0 1155.16667,0 C1154.15414,0 1153.33333,0.820811292 1153.33333,1.83333333 C1153.33333,2.84585537 1154.15414,3.66666667 1155.16667,3.66666667 Z M1081.83333,18.3333333 C1082.84586,18.3333333 1083.66667,17.512522 1083.66667,16.5 C1083.66667,15.487478 1082.84586,14.6666667 1081.83333,14.6666667 C1080.82081,14.6666667 1080,15.487478 1080,16.5 C1080,17.512522 1080.82081,18.3333333 1081.83333,18.3333333 Z M1096.5,18.3333333 C1097.51252,18.3333333 1098.33333,17.512522 1098.33333,16.5 C1098.33333,15.487478 1097.51252,14.6666667 1096.5,14.6666667 C1095.48748,14.6666667 1094.66667,15.487478 1094.66667,16.5 C1094.66667,17.512522 1095.48748,18.3333333 1096.5,18.3333333 Z M1111.16667,18.3333333 C1112.17919,18.3333333 1113,17.512522 1113,16.5 C1113,15.487478 1112.17919,14.6666667 1111.16667,14.6666667 C1110.15414,14.6666667 1109.33333,15.487478 1109.33333,16.5 C1109.33333,17.512522 1110.15414,18.3333333 1111.16667,18.3333333 Z M1125.83333,18.3333333 C1126.84586,18.3333333 1127.66667,17.512522 1127.66667,16.5 C1127.66667,15.487478 1126.84586,14.6666667 1125.83333,14.6666667 C1124.82081,14.6666667 1124,15.487478 1124,16.5 C1124,17.512522 1124.82081,18.3333333 1125.83333,18.3333333 Z M1140.5,18.3333333 C1141.51252,18.3333333 1142.33333,17.512522 1142.33333,16.5 C1142.33333,15.487478 1141.51252,14.6666667 1140.5,14.6666667 C1139.48748,14.6666667 1138.66667,15.487478 1138.66667,16.5 C1138.66667,17.512522 1139.48748,18.3333333 1140.5,18.3333333 Z M1155.16667,18.3333333 C1156.17919,18.3333333 1157,17.512522 1157,16.5 C1157,15.487478 1156.17919,14.6666667 1155.16667,14.6666667 C1154.15414,14.6666667 1153.33333,15.487478 1153.33333,16.5 C1153.33333,17.512522 1154.15414,18.3333333 1155.16667,18.3333333 Z M1081.83333,33 C1082.84586,33 1083.66667,32.1791887 1083.66667,31.1666667 C1083.66667,30.1541446 1082.84586,29.3333333 1081.83333,29.3333333 C1080.82081,29.3333333 1080,30.1541446 1080,31.1666667 C1080,32.1791887 1080.82081,33 1081.83333,33 Z M1096.5,33 C1097.51252,33 1098.33333,32.1791887 1098.33333,31.1666667 C1098.33333,30.1541446 1097.51252,29.3333333 1096.5,29.3333333 C1095.48748,29.3333333 1094.66667,30.1541446 1094.66667,31.1666667 C1094.66667,32.1791887 1095.48748,33 1096.5,33 Z M1111.16667,33 C1112.17919,33 1113,32.1791887 1113,31.1666667 C1113,30.1541446 1112.17919,29.3333333 1111.16667,29.3333333 C1110.15414,29.3333333 1109.33333,30.1541446 1109.33333,31.1666667 C1109.33333,32.1791887 1110.15414,33 1111.16667,33 Z M1125.83333,33 C1126.84586,33 1127.66667,32.1791887 1127.66667,31.1666667 C1127.66667,30.1541446 1126.84586,29.3333333 1125.83333,29.3333333 C1124.82081,29.3333333 1124,30.1541446 1124,31.1666667 C1124,32.1791887 1124.82081,33 1125.83333,33 Z M1140.5,33 C1141.51252,33 1142.33333,32.1791887 1142.33333,31.1666667 C1142.33333,30.1541446 1141.51252,29.3333333 1140.5,29.3333333 C1139.48748,29.3333333 1138.66667,30.1541446 1138.66667,31.1666667 C1138.66667,32.1791887 1139.48748,33 1140.5,33 Z M1155.16667,33 C1156.17919,33 1157,32.1791887 1157,31.1666667 C1157,30.1541446 1156.17919,29.3333333 1155.16667,29.3333333 C1154.15414,29.3333333 1153.33333,30.1541446 1153.33333,31.1666667 C1153.33333,32.1791887 1154.15414,33 1155.16667,33 Z M1081.83333,47.6666667 C1082.84586,47.6666667 1083.66667,46.8458554 1083.66667,45.8333333 C1083.66667,44.8208113 1082.84586,44 1081.83333,44 C1080.82081,44 1080,44.8208113 1080,45.8333333 C1080,46.8458554 1080.82081,47.6666667 1081.83333,47.6666667 Z M1096.5,47.6666667 C1097.51252,47.6666667 1098.33333,46.8458554 1098.33333,45.8333333 C1098.33333,44.8208113 1097.51252,44 1096.5,44 C1095.48748,44 1094.66667,44.8208113 1094.66667,45.8333333 C1094.66667,46.8458554 1095.48748,47.6666667 1096.5,47.6666667 Z M1111.16667,47.6666667 C1112.17919,47.6666667 1113,46.8458554 1113,45.8333333 C1113,44.8208113 1112.17919,44 1111.16667,44 C1110.15414,44 1109.33333,44.8208113 1109.33333,45.8333333 C1109.33333,46.8458554 1110.15414,47.6666667 1111.16667,47.6666667 Z M1125.83333,47.6666667 C1126.84586,47.6666667 1127.66667,46.8458554 1127.66667,45.8333333 C1127.66667,44.8208113 1126.84586,44 1125.83333,44 C1124.82081,44 1124,44.8208113 1124,45.8333333 C1124,46.8458554 1124.82081,47.6666667 1125.83333,47.6666667 Z M1140.5,47.6666667 C1141.51252,47.6666667 1142.33333,46.8458554 1142.33333,45.8333333 C1142.33333,44.8208113 1141.51252,44 1140.5,44 C1139.48748,44 1138.66667,44.8208113 1138.66667,45.8333333 C1138.66667,46.8458554 1139.48748,47.6666667 1140.5,47.6666667 Z M1155.16667,47.6666667 C1156.17919,47.6666667 1157,46.8458554 1157,45.8333333 C1157,44.8208113 1156.17919,44 1155.16667,44 C1154.15414,44 1153.33333,44.8208113 1153.33333,45.8333333 C1153.33333,46.8458554 1154.15414,47.6666667 1155.16667,47.6666667 Z M1081.83333,62.3333333 C1082.84586,62.3333333 1083.66667,61.512522 1083.66667,60.5 C1083.66667,59.487478 1082.84586,58.6666667 1081.83333,58.6666667 C1080.82081,58.6666667 1080,59.487478 1080,60.5 C1080,61.512522 1080.82081,62.3333333 1081.83333,62.3333333 Z M1096.5,62.3333333 C1097.51252,62.3333333 1098.33333,61.512522 1098.33333,60.5 C1098.33333,59.487478 1097.51252,58.6666667 1096.5,58.6666667 C1095.48748,58.6666667 1094.66667,59.487478 1094.66667,60.5 C1094.66667,61.512522 1095.48748,62.3333333 1096.5,62.3333333 Z M1111.16667,62.3333333 C1112.17919,62.3333333 1113,61.512522 1113,60.5 C1113,59.487478 1112.17919,58.6666667 1111.16667,58.6666667 C1110.15414,58.6666667 1109.33333,59.487478 1109.33333,60.5 C1109.33333,61.512522 1110.15414,62.3333333 1111.16667,62.3333333 Z M1125.83333,62.3333333 C1126.84586,62.3333333 1127.66667,61.512522 1127.66667,60.5 C1127.66667,59.487478 1126.84586,58.6666667 1125.83333,58.6666667 C1124.82081,58.6666667 1124,59.487478 1124,60.5 C1124,61.512522 1124.82081,62.3333333 1125.83333,62.3333333 Z M1140.5,62.3333333 C1141.51252,62.3333333 1142.33333,61.512522 1142.33333,60.5 C1142.33333,59.487478 1141.51252,58.6666667 1140.5,58.6666667 C1139.48748,58.6666667 1138.66667,59.487478 1138.66667,60.5 C1138.66667,61.512522 1139.48748,62.3333333 1140.5,62.3333333 Z M1155.16667,62.3333333 C1156.17919,62.3333333 1157,61.512522 1157,60.5 C1157,59.487478 1156.17919,58.6666667 1155.16667,58.6666667 C1154.15414,58.6666667 1153.33333,59.487478 1153.33333,60.5 C1153.33333,61.512522 1154.15414,62.3333333 1155.16667,62.3333333 Z M1081.83333,77 C1082.84586,77 1083.66667,76.1791887 1083.66667,75.1666667 C1083.66667,74.1541446 1082.84586,73.3333333 1081.83333,73.3333333 C1080.82081,73.3333333 1080,74.1541446 1080,75.1666667 C1080,76.1791887 1080.82081,77 1081.83333,77 Z M1096.5,77 C1097.51252,77 1098.33333,76.1791887 1098.33333,75.1666667 C1098.33333,74.1541446 1097.51252,73.3333333 1096.5,73.3333333 C1095.48748,73.3333333 1094.66667,74.1541446 1094.66667,75.1666667 C1094.66667,76.1791887 1095.48748,77 1096.5,77 Z M1111.16667,77 C1112.17919,77 1113,76.1791887 1113,75.1666667 C1113,74.1541446 1112.17919,73.3333333 1111.16667,73.3333333 C1110.15414,73.3333333 1109.33333,74.1541446 1109.33333,75.1666667 C1109.33333,76.1791887 1110.15414,77 1111.16667,77 Z M1125.83333,77 C1126.84586,77 1127.66667,76.1791887 1127.66667,75.1666667 C1127.66667,74.1541446 1126.84586,73.3333333 1125.83333,73.3333333 C1124.82081,73.3333333 1124,74.1541446 1124,75.1666667 C1124,76.1791887 1124.82081,77 1125.83333,77 Z M1140.5,77 C1141.51252,77 1142.33333,76.1791887 1142.33333,75.1666667 C1142.33333,74.1541446 1141.51252,73.3333333 1140.5,73.3333333 C1139.48748,73.3333333 1138.66667,74.1541446 1138.66667,75.1666667 C1138.66667,76.1791887 1139.48748,77 1140.5,77 Z M1155.16667,77 C1156.17919,77 1157,76.1791887 1157,75.1666667 C1157,74.1541446 1156.17919,73.3333333 1155.16667,73.3333333 C1154.15414,73.3333333 1153.33333,74.1541446 1153.33333,75.1666667 C1153.33333,76.1791887 1154.15414,77 1155.16667,77 Z M1169.83333,3.66666667 C1170.84586,3.66666667 1171.66667,2.84585537 1171.66667,1.83333333 C1171.66667,0.820811292 1170.84586,0 1169.83333,0 C1168.82081,0 1168,0.820811292 1168,1.83333333 C1168,2.84585537 1168.82081,3.66666667 1169.83333,3.66666667 Z M1184.5,3.66666667 C1185.51252,3.66666667 1186.33333,2.84585537 1186.33333,1.83333333 C1186.33333,0.820811292 1185.51252,0 1184.5,0 C1183.48748,0 1182.66667,0.820811292 1182.66667,1.83333333 C1182.66667,2.84585537 1183.48748,3.66666667 1184.5,3.66666667 Z M1199.16667,3.66666667 C1200.17919,3.66666667 1201,2.84585537 1201,1.83333333 C1201,0.820811292 1200.17919,0 1199.16667,0 C1198.15414,0 1197.33333,0.820811292 1197.33333,1.83333333 C1197.33333,2.84585537 1198.15414,3.66666667 1199.16667,3.66666667 Z M1213.83333,3.66666667 C1214.84586,3.66666667 1215.66667,2.84585537 1215.66667,1.83333333 C1215.66667,0.820811292 1214.84586,0 1213.83333,0 C1212.82081,0 1212,0.820811292 1212,1.83333333 C1212,2.84585537 1212.82081,3.66666667 1213.83333,3.66666667 Z M1228.5,3.66666667 C1229.51252,3.66666667 1230.33333,2.84585537 1230.33333,1.83333333 C1230.33333,0.820811292 1229.51252,0 1228.5,0 C1227.48748,0 1226.66667,0.820811292 1226.66667,1.83333333 C1226.66667,2.84585537 1227.48748,3.66666667 1228.5,3.66666667 Z M1243.16667,3.66666667 C1244.17919,3.66666667 1245,2.84585537 1245,1.83333333 C1245,0.820811292 1244.17919,0 1243.16667,0 C1242.15414,0 1241.33333,0.820811292 1241.33333,1.83333333 C1241.33333,2.84585537 1242.15414,3.66666667 1243.16667,3.66666667 Z M1169.83333,18.3333333 C1170.84586,18.3333333 1171.66667,17.512522 1171.66667,16.5 C1171.66667,15.487478 1170.84586,14.6666667 1169.83333,14.6666667 C1168.82081,14.6666667 1168,15.487478 1168,16.5 C1168,17.512522 1168.82081,18.3333333 1169.83333,18.3333333 Z M1184.5,18.3333333 C1185.51252,18.3333333 1186.33333,17.512522 1186.33333,16.5 C1186.33333,15.487478 1185.51252,14.6666667 1184.5,14.6666667 C1183.48748,14.6666667 1182.66667,15.487478 1182.66667,16.5 C1182.66667,17.512522 1183.48748,18.3333333 1184.5,18.3333333 Z M1199.16667,18.3333333 C1200.17919,18.3333333 1201,17.512522 1201,16.5 C1201,15.487478 1200.17919,14.6666667 1199.16667,14.6666667 C1198.15414,14.6666667 1197.33333,15.487478 1197.33333,16.5 C1197.33333,17.512522 1198.15414,18.3333333 1199.16667,18.3333333 Z M1213.83333,18.3333333 C1214.84586,18.3333333 1215.66667,17.512522 1215.66667,16.5 C1215.66667,15.487478 1214.84586,14.6666667 1213.83333,14.6666667 C1212.82081,14.6666667 1212,15.487478 1212,16.5 C1212,17.512522 1212.82081,18.3333333 1213.83333,18.3333333 Z M1228.5,18.3333333 C1229.51252,18.3333333 1230.33333,17.512522 1230.33333,16.5 C1230.33333,15.487478 1229.51252,14.6666667 1228.5,14.6666667 C1227.48748,14.6666667 1226.66667,15.487478 1226.66667,16.5 C1226.66667,17.512522 1227.48748,18.3333333 1228.5,18.3333333 Z M1243.16667,18.3333333 C1244.17919,18.3333333 1245,17.512522 1245,16.5 C1245,15.487478 1244.17919,14.6666667 1243.16667,14.6666667 C1242.15414,14.6666667 1241.33333,15.487478 1241.33333,16.5 C1241.33333,17.512522 1242.15414,18.3333333 1243.16667,18.3333333 Z M1169.83333,33 C1170.84586,33 1171.66667,32.1791887 1171.66667,31.1666667 C1171.66667,30.1541446 1170.84586,29.3333333 1169.83333,29.3333333 C1168.82081,29.3333333 1168,30.1541446 1168,31.1666667 C1168,32.1791887 1168.82081,33 1169.83333,33 Z M1184.5,33 C1185.51252,33 1186.33333,32.1791887 1186.33333,31.1666667 C1186.33333,30.1541446 1185.51252,29.3333333 1184.5,29.3333333 C1183.48748,29.3333333 1182.66667,30.1541446 1182.66667,31.1666667 C1182.66667,32.1791887 1183.48748,33 1184.5,33 Z M1199.16667,33 C1200.17919,33 1201,32.1791887 1201,31.1666667 C1201,30.1541446 1200.17919,29.3333333 1199.16667,29.3333333 C1198.15414,29.3333333 1197.33333,30.1541446 1197.33333,31.1666667 C1197.33333,32.1791887 1198.15414,33 1199.16667,33 Z M1213.83333,33 C1214.84586,33 1215.66667,32.1791887 1215.66667,31.1666667 C1215.66667,30.1541446 1214.84586,29.3333333 1213.83333,29.3333333 C1212.82081,29.3333333 1212,30.1541446 1212,31.1666667 C1212,32.1791887 1212.82081,33 1213.83333,33 Z M1228.5,33 C1229.51252,33 1230.33333,32.1791887 1230.33333,31.1666667 C1230.33333,30.1541446 1229.51252,29.3333333 1228.5,29.3333333 C1227.48748,29.3333333 1226.66667,30.1541446 1226.66667,31.1666667 C1226.66667,32.1791887 1227.48748,33 1228.5,33 Z M1243.16667,33 C1244.17919,33 1245,32.1791887 1245,31.1666667 C1245,30.1541446 1244.17919,29.3333333 1243.16667,29.3333333 C1242.15414,29.3333333 1241.33333,30.1541446 1241.33333,31.1666667 C1241.33333,32.1791887 1242.15414,33 1243.16667,33 Z M1169.83333,47.6666667 C1170.84586,47.6666667 1171.66667,46.8458554 1171.66667,45.8333333 C1171.66667,44.8208113 1170.84586,44 1169.83333,44 C1168.82081,44 1168,44.8208113 1168,45.8333333 C1168,46.8458554 1168.82081,47.6666667 1169.83333,47.6666667 Z M1184.5,47.6666667 C1185.51252,47.6666667 1186.33333,46.8458554 1186.33333,45.8333333 C1186.33333,44.8208113 1185.51252,44 1184.5,44 C1183.48748,44 1182.66667,44.8208113 1182.66667,45.8333333 C1182.66667,46.8458554 1183.48748,47.6666667 1184.5,47.6666667 Z M1199.16667,47.6666667 C1200.17919,47.6666667 1201,46.8458554 1201,45.8333333 C1201,44.8208113 1200.17919,44 1199.16667,44 C1198.15414,44 1197.33333,44.8208113 1197.33333,45.8333333 C1197.33333,46.8458554 1198.15414,47.6666667 1199.16667,47.6666667 Z M1213.83333,47.6666667 C1214.84586,47.6666667 1215.66667,46.8458554 1215.66667,45.8333333 C1215.66667,44.8208113 1214.84586,44 1213.83333,44 C1212.82081,44 1212,44.8208113 1212,45.8333333 C1212,46.8458554 1212.82081,47.6666667 1213.83333,47.6666667 Z M1228.5,47.6666667 C1229.51252,47.6666667 1230.33333,46.8458554 1230.33333,45.8333333 C1230.33333,44.8208113 1229.51252,44 1228.5,44 C1227.48748,44 1226.66667,44.8208113 1226.66667,45.8333333 C1226.66667,46.8458554 1227.48748,47.6666667 1228.5,47.6666667 Z M1243.16667,47.6666667 C1244.17919,47.6666667 1245,46.8458554 1245,45.8333333 C1245,44.8208113 1244.17919,44 1243.16667,44 C1242.15414,44 1241.33333,44.8208113 1241.33333,45.8333333 C1241.33333,46.8458554 1242.15414,47.6666667 1243.16667,47.6666667 Z M1169.83333,62.3333333 C1170.84586,62.3333333 1171.66667,61.512522 1171.66667,60.5 C1171.66667,59.487478 1170.84586,58.6666667 1169.83333,58.6666667 C1168.82081,58.6666667 1168,59.487478 1168,60.5 C1168,61.512522 1168.82081,62.3333333 1169.83333,62.3333333 Z M1184.5,62.3333333 C1185.51252,62.3333333 1186.33333,61.512522 1186.33333,60.5 C1186.33333,59.487478 1185.51252,58.6666667 1184.5,58.6666667 C1183.48748,58.6666667 1182.66667,59.487478 1182.66667,60.5 C1182.66667,61.512522 1183.48748,62.3333333 1184.5,62.3333333 Z M1199.16667,62.3333333 C1200.17919,62.3333333 1201,61.512522 1201,60.5 C1201,59.487478 1200.17919,58.6666667 1199.16667,58.6666667 C1198.15414,58.6666667 1197.33333,59.487478 1197.33333,60.5 C1197.33333,61.512522 1198.15414,62.3333333 1199.16667,62.3333333 Z M1213.83333,62.3333333 C1214.84586,62.3333333 1215.66667,61.512522 1215.66667,60.5 C1215.66667,59.487478 1214.84586,58.6666667 1213.83333,58.6666667 C1212.82081,58.6666667 1212,59.487478 1212,60.5 C1212,61.512522 1212.82081,62.3333333 1213.83333,62.3333333 Z M1228.5,62.3333333 C1229.51252,62.3333333 1230.33333,61.512522 1230.33333,60.5 C1230.33333,59.487478 1229.51252,58.6666667 1228.5,58.6666667 C1227.48748,58.6666667 1226.66667,59.487478 1226.66667,60.5 C1226.66667,61.512522 1227.48748,62.3333333 1228.5,62.3333333 Z M1243.16667,62.3333333 C1244.17919,62.3333333 1245,61.512522 1245,60.5 C1245,59.487478 1244.17919,58.6666667 1243.16667,58.6666667 C1242.15414,58.6666667 1241.33333,59.487478 1241.33333,60.5 C1241.33333,61.512522 1242.15414,62.3333333 1243.16667,62.3333333 Z M1169.83333,77 C1170.84586,77 1171.66667,76.1791887 1171.66667,75.1666667 C1171.66667,74.1541446 1170.84586,73.3333333 1169.83333,73.3333333 C1168.82081,73.3333333 1168,74.1541446 1168,75.1666667 C1168,76.1791887 1168.82081,77 1169.83333,77 Z M1184.5,77 C1185.51252,77 1186.33333,76.1791887 1186.33333,75.1666667 C1186.33333,74.1541446 1185.51252,73.3333333 1184.5,73.3333333 C1183.48748,73.3333333 1182.66667,74.1541446 1182.66667,75.1666667 C1182.66667,76.1791887 1183.48748,77 1184.5,77 Z M1199.16667,77 C1200.17919,77 1201,76.1791887 1201,75.1666667 C1201,74.1541446 1200.17919,73.3333333 1199.16667,73.3333333 C1198.15414,73.3333333 1197.33333,74.1541446 1197.33333,75.1666667 C1197.33333,76.1791887 1198.15414,77 1199.16667,77 Z M1213.83333,77 C1214.84586,77 1215.66667,76.1791887 1215.66667,75.1666667 C1215.66667,74.1541446 1214.84586,73.3333333 1213.83333,73.3333333 C1212.82081,73.3333333 1212,74.1541446 1212,75.1666667 C1212,76.1791887 1212.82081,77 1213.83333,77 Z M1228.5,77 C1229.51252,77 1230.33333,76.1791887 1230.33333,75.1666667 C1230.33333,74.1541446 1229.51252,73.3333333 1228.5,73.3333333 C1227.48748,73.3333333 1226.66667,74.1541446 1226.66667,75.1666667 C1226.66667,76.1791887 1227.48748,77 1228.5,77 Z M1243.16667,77 C1244.17919,77 1245,76.1791887 1245,75.1666667 C1245,74.1541446 1244.17919,73.3333333 1243.16667,73.3333333 C1242.15414,73.3333333 1241.33333,74.1541446 1241.33333,75.1666667 C1241.33333,76.1791887 1242.15414,77 1243.16667,77 Z M1081.83333,91.6666667 C1082.84586,91.6666667 1083.66667,90.8458554 1083.66667,89.8333333 C1083.66667,88.8208113 1082.84586,88 1081.83333,88 C1080.82081,88 1080,88.8208113 1080,89.8333333 C1080,90.8458554 1080.82081,91.6666667 1081.83333,91.6666667 Z M1096.5,91.6666667 C1097.51252,91.6666667 1098.33333,90.8458554 1098.33333,89.8333333 C1098.33333,88.8208113 1097.51252,88 1096.5,88 C1095.48748,88 1094.66667,88.8208113 1094.66667,89.8333333 C1094.66667,90.8458554 1095.48748,91.6666667 1096.5,91.6666667 Z M1111.16667,91.6666667 C1112.17919,91.6666667 1113,90.8458554 1113,89.8333333 C1113,88.8208113 1112.17919,88 1111.16667,88 C1110.15414,88 1109.33333,88.8208113 1109.33333,89.8333333 C1109.33333,90.8458554 1110.15414,91.6666667 1111.16667,91.6666667 Z M1125.83333,91.6666667 C1126.84586,91.6666667 1127.66667,90.8458554 1127.66667,89.8333333 C1127.66667,88.8208113 1126.84586,88 1125.83333,88 C1124.82081,88 1124,88.8208113 1124,89.8333333 C1124,90.8458554 1124.82081,91.6666667 1125.83333,91.6666667 Z M1140.5,91.6666667 C1141.51252,91.6666667 1142.33333,90.8458554 1142.33333,89.8333333 C1142.33333,88.8208113 1141.51252,88 1140.5,88 C1139.48748,88 1138.66667,88.8208113 1138.66667,89.8333333 C1138.66667,90.8458554 1139.48748,91.6666667 1140.5,91.6666667 Z M1155.16667,91.6666667 C1156.17919,91.6666667 1157,90.8458554 1157,89.8333333 C1157,88.8208113 1156.17919,88 1155.16667,88 C1154.15414,88 1153.33333,88.8208113 1153.33333,89.8333333 C1153.33333,90.8458554 1154.15414,91.6666667 1155.16667,91.6666667 Z M1081.83333,106.333333 C1082.84586,106.333333 1083.66667,105.512522 1083.66667,104.5 C1083.66667,103.487478 1082.84586,102.666667 1081.83333,102.666667 C1080.82081,102.666667 1080,103.487478 1080,104.5 C1080,105.512522 1080.82081,106.333333 1081.83333,106.333333 Z M1096.5,106.333333 C1097.51252,106.333333 1098.33333,105.512522 1098.33333,104.5 C1098.33333,103.487478 1097.51252,102.666667 1096.5,102.666667 C1095.48748,102.666667 1094.66667,103.487478 1094.66667,104.5 C1094.66667,105.512522 1095.48748,106.333333 1096.5,106.333333 Z M1111.16667,106.333333 C1112.17919,106.333333 1113,105.512522 1113,104.5 C1113,103.487478 1112.17919,102.666667 1111.16667,102.666667 C1110.15414,102.666667 1109.33333,103.487478 1109.33333,104.5 C1109.33333,105.512522 1110.15414,106.333333 1111.16667,106.333333 Z M1125.83333,106.333333 C1126.84586,106.333333 1127.66667,105.512522 1127.66667,104.5 C1127.66667,103.487478 1126.84586,102.666667 1125.83333,102.666667 C1124.82081,102.666667 1124,103.487478 1124,104.5 C1124,105.512522 1124.82081,106.333333 1125.83333,106.333333 Z M1140.5,106.333333 C1141.51252,106.333333 1142.33333,105.512522 1142.33333,104.5 C1142.33333,103.487478 1141.51252,102.666667 1140.5,102.666667 C1139.48748,102.666667 1138.66667,103.487478 1138.66667,104.5 C1138.66667,105.512522 1139.48748,106.333333 1140.5,106.333333 Z M1155.16667,106.333333 C1156.17919,106.333333 1157,105.512522 1157,104.5 C1157,103.487478 1156.17919,102.666667 1155.16667,102.666667 C1154.15414,102.666667 1153.33333,103.487478 1153.33333,104.5 C1153.33333,105.512522 1154.15414,106.333333 1155.16667,106.333333 Z M1081.83333,121 C1082.84586,121 1083.66667,120.179189 1083.66667,119.166667 C1083.66667,118.154145 1082.84586,117.333333 1081.83333,117.333333 C1080.82081,117.333333 1080,118.154145 1080,119.166667 C1080,120.179189 1080.82081,121 1081.83333,121 Z M1096.5,121 C1097.51252,121 1098.33333,120.179189 1098.33333,119.166667 C1098.33333,118.154145 1097.51252,117.333333 1096.5,117.333333 C1095.48748,117.333333 1094.66667,118.154145 1094.66667,119.166667 C1094.66667,120.179189 1095.48748,121 1096.5,121 Z M1111.16667,121 C1112.17919,121 1113,120.179189 1113,119.166667 C1113,118.154145 1112.17919,117.333333 1111.16667,117.333333 C1110.15414,117.333333 1109.33333,118.154145 1109.33333,119.166667 C1109.33333,120.179189 1110.15414,121 1111.16667,121 Z M1125.83333,121 C1126.84586,121 1127.66667,120.179189 1127.66667,119.166667 C1127.66667,118.154145 1126.84586,117.333333 1125.83333,117.333333 C1124.82081,117.333333 1124,118.154145 1124,119.166667 C1124,120.179189 1124.82081,121 1125.83333,121 Z M1140.5,121 C1141.51252,121 1142.33333,120.179189 1142.33333,119.166667 C1142.33333,118.154145 1141.51252,117.333333 1140.5,117.333333 C1139.48748,117.333333 1138.66667,118.154145 1138.66667,119.166667 C1138.66667,120.179189 1139.48748,121 1140.5,121 Z M1155.16667,121 C1156.17919,121 1157,120.179189 1157,119.166667 C1157,118.154145 1156.17919,117.333333 1155.16667,117.333333 C1154.15414,117.333333 1153.33333,118.154145 1153.33333,119.166667 C1153.33333,120.179189 1154.15414,121 1155.16667,121 Z M1081.83333,135.666667 C1082.84586,135.666667 1083.66667,134.845855 1083.66667,133.833333 C1083.66667,132.820811 1082.84586,132 1081.83333,132 C1080.82081,132 1080,132.820811 1080,133.833333 C1080,134.845855 1080.82081,135.666667 1081.83333,135.666667 Z M1096.5,135.666667 C1097.51252,135.666667 1098.33333,134.845855 1098.33333,133.833333 C1098.33333,132.820811 1097.51252,132 1096.5,132 C1095.48748,132 1094.66667,132.820811 1094.66667,133.833333 C1094.66667,134.845855 1095.48748,135.666667 1096.5,135.666667 Z M1111.16667,135.666667 C1112.17919,135.666667 1113,134.845855 1113,133.833333 C1113,132.820811 1112.17919,132 1111.16667,132 C1110.15414,132 1109.33333,132.820811 1109.33333,133.833333 C1109.33333,134.845855 1110.15414,135.666667 1111.16667,135.666667 Z M1125.83333,135.666667 C1126.84586,135.666667 1127.66667,134.845855 1127.66667,133.833333 C1127.66667,132.820811 1126.84586,132 1125.83333,132 C1124.82081,132 1124,132.820811 1124,133.833333 C1124,134.845855 1124.82081,135.666667 1125.83333,135.666667 Z M1140.5,135.666667 C1141.51252,135.666667 1142.33333,134.845855 1142.33333,133.833333 C1142.33333,132.820811 1141.51252,132 1140.5,132 C1139.48748,132 1138.66667,132.820811 1138.66667,133.833333 C1138.66667,134.845855 1139.48748,135.666667 1140.5,135.666667 Z M1155.16667,135.666667 C1156.17919,135.666667 1157,134.845855 1157,133.833333 C1157,132.820811 1156.17919,132 1155.16667,132 C1154.15414,132 1153.33333,132.820811 1153.33333,133.833333 C1153.33333,134.845855 1154.15414,135.666667 1155.16667,135.666667 Z M1081.83333,150.333333 C1082.84586,150.333333 1083.66667,149.512522 1083.66667,148.5 C1083.66667,147.487478 1082.84586,146.666667 1081.83333,146.666667 C1080.82081,146.666667 1080,147.487478 1080,148.5 C1080,149.512522 1080.82081,150.333333 1081.83333,150.333333 Z M1096.5,150.333333 C1097.51252,150.333333 1098.33333,149.512522 1098.33333,148.5 C1098.33333,147.487478 1097.51252,146.666667 1096.5,146.666667 C1095.48748,146.666667 1094.66667,147.487478 1094.66667,148.5 C1094.66667,149.512522 1095.48748,150.333333 1096.5,150.333333 Z M1111.16667,150.333333 C1112.17919,150.333333 1113,149.512522 1113,148.5 C1113,147.487478 1112.17919,146.666667 1111.16667,146.666667 C1110.15414,146.666667 1109.33333,147.487478 1109.33333,148.5 C1109.33333,149.512522 1110.15414,150.333333 1111.16667,150.333333 Z M1125.83333,150.333333 C1126.84586,150.333333 1127.66667,149.512522 1127.66667,148.5 C1127.66667,147.487478 1126.84586,146.666667 1125.83333,146.666667 C1124.82081,146.666667 1124,147.487478 1124,148.5 C1124,149.512522 1124.82081,150.333333 1125.83333,150.333333 Z M1140.5,150.333333 C1141.51252,150.333333 1142.33333,149.512522 1142.33333,148.5 C1142.33333,147.487478 1141.51252,146.666667 1140.5,146.666667 C1139.48748,146.666667 1138.66667,147.487478 1138.66667,148.5 C1138.66667,149.512522 1139.48748,150.333333 1140.5,150.333333 Z M1155.16667,150.333333 C1156.17919,150.333333 1157,149.512522 1157,148.5 C1157,147.487478 1156.17919,146.666667 1155.16667,146.666667 C1154.15414,146.666667 1153.33333,147.487478 1153.33333,148.5 C1153.33333,149.512522 1154.15414,150.333333 1155.16667,150.333333 Z M1081.83333,165 C1082.84586,165 1083.66667,164.179189 1083.66667,163.166667 C1083.66667,162.154145 1082.84586,161.333333 1081.83333,161.333333 C1080.82081,161.333333 1080,162.154145 1080,163.166667 C1080,164.179189 1080.82081,165 1081.83333,165 Z M1096.5,165 C1097.51252,165 1098.33333,164.179189 1098.33333,163.166667 C1098.33333,162.154145 1097.51252,161.333333 1096.5,161.333333 C1095.48748,161.333333 1094.66667,162.154145 1094.66667,163.166667 C1094.66667,164.179189 1095.48748,165 1096.5,165 Z M1111.16667,165 C1112.17919,165 1113,164.179189 1113,163.166667 C1113,162.154145 1112.17919,161.333333 1111.16667,161.333333 C1110.15414,161.333333 1109.33333,162.154145 1109.33333,163.166667 C1109.33333,164.179189 1110.15414,165 1111.16667,165 Z M1125.83333,165 C1126.84586,165 1127.66667,164.179189 1127.66667,163.166667 C1127.66667,162.154145 1126.84586,161.333333 1125.83333,161.333333 C1124.82081,161.333333 1124,162.154145 1124,163.166667 C1124,164.179189 1124.82081,165 1125.83333,165 Z M1140.5,165 C1141.51252,165 1142.33333,164.179189 1142.33333,163.166667 C1142.33333,162.154145 1141.51252,161.333333 1140.5,161.333333 C1139.48748,161.333333 1138.66667,162.154145 1138.66667,163.166667 C1138.66667,164.179189 1139.48748,165 1140.5,165 Z M1155.16667,165 C1156.17919,165 1157,164.179189 1157,163.166667 C1157,162.154145 1156.17919,161.333333 1155.16667,161.333333 C1154.15414,161.333333 1153.33333,162.154145 1153.33333,163.166667 C1153.33333,164.179189 1154.15414,165 1155.16667,165 Z M1169.83333,91.6666667 C1170.84586,91.6666667 1171.66667,90.8458554 1171.66667,89.8333333 C1171.66667,88.8208113 1170.84586,88 1169.83333,88 C1168.82081,88 1168,88.8208113 1168,89.8333333 C1168,90.8458554 1168.82081,91.6666667 1169.83333,91.6666667 Z M1184.5,91.6666667 C1185.51252,91.6666667 1186.33333,90.8458554 1186.33333,89.8333333 C1186.33333,88.8208113 1185.51252,88 1184.5,88 C1183.48748,88 1182.66667,88.8208113 1182.66667,89.8333333 C1182.66667,90.8458554 1183.48748,91.6666667 1184.5,91.6666667 Z M1199.16667,91.6666667 C1200.17919,91.6666667 1201,90.8458554 1201,89.8333333 C1201,88.8208113 1200.17919,88 1199.16667,88 C1198.15414,88 1197.33333,88.8208113 1197.33333,89.8333333 C1197.33333,90.8458554 1198.15414,91.6666667 1199.16667,91.6666667 Z M1213.83333,91.6666667 C1214.84586,91.6666667 1215.66667,90.8458554 1215.66667,89.8333333 C1215.66667,88.8208113 1214.84586,88 1213.83333,88 C1212.82081,88 1212,88.8208113 1212,89.8333333 C1212,90.8458554 1212.82081,91.6666667 1213.83333,91.6666667 Z M1228.5,91.6666667 C1229.51252,91.6666667 1230.33333,90.8458554 1230.33333,89.8333333 C1230.33333,88.8208113 1229.51252,88 1228.5,88 C1227.48748,88 1226.66667,88.8208113 1226.66667,89.8333333 C1226.66667,90.8458554 1227.48748,91.6666667 1228.5,91.6666667 Z M1243.16667,91.6666667 C1244.17919,91.6666667 1245,90.8458554 1245,89.8333333 C1245,88.8208113 1244.17919,88 1243.16667,88 C1242.15414,88 1241.33333,88.8208113 1241.33333,89.8333333 C1241.33333,90.8458554 1242.15414,91.6666667 1243.16667,91.6666667 Z M1169.83333,106.333333 C1170.84586,106.333333 1171.66667,105.512522 1171.66667,104.5 C1171.66667,103.487478 1170.84586,102.666667 1169.83333,102.666667 C1168.82081,102.666667 1168,103.487478 1168,104.5 C1168,105.512522 1168.82081,106.333333 1169.83333,106.333333 Z M1184.5,106.333333 C1185.51252,106.333333 1186.33333,105.512522 1186.33333,104.5 C1186.33333,103.487478 1185.51252,102.666667 1184.5,102.666667 C1183.48748,102.666667 1182.66667,103.487478 1182.66667,104.5 C1182.66667,105.512522 1183.48748,106.333333 1184.5,106.333333 Z M1199.16667,106.333333 C1200.17919,106.333333 1201,105.512522 1201,104.5 C1201,103.487478 1200.17919,102.666667 1199.16667,102.666667 C1198.15414,102.666667 1197.33333,103.487478 1197.33333,104.5 C1197.33333,105.512522 1198.15414,106.333333 1199.16667,106.333333 Z M1213.83333,106.333333 C1214.84586,106.333333 1215.66667,105.512522 1215.66667,104.5 C1215.66667,103.487478 1214.84586,102.666667 1213.83333,102.666667 C1212.82081,102.666667 1212,103.487478 1212,104.5 C1212,105.512522 1212.82081,106.333333 1213.83333,106.333333 Z M1228.5,106.333333 C1229.51252,106.333333 1230.33333,105.512522 1230.33333,104.5 C1230.33333,103.487478 1229.51252,102.666667 1228.5,102.666667 C1227.48748,102.666667 1226.66667,103.487478 1226.66667,104.5 C1226.66667,105.512522 1227.48748,106.333333 1228.5,106.333333 Z M1243.16667,106.333333 C1244.17919,106.333333 1245,105.512522 1245,104.5 C1245,103.487478 1244.17919,102.666667 1243.16667,102.666667 C1242.15414,102.666667 1241.33333,103.487478 1241.33333,104.5 C1241.33333,105.512522 1242.15414,106.333333 1243.16667,106.333333 Z M1169.83333,121 C1170.84586,121 1171.66667,120.179189 1171.66667,119.166667 C1171.66667,118.154145 1170.84586,117.333333 1169.83333,117.333333 C1168.82081,117.333333 1168,118.154145 1168,119.166667 C1168,120.179189 1168.82081,121 1169.83333,121 Z M1184.5,121 C1185.51252,121 1186.33333,120.179189 1186.33333,119.166667 C1186.33333,118.154145 1185.51252,117.333333 1184.5,117.333333 C1183.48748,117.333333 1182.66667,118.154145 1182.66667,119.166667 C1182.66667,120.179189 1183.48748,121 1184.5,121 Z M1199.16667,121 C1200.17919,121 1201,120.179189 1201,119.166667 C1201,118.154145 1200.17919,117.333333 1199.16667,117.333333 C1198.15414,117.333333 1197.33333,118.154145 1197.33333,119.166667 C1197.33333,120.179189 1198.15414,121 1199.16667,121 Z M1213.83333,121 C1214.84586,121 1215.66667,120.179189 1215.66667,119.166667 C1215.66667,118.154145 1214.84586,117.333333 1213.83333,117.333333 C1212.82081,117.333333 1212,118.154145 1212,119.166667 C1212,120.179189 1212.82081,121 1213.83333,121 Z M1228.5,121 C1229.51252,121 1230.33333,120.179189 1230.33333,119.166667 C1230.33333,118.154145 1229.51252,117.333333 1228.5,117.333333 C1227.48748,117.333333 1226.66667,118.154145 1226.66667,119.166667 C1226.66667,120.179189 1227.48748,121 1228.5,121 Z M1243.16667,121 C1244.17919,121 1245,120.179189 1245,119.166667 C1245,118.154145 1244.17919,117.333333 1243.16667,117.333333 C1242.15414,117.333333 1241.33333,118.154145 1241.33333,119.166667 C1241.33333,120.179189 1242.15414,121 1243.16667,121 Z M1169.83333,135.666667 C1170.84586,135.666667 1171.66667,134.845855 1171.66667,133.833333 C1171.66667,132.820811 1170.84586,132 1169.83333,132 C1168.82081,132 1168,132.820811 1168,133.833333 C1168,134.845855 1168.82081,135.666667 1169.83333,135.666667 Z M1184.5,135.666667 C1185.51252,135.666667 1186.33333,134.845855 1186.33333,133.833333 C1186.33333,132.820811 1185.51252,132 1184.5,132 C1183.48748,132 1182.66667,132.820811 1182.66667,133.833333 C1182.66667,134.845855 1183.48748,135.666667 1184.5,135.666667 Z M1199.16667,135.666667 C1200.17919,135.666667 1201,134.845855 1201,133.833333 C1201,132.820811 1200.17919,132 1199.16667,132 C1198.15414,132 1197.33333,132.820811 1197.33333,133.833333 C1197.33333,134.845855 1198.15414,135.666667 1199.16667,135.666667 Z M1213.83333,135.666667 C1214.84586,135.666667 1215.66667,134.845855 1215.66667,133.833333 C1215.66667,132.820811 1214.84586,132 1213.83333,132 C1212.82081,132 1212,132.820811 1212,133.833333 C1212,134.845855 1212.82081,135.666667 1213.83333,135.666667 Z M1228.5,135.666667 C1229.51252,135.666667 1230.33333,134.845855 1230.33333,133.833333 C1230.33333,132.820811 1229.51252,132 1228.5,132 C1227.48748,132 1226.66667,132.820811 1226.66667,133.833333 C1226.66667,134.845855 1227.48748,135.666667 1228.5,135.666667 Z M1243.16667,135.666667 C1244.17919,135.666667 1245,134.845855 1245,133.833333 C1245,132.820811 1244.17919,132 1243.16667,132 C1242.15414,132 1241.33333,132.820811 1241.33333,133.833333 C1241.33333,134.845855 1242.15414,135.666667 1243.16667,135.666667 Z M1169.83333,150.333333 C1170.84586,150.333333 1171.66667,149.512522 1171.66667,148.5 C1171.66667,147.487478 1170.84586,146.666667 1169.83333,146.666667 C1168.82081,146.666667 1168,147.487478 1168,148.5 C1168,149.512522 1168.82081,150.333333 1169.83333,150.333333 Z M1184.5,150.333333 C1185.51252,150.333333 1186.33333,149.512522 1186.33333,148.5 C1186.33333,147.487478 1185.51252,146.666667 1184.5,146.666667 C1183.48748,146.666667 1182.66667,147.487478 1182.66667,148.5 C1182.66667,149.512522 1183.48748,150.333333 1184.5,150.333333 Z M1199.16667,150.333333 C1200.17919,150.333333 1201,149.512522 1201,148.5 C1201,147.487478 1200.17919,146.666667 1199.16667,146.666667 C1198.15414,146.666667 1197.33333,147.487478 1197.33333,148.5 C1197.33333,149.512522 1198.15414,150.333333 1199.16667,150.333333 Z M1213.83333,150.333333 C1214.84586,150.333333 1215.66667,149.512522 1215.66667,148.5 C1215.66667,147.487478 1214.84586,146.666667 1213.83333,146.666667 C1212.82081,146.666667 1212,147.487478 1212,148.5 C1212,149.512522 1212.82081,150.333333 1213.83333,150.333333 Z M1228.5,150.333333 C1229.51252,150.333333 1230.33333,149.512522 1230.33333,148.5 C1230.33333,147.487478 1229.51252,146.666667 1228.5,146.666667 C1227.48748,146.666667 1226.66667,147.487478 1226.66667,148.5 C1226.66667,149.512522 1227.48748,150.333333 1228.5,150.333333 Z M1243.16667,150.333333 C1244.17919,150.333333 1245,149.512522 1245,148.5 C1245,147.487478 1244.17919,146.666667 1243.16667,146.666667 C1242.15414,146.666667 1241.33333,147.487478 1241.33333,148.5 C1241.33333,149.512522 1242.15414,150.333333 1243.16667,150.333333 Z M1169.83333,165 C1170.84586,165 1171.66667,164.179189 1171.66667,163.166667 C1171.66667,162.154145 1170.84586,161.333333 1169.83333,161.333333 C1168.82081,161.333333 1168,162.154145 1168,163.166667 C1168,164.179189 1168.82081,165 1169.83333,165 Z M1184.5,165 C1185.51252,165 1186.33333,164.179189 1186.33333,163.166667 C1186.33333,162.154145 1185.51252,161.333333 1184.5,161.333333 C1183.48748,161.333333 1182.66667,162.154145 1182.66667,163.166667 C1182.66667,164.179189 1183.48748,165 1184.5,165 Z M1199.16667,165 C1200.17919,165 1201,164.179189 1201,163.166667 C1201,162.154145 1200.17919,161.333333 1199.16667,161.333333 C1198.15414,161.333333 1197.33333,162.154145 1197.33333,163.166667 C1197.33333,164.179189 1198.15414,165 1199.16667,165 Z M1213.83333,165 C1214.84586,165 1215.66667,164.179189 1215.66667,163.166667 C1215.66667,162.154145 1214.84586,161.333333 1213.83333,161.333333 C1212.82081,161.333333 1212,162.154145 1212,163.166667 C1212,164.179189 1212.82081,165 1213.83333,165 Z M1228.5,165 C1229.51252,165 1230.33333,164.179189 1230.33333,163.166667 C1230.33333,162.154145 1229.51252,161.333333 1228.5,161.333333 C1227.48748,161.333333 1226.66667,162.154145 1226.66667,163.166667 C1226.66667,164.179189 1227.48748,165 1228.5,165 Z M1243.16667,165 C1244.17919,165 1245,164.179189 1245,163.166667 C1245,162.154145 1244.17919,161.333333 1243.16667,161.333333 C1242.15414,161.333333 1241.33333,162.154145 1241.33333,163.166667 C1241.33333,164.179189 1242.15414,165 1243.16667,165 Z" id="Combined-Shape-Copy-4"></path>
            </g>
        </g>
    </g>
</svg>