<?xml version="1.0" encoding="UTF-8"?>
<svg width="165px" height="165px" viewBox="0 0 165 165" version="1.1" xmlns="http://www.w3.org/2000/svg" xmlns:xlink="http://www.w3.org/1999/xlink">
    <title>EC6118DE-A458-4B11-B809-DF23364C2825</title>
    <g id="Visual-design" stroke="none" stroke-width="1" fill="none" fill-rule="evenodd" opacity="0.415629542">
        <g id="Landing" transform="translate(-1358.000000, -5233.000000)" fill="#F6A21B">
            <g id="Group-6" transform="translate(-83.000000, 5208.000000)">
                <g id="Combined-Shape-2-Copy" transform="translate(1441.000000, 25.000000)">
                    <path d="M1.83333333,161.333333 C2.84585537,161.333333 3.66666667,162.154145 3.66666667,163.166667 C3.66666667,164.179189 2.84585537,165 1.83333333,165 C0.820811292,165 0,164.179189 0,163.166667 C0,162.154145 0.820811292,161.333333 1.83333333,161.333333 Z M16.5,161.333333 C17.512522,161.333333 18.3333333,162.154145 18.3333333,163.166667 C18.3333333,164.179189 17.512522,165 16.5,165 C15.487478,165 14.6666667,164.179189 14.6666667,163.166667 C14.6666667,162.154145 15.487478,161.333333 16.5,161.333333 Z M31.1666667,161.333333 C32.1791887,161.333333 33,162.154145 33,163.166667 C33,164.179189 32.1791887,165 31.1666667,165 C30.1541446,165 29.3333333,164.179189 29.3333333,163.166667 C29.3333333,162.154145 30.1541446,161.333333 31.1666667,161.333333 Z M45.8333333,161.333333 C46.8458554,161.333333 47.6666667,162.154145 47.6666667,163.166667 C47.6666667,164.179189 46.8458554,165 45.8333333,165 C44.8208113,165 44,164.179189 44,163.166667 C44,162.154145 44.8208113,161.333333 45.8333333,161.333333 Z M60.5,161.333333 C61.512522,161.333333 62.3333333,162.154145 62.3333333,163.166667 C62.3333333,164.179189 61.512522,165 60.5,165 C59.487478,165 58.6666667,164.179189 58.6666667,163.166667 C58.6666667,162.154145 59.487478,161.333333 60.5,161.333333 Z M75.1666667,161.333333 C76.1791887,161.333333 77,162.154145 77,163.166667 C77,164.179189 76.1791887,165 75.1666667,165 C74.1541446,165 73.3333333,164.179189 73.3333333,163.166667 C73.3333333,162.154145 74.1541446,161.333333 75.1666667,161.333333 Z M104.5,161.333333 C105.512522,161.333333 106.333333,162.154145 106.333333,163.166667 C106.333333,164.179189 105.512522,165 104.5,165 C103.487478,165 102.666667,164.179189 102.666667,163.166667 C102.666667,162.154145 103.487478,161.333333 104.5,161.333333 Z M119.166667,161.333333 C120.179189,161.333333 121,162.154145 121,163.166667 C121,164.179189 120.179189,165 119.166667,165 C118.154145,165 117.333333,164.179189 117.333333,163.166667 C117.333333,162.154145 118.154145,161.333333 119.166667,161.333333 Z M133.833333,161.333333 C134.845855,161.333333 135.666667,162.154145 135.666667,163.166667 C135.666667,164.179189 134.845855,165 133.833333,165 C132.820811,165 132,164.179189 132,163.166667 C132,162.154145 132.820811,161.333333 133.833333,161.333333 Z M148.5,161.333333 C149.512522,161.333333 150.333333,162.154145 150.333333,163.166667 C150.333333,164.179189 149.512522,165 148.5,165 C147.487478,165 146.666667,164.179189 146.666667,163.166667 C146.666667,162.154145 147.487478,161.333333 148.5,161.333333 Z M163.166667,161.333333 C164.179189,161.333333 165,162.154145 165,163.166667 C165,164.179189 164.179189,165 163.166667,165 C162.154145,165 161.333333,164.179189 161.333333,163.166667 C161.333333,162.154145 162.154145,161.333333 163.166667,161.333333 Z M89.8333333,161.333333 C90.8458554,161.333333 91.6666667,162.154145 91.6666667,163.166667 C91.6666667,164.179189 90.8458554,165 89.8333333,165 C88.8208113,165 88,164.179189 88,163.166667 C88,162.154145 88.8208113,161.333333 89.8333333,161.333333 Z M1.83333333,146.666667 C2.84585537,146.666667 3.66666667,147.487478 3.66666667,148.5 C3.66666667,149.512522 2.84585537,150.333333 1.83333333,150.333333 C0.820811292,150.333333 0,149.512522 0,148.5 C0,147.487478 0.820811292,146.666667 1.83333333,146.666667 Z M16.5,146.666667 C17.512522,146.666667 18.3333333,147.487478 18.3333333,148.5 C18.3333333,149.512522 17.512522,150.333333 16.5,150.333333 C15.487478,150.333333 14.6666667,149.512522 14.6666667,148.5 C14.6666667,147.487478 15.487478,146.666667 16.5,146.666667 Z M31.1666667,146.666667 C32.1791887,146.666667 33,147.487478 33,148.5 C33,149.512522 32.1791887,150.333333 31.1666667,150.333333 C30.1541446,150.333333 29.3333333,149.512522 29.3333333,148.5 C29.3333333,147.487478 30.1541446,146.666667 31.1666667,146.666667 Z M45.8333333,146.666667 C46.8458554,146.666667 47.6666667,147.487478 47.6666667,148.5 C47.6666667,149.512522 46.8458554,150.333333 45.8333333,150.333333 C44.8208113,150.333333 44,149.512522 44,148.5 C44,147.487478 44.8208113,146.666667 45.8333333,146.666667 Z M60.5,146.666667 C61.512522,146.666667 62.3333333,147.487478 62.3333333,148.5 C62.3333333,149.512522 61.512522,150.333333 60.5,150.333333 C59.487478,150.333333 58.6666667,149.512522 58.6666667,148.5 C58.6666667,147.487478 59.487478,146.666667 60.5,146.666667 Z M89.8333333,146.666667 C90.8458554,146.666667 91.6666667,147.487478 91.6666667,148.5 C91.6666667,149.512522 90.8458554,150.333333 89.8333333,150.333333 C88.8208113,150.333333 88,149.512522 88,148.5 C88,147.487478 88.8208113,146.666667 89.8333333,146.666667 Z M104.5,146.666667 C105.512522,146.666667 106.333333,147.487478 106.333333,148.5 C106.333333,149.512522 105.512522,150.333333 104.5,150.333333 C103.487478,150.333333 102.666667,149.512522 102.666667,148.5 C102.666667,147.487478 103.487478,146.666667 104.5,146.666667 Z M119.166667,146.666667 C120.179189,146.666667 121,147.487478 121,148.5 C121,149.512522 120.179189,150.333333 119.166667,150.333333 C118.154145,150.333333 117.333333,149.512522 117.333333,148.5 C117.333333,147.487478 118.154145,146.666667 119.166667,146.666667 Z M133.833333,146.666667 C134.845855,146.666667 135.666667,147.487478 135.666667,148.5 C135.666667,149.512522 134.845855,150.333333 133.833333,150.333333 C132.820811,150.333333 132,149.512522 132,148.5 C132,147.487478 132.820811,146.666667 133.833333,146.666667 Z M148.5,146.666667 C149.512522,146.666667 150.333333,147.487478 150.333333,148.5 C150.333333,149.512522 149.512522,150.333333 148.5,150.333333 C147.487478,150.333333 146.666667,149.512522 146.666667,148.5 C146.666667,147.487478 147.487478,146.666667 148.5,146.666667 Z M163.166667,146.666667 C164.179189,146.666667 165,147.487478 165,148.5 C165,149.512522 164.179189,150.333333 163.166667,150.333333 C162.154145,150.333333 161.333333,149.512522 161.333333,148.5 C161.333333,147.487478 162.154145,146.666667 163.166667,146.666667 Z M75.1666667,146.666667 C76.1791887,146.666667 77,147.487478 77,148.5 C77,149.512522 76.1791887,150.333333 75.1666667,150.333333 C74.1541446,150.333333 73.3333333,149.512522 73.3333333,148.5 C73.3333333,147.487478 74.1541446,146.666667 75.1666667,146.666667 Z M75.1666667,132 C76.1791887,132 77,132.820811 77,133.833333 C77,134.845855 76.1791887,135.666667 75.1666667,135.666667 C74.1541446,135.666667 73.3333333,134.845855 73.3333333,133.833333 C73.3333333,132.820811 74.1541446,132 75.1666667,132 Z M60.5,132 C61.512522,132 62.3333333,132.820811 62.3333333,133.833333 C62.3333333,134.845855 61.512522,135.666667 60.5,135.666667 C59.487478,135.666667 58.6666667,134.845855 58.6666667,133.833333 C58.6666667,132.820811 59.487478,132 60.5,132 Z M45.8333333,132 C46.8458554,132 47.6666667,132.820811 47.6666667,133.833333 C47.6666667,134.845855 46.8458554,135.666667 45.8333333,135.666667 C44.8208113,135.666667 44,134.845855 44,133.833333 C44,132.820811 44.8208113,132 45.8333333,132 Z M31.1666667,132 C32.1791887,132 33,132.820811 33,133.833333 C33,134.845855 32.1791887,135.666667 31.1666667,135.666667 C30.1541446,135.666667 29.3333333,134.845855 29.3333333,133.833333 C29.3333333,132.820811 30.1541446,132 31.1666667,132 Z M16.5,132 C17.512522,132 18.3333333,132.820811 18.3333333,133.833333 C18.3333333,134.845855 17.512522,135.666667 16.5,135.666667 C15.487478,135.666667 14.6666667,134.845855 14.6666667,133.833333 C14.6666667,132.820811 15.487478,132 16.5,132 Z M1.83333333,132 C2.84585537,132 3.66666667,132.820811 3.66666667,133.833333 C3.66666667,134.845855 2.84585537,135.666667 1.83333333,135.666667 C0.820811292,135.666667 0,134.845855 0,133.833333 C0,132.820811 0.820811292,132 1.83333333,132 Z M89.8333333,132 C90.8458554,132 91.6666667,132.820811 91.6666667,133.833333 C91.6666667,134.845855 90.8458554,135.666667 89.8333333,135.666667 C88.8208113,135.666667 88,134.845855 88,133.833333 C88,132.820811 88.8208113,132 89.8333333,132 Z M104.5,132 C105.512522,132 106.333333,132.820811 106.333333,133.833333 C106.333333,134.845855 105.512522,135.666667 104.5,135.666667 C103.487478,135.666667 102.666667,134.845855 102.666667,133.833333 C102.666667,132.820811 103.487478,132 104.5,132 Z M119.166667,132 C120.179189,132 121,132.820811 121,133.833333 C121,134.845855 120.179189,135.666667 119.166667,135.666667 C118.154145,135.666667 117.333333,134.845855 117.333333,133.833333 C117.333333,132.820811 118.154145,132 119.166667,132 Z M133.833333,132 C134.845855,132 135.666667,132.820811 135.666667,133.833333 C135.666667,134.845855 134.845855,135.666667 133.833333,135.666667 C132.820811,135.666667 132,134.845855 132,133.833333 C132,132.820811 132.820811,132 133.833333,132 Z M148.5,132 C149.512522,132 150.333333,132.820811 150.333333,133.833333 C150.333333,134.845855 149.512522,135.666667 148.5,135.666667 C147.487478,135.666667 146.666667,134.845855 146.666667,133.833333 C146.666667,132.820811 147.487478,132 148.5,132 Z M163.166667,132 C164.179189,132 165,132.820811 165,133.833333 C165,134.845855 164.179189,135.666667 163.166667,135.666667 C162.154145,135.666667 161.333333,134.845855 161.333333,133.833333 C161.333333,132.820811 162.154145,132 163.166667,132 Z M133.833333,117.333333 C134.845855,117.333333 135.666667,118.154145 135.666667,119.166667 C135.666667,120.179189 134.845855,121 133.833333,121 C132.820811,121 132,120.179189 132,119.166667 C132,118.154145 132.820811,117.333333 133.833333,117.333333 Z M104.5,117.333333 C105.512522,117.333333 106.333333,118.154145 106.333333,119.166667 C106.333333,120.179189 105.512522,121 104.5,121 C103.487478,121 102.666667,120.179189 102.666667,119.166667 C102.666667,118.154145 103.487478,117.333333 104.5,117.333333 Z M163.166667,117.333333 C164.179189,117.333333 165,118.154145 165,119.166667 C165,120.179189 164.179189,121 163.166667,121 C162.154145,121 161.333333,120.179189 161.333333,119.166667 C161.333333,118.154145 162.154145,117.333333 163.166667,117.333333 Z M119.166667,117.333333 C120.179189,117.333333 121,118.154145 121,119.166667 C121,120.179189 120.179189,121 119.166667,121 C118.154145,121 117.333333,120.179189 117.333333,119.166667 C117.333333,118.154145 118.154145,117.333333 119.166667,117.333333 Z M148.5,117.333333 C149.512522,117.333333 150.333333,118.154145 150.333333,119.166667 C150.333333,120.179189 149.512522,121 148.5,121 C147.487478,121 146.666667,120.179189 146.666667,119.166667 C146.666667,118.154145 147.487478,117.333333 148.5,117.333333 Z M89.8333333,117.333333 C90.8458554,117.333333 91.6666667,118.154145 91.6666667,119.166667 C91.6666667,120.179189 90.8458554,121 89.8333333,121 C88.8208113,121 88,120.179189 88,119.166667 C88,118.154145 88.8208113,117.333333 89.8333333,117.333333 Z M45.8333333,117.333333 C46.8458554,117.333333 47.6666667,118.154145 47.6666667,119.166667 C47.6666667,120.179189 46.8458554,121 45.8333333,121 C44.8208113,121 44,120.179189 44,119.166667 C44,118.154145 44.8208113,117.333333 45.8333333,117.333333 Z M1.83333333,117.333333 C2.84585537,117.333333 3.66666667,118.154145 3.66666667,119.166667 C3.66666667,120.179189 2.84585537,121 1.83333333,121 C0.820811292,121 0,120.179189 0,119.166667 C0,118.154145 0.820811292,117.333333 1.83333333,117.333333 Z M60.5,117.333333 C61.512522,117.333333 62.3333333,118.154145 62.3333333,119.166667 C62.3333333,120.179189 61.512522,121 60.5,121 C59.487478,121 58.6666667,120.179189 58.6666667,119.166667 C58.6666667,118.154145 59.487478,117.333333 60.5,117.333333 Z M31.1666667,117.333333 C32.1791887,117.333333 33,118.154145 33,119.166667 C33,120.179189 32.1791887,121 31.1666667,121 C30.1541446,121 29.3333333,120.179189 29.3333333,119.166667 C29.3333333,118.154145 30.1541446,117.333333 31.1666667,117.333333 Z M75.1666667,117.333333 C76.1791887,117.333333 77,118.154145 77,119.166667 C77,120.179189 76.1791887,121 75.1666667,121 C74.1541446,121 73.3333333,120.179189 73.3333333,119.166667 C73.3333333,118.154145 74.1541446,117.333333 75.1666667,117.333333 Z M16.5,117.333333 C17.512522,117.333333 18.3333333,118.154145 18.3333333,119.166667 C18.3333333,120.179189 17.512522,121 16.5,121 C15.487478,121 14.6666667,120.179189 14.6666667,119.166667 C14.6666667,118.154145 15.487478,117.333333 16.5,117.333333 Z M89.8333333,102.666667 C90.8458554,102.666667 91.6666667,103.487478 91.6666667,104.5 C91.6666667,105.512522 90.8458554,106.333333 89.8333333,106.333333 C88.8208113,106.333333 88,105.512522 88,104.5 C88,103.487478 88.8208113,102.666667 89.8333333,102.666667 Z M104.5,102.666667 C105.512522,102.666667 106.333333,103.487478 106.333333,104.5 C106.333333,105.512522 105.512522,106.333333 104.5,106.333333 C103.487478,106.333333 102.666667,105.512522 102.666667,104.5 C102.666667,103.487478 103.487478,102.666667 104.5,102.666667 Z M119.166667,102.666667 C120.179189,102.666667 121,103.487478 121,104.5 C121,105.512522 120.179189,106.333333 119.166667,106.333333 C118.154145,106.333333 117.333333,105.512522 117.333333,104.5 C117.333333,103.487478 118.154145,102.666667 119.166667,102.666667 Z M133.833333,102.666667 C134.845855,102.666667 135.666667,103.487478 135.666667,104.5 C135.666667,105.512522 134.845855,106.333333 133.833333,106.333333 C132.820811,106.333333 132,105.512522 132,104.5 C132,103.487478 132.820811,102.666667 133.833333,102.666667 Z M148.5,102.666667 C149.512522,102.666667 150.333333,103.487478 150.333333,104.5 C150.333333,105.512522 149.512522,106.333333 148.5,106.333333 C147.487478,106.333333 146.666667,105.512522 146.666667,104.5 C146.666667,103.487478 147.487478,102.666667 148.5,102.666667 Z M75.1666667,102.666667 C76.1791887,102.666667 77,103.487478 77,104.5 C77,105.512522 76.1791887,106.333333 75.1666667,106.333333 C74.1541446,106.333333 73.3333333,105.512522 73.3333333,104.5 C73.3333333,103.487478 74.1541446,102.666667 75.1666667,102.666667 Z M60.5,102.666667 C61.512522,102.666667 62.3333333,103.487478 62.3333333,104.5 C62.3333333,105.512522 61.512522,106.333333 60.5,106.333333 C59.487478,106.333333 58.6666667,105.512522 58.6666667,104.5 C58.6666667,103.487478 59.487478,102.666667 60.5,102.666667 Z M45.8333333,102.666667 C46.8458554,102.666667 47.6666667,103.487478 47.6666667,104.5 C47.6666667,105.512522 46.8458554,106.333333 45.8333333,106.333333 C44.8208113,106.333333 44,105.512522 44,104.5 C44,103.487478 44.8208113,102.666667 45.8333333,102.666667 Z M31.1666667,102.666667 C32.1791887,102.666667 33,103.487478 33,104.5 C33,105.512522 32.1791887,106.333333 31.1666667,106.333333 C30.1541446,106.333333 29.3333333,105.512522 29.3333333,104.5 C29.3333333,103.487478 30.1541446,102.666667 31.1666667,102.666667 Z M16.5,102.666667 C17.512522,102.666667 18.3333333,103.487478 18.3333333,104.5 C18.3333333,105.512522 17.512522,106.333333 16.5,106.333333 C15.487478,106.333333 14.6666667,105.512522 14.6666667,104.5 C14.6666667,103.487478 15.487478,102.666667 16.5,102.666667 Z M1.83333333,102.666667 C2.84585537,102.666667 3.66666667,103.487478 3.66666667,104.5 C3.66666667,105.512522 2.84585537,106.333333 1.83333333,106.333333 C0.820811292,106.333333 0,105.512522 0,104.5 C0,103.487478 0.820811292,102.666667 1.83333333,102.666667 Z M163.166667,102.666667 C164.179189,102.666667 165,103.487478 165,104.5 C165,105.512522 164.179189,106.333333 163.166667,106.333333 C162.154145,106.333333 161.333333,105.512522 161.333333,104.5 C161.333333,103.487478 162.154145,102.666667 163.166667,102.666667 Z M163.166667,88 C164.179189,88 165,88.8208113 165,89.8333333 C165,90.8458554 164.179189,91.6666667 163.166667,91.6666667 C162.154145,91.6666667 161.333333,90.8458554 161.333333,89.8333333 C161.333333,88.8208113 162.154145,88 163.166667,88 Z M148.5,88 C149.512522,88 150.333333,88.8208113 150.333333,89.8333333 C150.333333,90.8458554 149.512522,91.6666667 148.5,91.6666667 C147.487478,91.6666667 146.666667,90.8458554 146.666667,89.8333333 C146.666667,88.8208113 147.487478,88 148.5,88 Z M133.833333,88 C134.845855,88 135.666667,88.8208113 135.666667,89.8333333 C135.666667,90.8458554 134.845855,91.6666667 133.833333,91.6666667 C132.820811,91.6666667 132,90.8458554 132,89.8333333 C132,88.8208113 132.820811,88 133.833333,88 Z M119.166667,88 C120.179189,88 121,88.8208113 121,89.8333333 C121,90.8458554 120.179189,91.6666667 119.166667,91.6666667 C118.154145,91.6666667 117.333333,90.8458554 117.333333,89.8333333 C117.333333,88.8208113 118.154145,88 119.166667,88 Z M104.5,88 C105.512522,88 106.333333,88.8208113 106.333333,89.8333333 C106.333333,90.8458554 105.512522,91.6666667 104.5,91.6666667 C103.487478,91.6666667 102.666667,90.8458554 102.666667,89.8333333 C102.666667,88.8208113 103.487478,88 104.5,88 Z M89.8333333,88 C90.8458554,88 91.6666667,88.8208113 91.6666667,89.8333333 C91.6666667,90.8458554 90.8458554,91.6666667 89.8333333,91.6666667 C88.8208113,91.6666667 88,90.8458554 88,89.8333333 C88,88.8208113 88.8208113,88 89.8333333,88 Z M1.83333333,88 C2.84585537,88 3.66666667,88.8208113 3.66666667,89.8333333 C3.66666667,90.8458554 2.84585537,91.6666667 1.83333333,91.6666667 C0.820811292,91.6666667 0,90.8458554 0,89.8333333 C0,88.8208113 0.820811292,88 1.83333333,88 Z M16.5,88 C17.512522,88 18.3333333,88.8208113 18.3333333,89.8333333 C18.3333333,90.8458554 17.512522,91.6666667 16.5,91.6666667 C15.487478,91.6666667 14.6666667,90.8458554 14.6666667,89.8333333 C14.6666667,88.8208113 15.487478,88 16.5,88 Z M31.1666667,88 C32.1791887,88 33,88.8208113 33,89.8333333 C33,90.8458554 32.1791887,91.6666667 31.1666667,91.6666667 C30.1541446,91.6666667 29.3333333,90.8458554 29.3333333,89.8333333 C29.3333333,88.8208113 30.1541446,88 31.1666667,88 Z M45.8333333,88 C46.8458554,88 47.6666667,88.8208113 47.6666667,89.8333333 C47.6666667,90.8458554 46.8458554,91.6666667 45.8333333,91.6666667 C44.8208113,91.6666667 44,90.8458554 44,89.8333333 C44,88.8208113 44.8208113,88 45.8333333,88 Z M60.5,88 C61.512522,88 62.3333333,88.8208113 62.3333333,89.8333333 C62.3333333,90.8458554 61.512522,91.6666667 60.5,91.6666667 C59.487478,91.6666667 58.6666667,90.8458554 58.6666667,89.8333333 C58.6666667,88.8208113 59.487478,88 60.5,88 Z M75.1666667,88 C76.1791887,88 77,88.8208113 77,89.8333333 C77,90.8458554 76.1791887,91.6666667 75.1666667,91.6666667 C74.1541446,91.6666667 73.3333333,90.8458554 73.3333333,89.8333333 C73.3333333,88.8208113 74.1541446,88 75.1666667,88 Z M1.83333333,73.3333333 C2.84585537,73.3333333 3.66666667,74.1541446 3.66666667,75.1666667 C3.66666667,76.1791887 2.84585537,77 1.83333333,77 C0.820811292,77 0,76.1791887 0,75.1666667 C0,74.1541446 0.820811292,73.3333333 1.83333333,73.3333333 Z M89.8333333,73.3333333 C90.8458554,73.3333333 91.6666667,74.1541446 91.6666667,75.1666667 C91.6666667,76.1791887 90.8458554,77 89.8333333,77 C88.8208113,77 88,76.1791887 88,75.1666667 C88,74.1541446 88.8208113,73.3333333 89.8333333,73.3333333 Z M104.5,73.3333333 C105.512522,73.3333333 106.333333,74.1541446 106.333333,75.1666667 C106.333333,76.1791887 105.512522,77 104.5,77 C103.487478,77 102.666667,76.1791887 102.666667,75.1666667 C102.666667,74.1541446 103.487478,73.3333333 104.5,73.3333333 Z M119.166667,73.3333333 C120.179189,73.3333333 121,74.1541446 121,75.1666667 C121,76.1791887 120.179189,77 119.166667,77 C118.154145,77 117.333333,76.1791887 117.333333,75.1666667 C117.333333,74.1541446 118.154145,73.3333333 119.166667,73.3333333 Z M133.833333,73.3333333 C134.845855,73.3333333 135.666667,74.1541446 135.666667,75.1666667 C135.666667,76.1791887 134.845855,77 133.833333,77 C132.820811,77 132,76.1791887 132,75.1666667 C132,74.1541446 132.820811,73.3333333 133.833333,73.3333333 Z M148.5,73.3333333 C149.512522,73.3333333 150.333333,74.1541446 150.333333,75.1666667 C150.333333,76.1791887 149.512522,77 148.5,77 C147.487478,77 146.666667,76.1791887 146.666667,75.1666667 C146.666667,74.1541446 147.487478,73.3333333 148.5,73.3333333 Z M163.166667,73.3333333 C164.179189,73.3333333 165,74.1541446 165,75.1666667 C165,76.1791887 164.179189,77 163.166667,77 C162.154145,77 161.333333,76.1791887 161.333333,75.1666667 C161.333333,74.1541446 162.154145,73.3333333 163.166667,73.3333333 Z M75.1666667,73.3333333 C76.1791887,73.3333333 77,74.1541446 77,75.1666667 C77,76.1791887 76.1791887,77 75.1666667,77 C74.1541446,77 73.3333333,76.1791887 73.3333333,75.1666667 C73.3333333,74.1541446 74.1541446,73.3333333 75.1666667,73.3333333 Z M60.5,73.3333333 C61.512522,73.3333333 62.3333333,74.1541446 62.3333333,75.1666667 C62.3333333,76.1791887 61.512522,77 60.5,77 C59.487478,77 58.6666667,76.1791887 58.6666667,75.1666667 C58.6666667,74.1541446 59.487478,73.3333333 60.5,73.3333333 Z M45.8333333,73.3333333 C46.8458554,73.3333333 47.6666667,74.1541446 47.6666667,75.1666667 C47.6666667,76.1791887 46.8458554,77 45.8333333,77 C44.8208113,77 44,76.1791887 44,75.1666667 C44,74.1541446 44.8208113,73.3333333 45.8333333,73.3333333 Z M31.1666667,73.3333333 C32.1791887,73.3333333 33,74.1541446 33,75.1666667 C33,76.1791887 32.1791887,77 31.1666667,77 C30.1541446,77 29.3333333,76.1791887 29.3333333,75.1666667 C29.3333333,74.1541446 30.1541446,73.3333333 31.1666667,73.3333333 Z M16.5,73.3333333 C17.512522,73.3333333 18.3333333,74.1541446 18.3333333,75.1666667 C18.3333333,76.1791887 17.512522,77 16.5,77 C15.487478,77 14.6666667,76.1791887 14.6666667,75.1666667 C14.6666667,74.1541446 15.487478,73.3333333 16.5,73.3333333 Z M60.5,58.6666667 C61.512522,58.6666667 62.3333333,59.487478 62.3333333,60.5 C62.3333333,61.512522 61.512522,62.3333333 60.5,62.3333333 C59.487478,62.3333333 58.6666667,61.512522 58.6666667,60.5 C58.6666667,59.487478 59.487478,58.6666667 60.5,58.6666667 Z M104.5,58.6666667 C105.512522,58.6666667 106.333333,59.487478 106.333333,60.5 C106.333333,61.512522 105.512522,62.3333333 104.5,62.3333333 C103.487478,62.3333333 102.666667,61.512522 102.666667,60.5 C102.666667,59.487478 103.487478,58.6666667 104.5,58.6666667 Z M89.8333333,58.6666667 C90.8458554,58.6666667 91.6666667,59.487478 91.6666667,60.5 C91.6666667,61.512522 90.8458554,62.3333333 89.8333333,62.3333333 C88.8208113,62.3333333 88,61.512522 88,60.5 C88,59.487478 88.8208113,58.6666667 89.8333333,58.6666667 Z M163.166667,58.6666667 C164.179189,58.6666667 165,59.487478 165,60.5 C165,61.512522 164.179189,62.3333333 163.166667,62.3333333 C162.154145,62.3333333 161.333333,61.512522 161.333333,60.5 C161.333333,59.487478 162.154145,58.6666667 163.166667,58.6666667 Z M148.5,58.6666667 C149.512522,58.6666667 150.333333,59.487478 150.333333,60.5 C150.333333,61.512522 149.512522,62.3333333 148.5,62.3333333 C147.487478,62.3333333 146.666667,61.512522 146.666667,60.5 C146.666667,59.487478 147.487478,58.6666667 148.5,58.6666667 Z M133.833333,58.6666667 C134.845855,58.6666667 135.666667,59.487478 135.666667,60.5 C135.666667,61.512522 134.845855,62.3333333 133.833333,62.3333333 C132.820811,62.3333333 132,61.512522 132,60.5 C132,59.487478 132.820811,58.6666667 133.833333,58.6666667 Z M119.166667,58.6666667 C120.179189,58.6666667 121,59.487478 121,60.5 C121,61.512522 120.179189,62.3333333 119.166667,62.3333333 C118.154145,62.3333333 117.333333,61.512522 117.333333,60.5 C117.333333,59.487478 118.154145,58.6666667 119.166667,58.6666667 Z M75.1666667,58.6666667 C76.1791887,58.6666667 77,59.487478 77,60.5 C77,61.512522 76.1791887,62.3333333 75.1666667,62.3333333 C74.1541446,62.3333333 73.3333333,61.512522 73.3333333,60.5 C73.3333333,59.487478 74.1541446,58.6666667 75.1666667,58.6666667 Z M1.83333333,58.6666667 C2.84585537,58.6666667 3.66666667,59.487478 3.66666667,60.5 C3.66666667,61.512522 2.84585537,62.3333333 1.83333333,62.3333333 C0.820811292,62.3333333 0,61.512522 0,60.5 C0,59.487478 0.820811292,58.6666667 1.83333333,58.6666667 Z M16.5,58.6666667 C17.512522,58.6666667 18.3333333,59.487478 18.3333333,60.5 C18.3333333,61.512522 17.512522,62.3333333 16.5,62.3333333 C15.487478,62.3333333 14.6666667,61.512522 14.6666667,60.5 C14.6666667,59.487478 15.487478,58.6666667 16.5,58.6666667 Z M31.1666667,58.6666667 C32.1791887,58.6666667 33,59.487478 33,60.5 C33,61.512522 32.1791887,62.3333333 31.1666667,62.3333333 C30.1541446,62.3333333 29.3333333,61.512522 29.3333333,60.5 C29.3333333,59.487478 30.1541446,58.6666667 31.1666667,58.6666667 Z M45.8333333,58.6666667 C46.8458554,58.6666667 47.6666667,59.487478 47.6666667,60.5 C47.6666667,61.512522 46.8458554,62.3333333 45.8333333,62.3333333 C44.8208113,62.3333333 44,61.512522 44,60.5 C44,59.487478 44.8208113,58.6666667 45.8333333,58.6666667 Z M16.5,44 C17.512522,44 18.3333333,44.8208113 18.3333333,45.8333333 C18.3333333,46.8458554 17.512522,47.6666667 16.5,47.6666667 C15.487478,47.6666667 14.6666667,46.8458554 14.6666667,45.8333333 C14.6666667,44.8208113 15.487478,44 16.5,44 Z M31.1666667,44 C32.1791887,44 33,44.8208113 33,45.8333333 C33,46.8458554 32.1791887,47.6666667 31.1666667,47.6666667 C30.1541446,47.6666667 29.3333333,46.8458554 29.3333333,45.8333333 C29.3333333,44.8208113 30.1541446,44 31.1666667,44 Z M45.8333333,44 C46.8458554,44 47.6666667,44.8208113 47.6666667,45.8333333 C47.6666667,46.8458554 46.8458554,47.6666667 45.8333333,47.6666667 C44.8208113,47.6666667 44,46.8458554 44,45.8333333 C44,44.8208113 44.8208113,44 45.8333333,44 Z M60.5,44 C61.512522,44 62.3333333,44.8208113 62.3333333,45.8333333 C62.3333333,46.8458554 61.512522,47.6666667 60.5,47.6666667 C59.487478,47.6666667 58.6666667,46.8458554 58.6666667,45.8333333 C58.6666667,44.8208113 59.487478,44 60.5,44 Z M75.1666667,44 C76.1791887,44 77,44.8208113 77,45.8333333 C77,46.8458554 76.1791887,47.6666667 75.1666667,47.6666667 C74.1541446,47.6666667 73.3333333,46.8458554 73.3333333,45.8333333 C73.3333333,44.8208113 74.1541446,44 75.1666667,44 Z M104.5,44 C105.512522,44 106.333333,44.8208113 106.333333,45.8333333 C106.333333,46.8458554 105.512522,47.6666667 104.5,47.6666667 C103.487478,47.6666667 102.666667,46.8458554 102.666667,45.8333333 C102.666667,44.8208113 103.487478,44 104.5,44 Z M119.166667,44 C120.179189,44 121,44.8208113 121,45.8333333 C121,46.8458554 120.179189,47.6666667 119.166667,47.6666667 C118.154145,47.6666667 117.333333,46.8458554 117.333333,45.8333333 C117.333333,44.8208113 118.154145,44 119.166667,44 Z M133.833333,44 C134.845855,44 135.666667,44.8208113 135.666667,45.8333333 C135.666667,46.8458554 134.845855,47.6666667 133.833333,47.6666667 C132.820811,47.6666667 132,46.8458554 132,45.8333333 C132,44.8208113 132.820811,44 133.833333,44 Z M148.5,44 C149.512522,44 150.333333,44.8208113 150.333333,45.8333333 C150.333333,46.8458554 149.512522,47.6666667 148.5,47.6666667 C147.487478,47.6666667 146.666667,46.8458554 146.666667,45.8333333 C146.666667,44.8208113 147.487478,44 148.5,44 Z M163.166667,44 C164.179189,44 165,44.8208113 165,45.8333333 C165,46.8458554 164.179189,47.6666667 163.166667,47.6666667 C162.154145,47.6666667 161.333333,46.8458554 161.333333,45.8333333 C161.333333,44.8208113 162.154145,44 163.166667,44 Z M89.8333333,44 C90.8458554,44 91.6666667,44.8208113 91.6666667,45.8333333 C91.6666667,46.8458554 90.8458554,47.6666667 89.8333333,47.6666667 C88.8208113,47.6666667 88,46.8458554 88,45.8333333 C88,44.8208113 88.8208113,44 89.8333333,44 Z M1.83333333,44 C2.84585537,44 3.66666667,44.8208113 3.66666667,45.8333333 C3.66666667,46.8458554 2.84585537,47.6666667 1.83333333,47.6666667 C0.820811292,47.6666667 0,46.8458554 0,45.8333333 C0,44.8208113 0.820811292,44 1.83333333,44 Z M104.5,29.3333333 C105.512522,29.3333333 106.333333,30.1541446 106.333333,31.1666667 C106.333333,32.1791887 105.512522,33 104.5,33 C103.487478,33 102.666667,32.1791887 102.666667,31.1666667 C102.666667,30.1541446 103.487478,29.3333333 104.5,29.3333333 Z M133.833333,29.3333333 C134.845855,29.3333333 135.666667,30.1541446 135.666667,31.1666667 C135.666667,32.1791887 134.845855,33 133.833333,33 C132.820811,33 132,32.1791887 132,31.1666667 C132,30.1541446 132.820811,29.3333333 133.833333,29.3333333 Z M163.166667,29.3333333 C164.179189,29.3333333 165,30.1541446 165,31.1666667 C165,32.1791887 164.179189,33 163.166667,33 C162.154145,33 161.333333,32.1791887 161.333333,31.1666667 C161.333333,30.1541446 162.154145,29.3333333 163.166667,29.3333333 Z M119.166667,29.3333333 C120.179189,29.3333333 121,30.1541446 121,31.1666667 C121,32.1791887 120.179189,33 119.166667,33 C118.154145,33 117.333333,32.1791887 117.333333,31.1666667 C117.333333,30.1541446 118.154145,29.3333333 119.166667,29.3333333 Z M148.5,29.3333333 C149.512522,29.3333333 150.333333,30.1541446 150.333333,31.1666667 C150.333333,32.1791887 149.512522,33 148.5,33 C147.487478,33 146.666667,32.1791887 146.666667,31.1666667 C146.666667,30.1541446 147.487478,29.3333333 148.5,29.3333333 Z M89.8333333,29.3333333 C90.8458554,29.3333333 91.6666667,30.1541446 91.6666667,31.1666667 C91.6666667,32.1791887 90.8458554,33 89.8333333,33 C88.8208113,33 88,32.1791887 88,31.1666667 C88,30.1541446 88.8208113,29.3333333 89.8333333,29.3333333 Z M45.8333333,29.3333333 C46.8458554,29.3333333 47.6666667,30.1541446 47.6666667,31.1666667 C47.6666667,32.1791887 46.8458554,33 45.8333333,33 C44.8208113,33 44,32.1791887 44,31.1666667 C44,30.1541446 44.8208113,29.3333333 45.8333333,29.3333333 Z M16.5,29.3333333 C17.512522,29.3333333 18.3333333,30.1541446 18.3333333,31.1666667 C18.3333333,32.1791887 17.512522,33 16.5,33 C15.487478,33 14.6666667,32.1791887 14.6666667,31.1666667 C14.6666667,30.1541446 15.487478,29.3333333 16.5,29.3333333 Z M75.1666667,29.3333333 C76.1791887,29.3333333 77,30.1541446 77,31.1666667 C77,32.1791887 76.1791887,33 75.1666667,33 C74.1541446,33 73.3333333,32.1791887 73.3333333,31.1666667 C73.3333333,30.1541446 74.1541446,29.3333333 75.1666667,29.3333333 Z M31.1666667,29.3333333 C32.1791887,29.3333333 33,30.1541446 33,31.1666667 C33,32.1791887 32.1791887,33 31.1666667,33 C30.1541446,33 29.3333333,32.1791887 29.3333333,31.1666667 C29.3333333,30.1541446 30.1541446,29.3333333 31.1666667,29.3333333 Z M60.5,29.3333333 C61.512522,29.3333333 62.3333333,30.1541446 62.3333333,31.1666667 C62.3333333,32.1791887 61.512522,33 60.5,33 C59.487478,33 58.6666667,32.1791887 58.6666667,31.1666667 C58.6666667,30.1541446 59.487478,29.3333333 60.5,29.3333333 Z M1.83333333,29.3333333 C2.84585537,29.3333333 3.66666667,30.1541446 3.66666667,31.1666667 C3.66666667,32.1791887 2.84585537,33 1.83333333,33 C0.820811292,33 0,32.1791887 0,31.1666667 C0,30.1541446 0.820811292,29.3333333 1.83333333,29.3333333 Z M104.5,14.6666667 C105.512522,14.6666667 106.333333,15.487478 106.333333,16.5 C106.333333,17.512522 105.512522,18.3333333 104.5,18.3333333 C103.487478,18.3333333 102.666667,17.512522 102.666667,16.5 C102.666667,15.487478 103.487478,14.6666667 104.5,14.6666667 Z M16.5,14.6666667 C17.512522,14.6666667 18.3333333,15.487478 18.3333333,16.5 C18.3333333,17.512522 17.512522,18.3333333 16.5,18.3333333 C15.487478,18.3333333 14.6666667,17.512522 14.6666667,16.5 C14.6666667,15.487478 15.487478,14.6666667 16.5,14.6666667 Z M1.83333333,14.6666667 C2.84585537,14.6666667 3.66666667,15.487478 3.66666667,16.5 C3.66666667,17.512522 2.84585537,18.3333333 1.83333333,18.3333333 C0.820811292,18.3333333 0,17.512522 0,16.5 C0,15.487478 0.820811292,14.6666667 1.83333333,14.6666667 Z M75.1666667,14.6666667 C76.1791887,14.6666667 77,15.487478 77,16.5 C77,17.512522 76.1791887,18.3333333 75.1666667,18.3333333 C74.1541446,18.3333333 73.3333333,17.512522 73.3333333,16.5 C73.3333333,15.487478 74.1541446,14.6666667 75.1666667,14.6666667 Z M60.5,14.6666667 C61.512522,14.6666667 62.3333333,15.487478 62.3333333,16.5 C62.3333333,17.512522 61.512522,18.3333333 60.5,18.3333333 C59.487478,18.3333333 58.6666667,17.512522 58.6666667,16.5 C58.6666667,15.487478 59.487478,14.6666667 60.5,14.6666667 Z M45.8333333,14.6666667 C46.8458554,14.6666667 47.6666667,15.487478 47.6666667,16.5 C47.6666667,17.512522 46.8458554,18.3333333 45.8333333,18.3333333 C44.8208113,18.3333333 44,17.512522 44,16.5 C44,15.487478 44.8208113,14.6666667 45.8333333,14.6666667 Z M31.1666667,14.6666667 C32.1791887,14.6666667 33,15.487478 33,16.5 C33,17.512522 32.1791887,18.3333333 31.1666667,18.3333333 C30.1541446,18.3333333 29.3333333,17.512522 29.3333333,16.5 C29.3333333,15.487478 30.1541446,14.6666667 31.1666667,14.6666667 Z M119.166667,14.6666667 C120.179189,14.6666667 121,15.487478 121,16.5 C121,17.512522 120.179189,18.3333333 119.166667,18.3333333 C118.154145,18.3333333 117.333333,17.512522 117.333333,16.5 C117.333333,15.487478 118.154145,14.6666667 119.166667,14.6666667 Z M133.833333,14.6666667 C134.845855,14.6666667 135.666667,15.487478 135.666667,16.5 C135.666667,17.512522 134.845855,18.3333333 133.833333,18.3333333 C132.820811,18.3333333 132,17.512522 132,16.5 C132,15.487478 132.820811,14.6666667 133.833333,14.6666667 Z M148.5,14.6666667 C149.512522,14.6666667 150.333333,15.487478 150.333333,16.5 C150.333333,17.512522 149.512522,18.3333333 148.5,18.3333333 C147.487478,18.3333333 146.666667,17.512522 146.666667,16.5 C146.666667,15.487478 147.487478,14.6666667 148.5,14.6666667 Z M163.166667,14.6666667 C164.179189,14.6666667 165,15.487478 165,16.5 C165,17.512522 164.179189,18.3333333 163.166667,18.3333333 C162.154145,18.3333333 161.333333,17.512522 161.333333,16.5 C161.333333,15.487478 162.154145,14.6666667 163.166667,14.6666667 Z M89.8333333,14.6666667 C90.8458554,14.6666667 91.6666667,15.487478 91.6666667,16.5 C91.6666667,17.512522 90.8458554,18.3333333 89.8333333,18.3333333 C88.8208113,18.3333333 88,17.512522 88,16.5 C88,15.487478 88.8208113,14.6666667 89.8333333,14.6666667 Z M148.5,0 C149.512522,0 150.333333,0.820811292 150.333333,1.83333333 C150.333333,2.84585537 149.512522,3.66666667 148.5,3.66666667 C147.487478,3.66666667 146.666667,2.84585537 146.666667,1.83333333 C146.666667,0.820811292 147.487478,0 148.5,0 Z M75.1666667,0 C76.1791887,0 77,0.820811292 77,1.83333333 C77,2.84585537 76.1791887,3.66666667 75.1666667,3.66666667 C74.1541446,3.66666667 73.3333333,2.84585537 73.3333333,1.83333333 C73.3333333,0.820811292 74.1541446,0 75.1666667,0 Z M60.5,0 C61.512522,0 62.3333333,0.820811292 62.3333333,1.83333333 C62.3333333,2.84585537 61.512522,3.66666667 60.5,3.66666667 C59.487478,3.66666667 58.6666667,2.84585537 58.6666667,1.83333333 C58.6666667,0.820811292 59.487478,0 60.5,0 Z M45.8333333,0 C46.8458554,0 47.6666667,0.820811292 47.6666667,1.83333333 C47.6666667,2.84585537 46.8458554,3.66666667 45.8333333,3.66666667 C44.8208113,3.66666667 44,2.84585537 44,1.83333333 C44,0.820811292 44.8208113,0 45.8333333,0 Z M31.1666667,0 C32.1791887,0 33,0.820811292 33,1.83333333 C33,2.84585537 32.1791887,3.66666667 31.1666667,3.66666667 C30.1541446,3.66666667 29.3333333,2.84585537 29.3333333,1.83333333 C29.3333333,0.820811292 30.1541446,0 31.1666667,0 Z M16.5,0 C17.512522,0 18.3333333,0.820811292 18.3333333,1.83333333 C18.3333333,2.84585537 17.512522,3.66666667 16.5,3.66666667 C15.487478,3.66666667 14.6666667,2.84585537 14.6666667,1.83333333 C14.6666667,0.820811292 15.487478,0 16.5,0 Z M1.83333333,0 C2.84585537,0 3.66666667,0.820811292 3.66666667,1.83333333 C3.66666667,2.84585537 2.84585537,3.66666667 1.83333333,3.66666667 C0.820811292,3.66666667 0,2.84585537 0,1.83333333 C0,0.820811292 0.820811292,0 1.83333333,0 Z M163.166667,0 C164.179189,0 165,0.820811292 165,1.83333333 C165,2.84585537 164.179189,3.66666667 163.166667,3.66666667 C162.154145,3.66666667 161.333333,2.84585537 161.333333,1.83333333 C161.333333,0.820811292 162.154145,0 163.166667,0 Z M104.5,0 C105.512522,0 106.333333,0.820811292 106.333333,1.83333333 C106.333333,2.84585537 105.512522,3.66666667 104.5,3.66666667 C103.487478,3.66666667 102.666667,2.84585537 102.666667,1.83333333 C102.666667,0.820811292 103.487478,0 104.5,0 Z M119.166667,0 C120.179189,0 121,0.820811292 121,1.83333333 C121,2.84585537 120.179189,3.66666667 119.166667,3.66666667 C118.154145,3.66666667 117.333333,2.84585537 117.333333,1.83333333 C117.333333,0.820811292 118.154145,0 119.166667,0 Z M133.833333,0 C134.845855,0 135.666667,0.820811292 135.666667,1.83333333 C135.666667,2.84585537 134.845855,3.66666667 133.833333,3.66666667 C132.820811,3.66666667 132,2.84585537 132,1.83333333 C132,0.820811292 132.820811,0 133.833333,0 Z M89.8333333,0 C90.8458554,0 91.6666667,0.820811292 91.6666667,1.83333333 C91.6666667,2.84585537 90.8458554,3.66666667 89.8333333,3.66666667 C88.8208113,3.66666667 88,2.84585537 88,1.83333333 C88,0.820811292 88.8208113,0 89.8333333,0 Z" id="Combined-Shape"></path>
                </g>
            </g>
        </g>
    </g>
</svg>