<?xml version="1.0" encoding="UTF-8"?>
<svg width="163px" height="133px" viewBox="0 0 163 133" version="1.1" xmlns="http://www.w3.org/2000/svg" xmlns:xlink="http://www.w3.org/1999/xlink">
    <title>B0E9FB23-5079-47D7-B9A0-3DF1B1F65996</title>
    <defs>
        <linearGradient x1="93.4519256%" y1="37.3871359%" x2="8.79253438%" y2="62.5866906%" id="linearGradient-1">
            <stop stop-color="#793100" offset="1%"></stop>
            <stop stop-color="#FFB310" offset="100%"></stop>
        </linearGradient>
        <linearGradient x1="93.1755222%" y1="26.5807527%" x2="8.24659958%" y2="72.6569571%" id="linearGradient-2">
            <stop stop-color="#FF9A00" offset="1%"></stop>
            <stop stop-color="#F0CD2E" offset="100%"></stop>
        </linearGradient>
        <linearGradient x1="93.0161501%" y1="30.0990315%" x2="6.8060076%" y2="70.0005722%" id="linearGradient-3">
            <stop stop-color="#FFE000" offset="0%"></stop>
            <stop stop-color="#CC7200" offset="99%"></stop>
        </linearGradient>
        <linearGradient x1="109.067454%" y1="28.6365699%" x2="33.6555251%" y2="70.3813413%" id="linearGradient-4">
            <stop stop-color="#FFE000" offset="0%"></stop>
            <stop stop-color="#CC7200" offset="99%"></stop>
        </linearGradient>
        <linearGradient x1="80.5504381%" y1="61.4282018%" x2="-45.9159363%" y2="14.1041527%" id="linearGradient-5">
            <stop stop-color="#FFFF9C" offset="0%"></stop>
            <stop stop-color="#F0CD2E" offset="100%"></stop>
        </linearGradient>
        <linearGradient x1="29.0464775%" y1="21.3462581%" x2="72.7813759%" y2="81.158063%" id="linearGradient-6">
            <stop stop-color="#FFD63B" offset="0%"></stop>
            <stop stop-color="#F0AB00" offset="99%"></stop>
        </linearGradient>
    </defs>
    <g id="Visual-design" stroke="none" stroke-width="1" fill="none" fill-rule="evenodd">
        <g id="Landing-darker" transform="translate(-99.000000, -2250.000000)" fill-rule="nonzero">
            <g id="Group-11" transform="translate(99.000000, 2162.000000)">
                <g id="Untitled-1-07" transform="translate(0.000000, 88.000000)">
                    <path d="M145.425352,36.6506881 L145.425352,36.6506881 L141.925603,28.2257067 L142.855536,32.7031105 C134.30615,21.2608564 118.607277,14 98.5712146,14 C78.7376381,14 58.7490728,21.1066347 43.1801903,32.354868 L43.1801903,32.354868 C37.1872363,36.6393957 31.7892716,41.6928155 27.1263425,47.3840199 C22.0967035,53.6026362 18.2844772,60.3834155 16.0821352,67.5 C14.3947563,72.9524828 13.772301,78.2134322 14.107277,83.1709131 C12.7798722,82.3326437 11,81.3501023 11,81.3501023 L16.8345812,94.7673889 L16.8345812,94.7673889 C23.4591057,110.463176 41.2978254,121 65.4560914,121 C81.9849051,121 98.621211,116.062419 112.717699,107.908569 C114.800883,106.702986 116.826571,105.427756 118.794763,104.082876 C119.339724,103.712247 119.877185,103.336642 120.412147,102.953575 C133.636198,93.5012786 143.735473,81.0963827 147.945171,67.4975126 C151.489916,56.0204343 150.32,45.3667008 145.425352,36.6506881 Z" id="Path" fill="url(#linearGradient-1)"></path>
                    <path d="M141.950351,54.5 C137.773668,68.0957506 127.747643,80.5100191 114.619507,89.9419778 C114.088425,90.3225394 113.552381,90.703101 113.013854,91.0737133 C111.063246,92.4135556 109.052251,93.6878981 106.980867,94.8967409 C92.9816579,103.062648 76.470979,108 60.0595677,108 C23.9112814,108 1.9706663,84.0470036 11.0486858,54.5 C13.2375357,47.3837463 17.0221119,40.593333 22.0152708,34.3849551 C26.6434446,28.694021 32.0014378,23.6408224 37.9501977,19.3565019 L37.9501977,19.3565019 C53.4086404,8.10879167 73.252228,1 92.9394692,1 C129.090237,1 151.030852,24.9505091 141.950351,54.5 Z" id="Path" fill="url(#linearGradient-2)"></path>
                    <path d="M125.623185,16.1703496 C117.431856,9.80023793 105.89201,6 92.0933422,6 C66.8839044,6.01736401 41.4014221,18.6682866 26.9524129,36.5879464 C22.3677504,42.2759005 18.8901586,48.4946971 16.8820417,55.0111626 C11.8654728,71.2911636 17.1600505,85.715696 29.4023652,94.6259144 C29.4171523,94.6335855 29.4305711,94.643643 29.4420807,94.6556813 C37.5366038,100.527198 48.6817767,104 61.8896754,104 C79.1957212,104 96.625878,98.0466246 110.54121,88.5088212 C123.322166,79.7474372 133.129422,67.959754 137.123316,55.0037209 C141.988469,39.1950287 137.12828,25.13266 125.623185,16.1703496 Z" id="Path" fill="url(#linearGradient-3)"></path>
                    <path d="M134.209023,54.501256 C130.167229,67.8631039 119.862877,79.9412698 106.558024,88.5703255 C106.153351,88.8215353 105.746211,89.0878176 105.339071,89.3440516 C92.7547325,97.1968691 77.6411892,102 62.6288141,102 C31.044593,102 11.8547111,80.7350927 19.7902467,54.501256 C21.4632234,48.974641 24.2095701,43.6615543 27.7948727,38.7252823 C32.2783516,32.5505461 38.0770172,26.9611286 44.7491839,22.2559695 C58.0342969,12.8757966 74.764064,7 91.3704553,7 C122.967014,7 142.144558,28.2674194 134.209023,54.501256 Z" id="Path" fill="url(#linearGradient-4)"></path>
                    <path d="M134.208184,54.4999336 C130.166329,67.8639214 119.861819,79.9392391 106.556763,88.5680545 C106.152084,88.8192573 105.744937,89.0855323 105.337791,89.3417591 C92.7532605,97.194358 77.6394863,102 62.6268819,102 C59.4364732,102.00634 56.2498364,101.776299 53.0922495,101.311572 C27.2964298,97.4731931 12.6959071,77.9848814 19.7876601,54.4999336 C21.4606623,48.9734724 24.207051,43.6605336 27.7924084,38.724399 C32.2759557,32.5498347 38.0747099,26.9605729 44.7469786,22.2555448 C55.3747378,14.7496057 68.2084912,9.49193157 81.4173129,7.68578359 C84.715806,7.23162948 88.0404387,7.00252389 91.3689621,7 C122.966003,7 142.146308,28.2668273 134.208184,54.4999336 Z" id="Path" fill="url(#linearGradient-5)"></path>
                    <path d="M114.201354,54.001234 C112.428287,59.7270167 109.45747,65.2109344 105.566642,70.2900985 L105.522006,70.3443947 C102.906876,73.7177563 99.9821509,76.8417263 96.7856216,79.6759396 C93.5466043,82.5529268 90.0783634,85.1635982 86.4150402,87.4822545 L85.1875323,88.2424015 C75.3377118,94.2446012 63.9504068,98.4377498 52.2680038,100 C26.3440301,96.2214771 11.6709717,77.0746573 18.7954769,54.001234 C20.4817503,48.5716125 23.2393032,43.3493039 26.8399929,38.5021327 C31.0135196,32.8972825 36.3203211,27.7662902 42.4057843,23.3707648 C42.901747,23.0129034 43.3853107,22.664914 43.8812735,22.3243287 C44.1292549,22.141696 44.4020344,21.9639992 44.6648947,21.7863025 L45.1459785,21.4654613 C45.7436137,21.0705797 46.3511681,20.6781662 46.9612023,20.2931566 C47.1099911,20.2043083 47.2538203,20.1105239 47.4026091,20.0216756 L47.5042815,19.9550393 L47.8564151,19.7427905 C48.030002,19.634198 48.203589,19.5280736 48.3821356,19.4219492 C48.776426,19.1874883 49.175676,18.9505593 49.5774058,18.7210344 L50.001454,18.4742334 L50.4651792,18.2126244 C50.6610845,18.104032 50.85451,17.9929715 51.0553749,17.8843791 C51.8613144,17.4401374 52.6746933,17.0057676 53.4979915,16.588674 C53.6418207,16.5121657 53.7856499,16.4405934 53.9319589,16.3690211 L54.023712,16.3221289 C54.410563,16.1271562 54.7974139,15.9371194 55.1867447,15.7470827 L55.7967789,15.4558575 C56.2927417,15.2090565 56.7887044,14.9869356 57.3045057,14.7598787 L58.0162123,14.4415055 C58.1997185,14.3625292 58.3757853,14.2810849 58.5642511,14.1947045 C58.71304,14.1256002 58.8568692,14.0639 59.0081378,13.9997317 C59.3949888,13.8343751 59.7843195,13.6739544 60.1711705,13.5061298 L61.6268212,12.9286155 L62.3558865,12.6497304 L63.0998306,12.3757813 C63.347812,12.2819969 63.6205915,12.1906806 63.880972,12.0919602 L64.5802795,11.8451592 L65.3242236,11.5983582 C65.3242236,11.5983582 65.3242236,11.5983582 65.3242236,11.5983582 L66.0681678,11.3515573 L66.8121119,11.1047563 C67.0402548,11.030716 67.2659178,10.9640797 67.4940607,10.8925074 L67.6478092,10.8456153 C67.8734722,10.778979 68.0941757,10.7098747 68.3148791,10.6481745 C68.5355825,10.5864742 68.8108419,10.4951579 69.0588232,10.4235856 L70.0309103,10.1545725 L70.5739895,10.0089599 C70.7649352,9.95959975 70.9583606,9.90530354 71.1542659,9.85841135 C71.913089,9.65767989 72.6735652,9.47175649 73.4356946,9.30064115 L73.9316574,9.19204872 C74.1350021,9.14515653 74.3383469,9.09826435 74.5416916,9.05630818 C74.9533407,8.96745983 75.366643,8.88519284 75.7815985,8.8095072 C76.0295799,8.76261502 76.2775613,8.71325482 76.5057042,8.67129866 L76.9719091,8.5824503 L77.0884604,8.56023822 L77.6340194,8.46398584 C78.0506282,8.39323622 78.4697167,8.32413195 78.891285,8.25667302 L79.4467633,8.17276068 L79.5137183,8.17276068 L80.036959,8.09625238 L80.7362665,8 C106.647841,11.785927 121.335778,30.9376828 114.201354,54.001234 Z" id="Path" fill="url(#linearGradient-6)"></path>
                    <path d="M142.931986,54.5349013 C138.717881,68.1395212 128.602024,80.5618882 115.35626,90 L109.739956,88.8077913 C110.072978,88.5912523 110.400992,88.3672465 110.741526,88.1432407 C123.634236,79.3522568 133.527244,67.5247497 137.556059,54.5249455 C145.956728,27.3779294 125.622353,5.37558029 92.1298514,5.37558029 C73.8637183,5.37558029 55.4573654,11.921528 41.1299063,22.2780637 L38,19.3759438 L38,19.3759438 C53.5969491,8.11342916 73.6183336,1 93.481971,1 C129.956647,1 152.093848,24.9661335 142.931986,54.5349013 Z" id="Path" fill="#FFFFFF" opacity="0.2"></path>
                    <path d="M115.191437,54.4849768 C113.408593,60.2709711 110.421396,65.8125569 106.509115,70.9451328 L106.464232,71 L43,23.5324017 C43.4986974,23.1707771 43.9849274,22.8191283 44.4836248,22.4749614 C44.7329735,22.2904081 45.0072571,22.1108428 45.2715667,21.9312775 L45.7553032,21.6070623 C46.3562336,21.2080282 46.9671379,20.8114881 47.5805357,20.4224298 C47.7301449,20.3326472 47.8747672,20.2378766 48.0243764,20.1480939 L48.1266093,20.0807569 L48.4806845,19.8662761 C48.6552286,19.7565417 48.8297727,19.6493013 49.0093038,19.5420609 C49.4057682,19.3051344 49.8072196,19.0657139 50.2111645,18.8337754 L50.6375508,18.5843791 L51.1038329,18.320019 C51.3008183,18.2102846 51.4953103,18.0980563 51.6972828,17.9883219 C52.5076661,17.5394086 53.3255298,17.1004711 54.1533675,16.6789913 C54.2979898,16.6016785 54.442612,16.5293535 54.5897277,16.4570286 L54.6819868,16.4096433 C55.0709707,16.2126202 55.4599547,16.0205851 55.8514322,15.8285499 L56.46483,15.5342623 C56.9635274,15.284866 57.4622248,15.0604093 57.9808701,14.8309647 L58.6965009,14.5092435 C58.8810189,14.4294367 59.0580565,14.3471359 59.2475615,14.2598472 C59.3971708,14.1900162 59.541793,14.1276672 59.6938957,14.0628241 C60.0828797,13.8957286 60.4743572,13.733621 60.8633411,13.5640315 L62.327018,12.9804442 L63.0601032,12.6986263 L63.8081493,12.4217964 C64.057498,12.3270259 64.3317816,12.2347492 64.5935977,12.1349907 L65.2967611,11.8855944 L66.0448072,11.6361981 C66.0448072,11.6361981 66.0448072,11.6361981 66.0448072,11.6361981 L66.7928533,11.3868018 L67.5408994,11.1374055 C67.7703002,11.0625866 67.9972075,10.9952496 68.2266084,10.9229247 L68.3812045,10.8755394 C68.6081119,10.8082024 68.8300322,10.7383714 69.0519526,10.6760223 C69.2738729,10.6136733 69.55065,10.5213966 69.7999987,10.4490717 L70.7774456,10.1772297 L71.3235193,10.0300859 C71.5155178,9.98020664 71.7100097,9.92533946 71.9069952,9.87795416 C72.6700023,9.67511183 73.4346716,9.48723328 74.2010033,9.31431851 L74.6997007,9.20458414 C74.9041666,9.15719884 75.1086326,9.10981355 75.3130985,9.06741618 C75.7270174,8.97763351 76.1425985,8.89450141 76.559842,8.81801987 C76.8091907,8.77063458 77.0585394,8.72075531 77.2879402,8.67835794 L77.7567158,8.58857527 L77.8739097,8.56612961 L78.4224768,8.46886505 C78.8413827,8.39737144 79.262782,8.32754048 79.6866748,8.25937215 L80.2452159,8.17457741 L80.31254,8.17457741 L80.8386658,8.09726456 L81.5418291,8 C107.596275,11.8257393 122.365199,31.1788924 115.191437,54.4849768 Z" id="Path" fill="#FFFFFF" opacity="0.2"></path>
                </g>
            </g>
        </g>
    </g>
</svg>