<?xml version="1.0" encoding="UTF-8"?>
<svg width="29px" height="29px" viewBox="0 0 29 29" version="1.1" xmlns="http://www.w3.org/2000/svg" xmlns:xlink="http://www.w3.org/1999/xlink">
    <title>CFC44F14-7B9F-4E8E-BA5F-EB479D349518</title>
    <g id="Visual-design" stroke="none" stroke-width="1" fill="none" fill-rule="evenodd">
        <g id="About" transform="translate(-524.000000, -1996.000000)" fill-rule="nonzero">
            <g id="Group-5" transform="translate(335.000000, 1744.000000)">
                <g id="Group-3" transform="translate(0.000000, 230.000000)">
                    <g id="498418" transform="translate(189.000000, 22.000000)">
                        <rect id="Rectangle" fill="#0B86CA" x="0" y="0" width="28.87" height="28.87" rx="6.48"></rect>
                        <path d="M8,12 L11,12 L11,21.68 L8,21.68 L8,12 Z M9.53,7.19 C10.4896702,7.19 11.2681402,7.96701732 11.2699713,8.92668581 C11.271796,9.8863543 10.4962916,10.6663156 9.53662837,10.6700003 C8.57696517,10.6736589 7.79551535,9.89965438 7.78997122,8.94 C7.78733785,8.47679311 7.96948284,8.03164395 8.29608513,7.70316464 C8.62268741,7.37468533 9.06678546,7.19 9.53,7.19" id="Shape" fill="#FFFFFF"></path>
                        <path d="M12.92,12 L15.81,12 L15.81,13.32 C16.3994566,12.3140409 17.4949534,11.7144005 18.66,11.76 C21.66,11.76 22.27,13.76 22.27,16.37 L22.27,21.68 L19.27,21.68 L19.27,17 C19.27,15.88 19.27,14.43 17.71,14.43 C16.15,14.43 15.91,15.65 15.91,16.91 L15.91,21.7 L12.91,21.7 L12.92,12 Z" id="Path" fill="#FFFFFF"></path>
                    </g>
                </g>
            </g>
        </g>
    </g>
</svg>