<?xml version="1.0" encoding="UTF-8"?>
<svg width="29px" height="29px" viewBox="0 0 29 29" version="1.1" xmlns="http://www.w3.org/2000/svg" xmlns:xlink="http://www.w3.org/1999/xlink">
    <title>FBAEC848-9CD2-4A03-9921-B4961023BE0C</title>
    <g id="Visual-design" stroke="none" stroke-width="1" fill="none" fill-rule="evenodd">
        <g id="About" transform="translate(-487.000000, -1996.000000)">
            <g id="Group-5" transform="translate(335.000000, 1744.000000)">
                <g id="Group-3" transform="translate(0.000000, 230.000000)">
                    <g id="498411" transform="translate(152.000000, 22.000000)">
                        <rect id="Rectangle" fill="#00C7FF" fill-rule="nonzero" x="0" y="0" width="28.87" height="28.87" rx="6.48"></rect>
                        <path d="M11.74,18.11 C10.3421157,18.0753783 9.11884064,17.16093 8.69,15.83 C9.15437245,15.9328581 9.63562755,15.9328581 10.1,15.83 C9.21217124,15.62138 8.4512874,15.0525288 8,14.26 C7.67342674,13.735668 7.50663475,13.1275722 7.52,12.51 C7.96825398,12.7567487 8.46857563,12.8938232 8.98,12.91 C8.29365985,12.4376581 7.81138956,11.7231836 7.63,10.91 C7.44662103,10.1017214 7.5789781,9.25392068 8,8.54 C9.66564618,10.5937065 12.1200062,11.8499322 14.76,12 C14.76,11.87 14.76,11.76 14.71,11.64 C14.5255784,10.2443336 15.2523471,8.88663364 16.5160169,8.26612198 C17.7796866,7.64561032 19.298395,7.9006925 20.29,8.9 C20.3328129,8.94721745 20.3984408,8.96651978 20.46,8.95 C21.1307233,8.80736603 21.7751216,8.56107767 22.37,8.22 C22.1310503,8.95292642 21.6473401,9.58139657 21,10 C21.6312113,9.92984083 22.2481853,9.76464013 22.83,9.51 L22.5,10 C22.1531437,10.4258714 21.753231,10.8056204 21.31,11.13 C21.2763731,11.1517469 21.2572213,11.1900503 21.26,11.23 C21.279212,11.7174882 21.2591472,12.205732 21.2,12.69 C21.0726193,13.7021078 20.7857315,14.6876518 20.35,15.61 C19.9085819,16.5660094 19.3103231,17.4414276 18.58,18.2 C17.362477,19.4701192 15.7910748,20.344669 14.07,20.71 C13.468276,20.8407207 12.8555612,20.9143804 12.24,20.93 C10.3917922,20.9931895 8.56692457,20.5021468 7,19.52 L6.92,19.47 C8.02889388,19.5896122 9.15005241,19.4279727 10.18,19 C10.7385105,18.7766016 11.2634747,18.4771028 11.74,18.11 Z" id="Path" fill="#FFFFFF"></path>
                    </g>
                </g>
            </g>
        </g>
    </g>
</svg>