<?xml version="1.0" encoding="UTF-8"?>
<svg width="50px" height="40px" viewBox="0 0 50 40" version="1.1" xmlns="http://www.w3.org/2000/svg" xmlns:xlink="http://www.w3.org/1999/xlink">
    <title>4612AA22-DB13-4867-9B22-248B84CA63AD</title>
    <defs>
        <linearGradient x1="93.4519256%" y1="37.3871359%" x2="8.79253438%" y2="62.5866906%" id="linearGradient-1">
            <stop stop-color="#793100" offset="1%"></stop>
            <stop stop-color="#FFB310" offset="100%"></stop>
        </linearGradient>
        <linearGradient x1="93.1755222%" y1="26.5807527%" x2="8.24659958%" y2="72.6569571%" id="linearGradient-2">
            <stop stop-color="#FF9A00" offset="1%"></stop>
            <stop stop-color="#F0CD2E" offset="100%"></stop>
        </linearGradient>
        <linearGradient x1="93.0161501%" y1="30.0990315%" x2="6.8060076%" y2="70.0005722%" id="linearGradient-3">
            <stop stop-color="#FFE000" offset="0%"></stop>
            <stop stop-color="#CC7200" offset="99%"></stop>
        </linearGradient>
        <linearGradient x1="109.067454%" y1="28.6365699%" x2="33.6555251%" y2="70.3813413%" id="linearGradient-4">
            <stop stop-color="#FFE000" offset="0%"></stop>
            <stop stop-color="#CC7200" offset="99%"></stop>
        </linearGradient>
        <linearGradient x1="80.5504381%" y1="61.4282018%" x2="-45.9159363%" y2="14.1041527%" id="linearGradient-5">
            <stop stop-color="#FFFF9C" offset="0%"></stop>
            <stop stop-color="#F0CD2E" offset="100%"></stop>
        </linearGradient>
        <linearGradient x1="29.0464775%" y1="21.3462581%" x2="72.7813759%" y2="81.158063%" id="linearGradient-6">
            <stop stop-color="#FFD63B" offset="0%"></stop>
            <stop stop-color="#F0AB00" offset="99%"></stop>
        </linearGradient>
    </defs>
    <g id="Visual-design" stroke="none" stroke-width="1" fill="none" fill-rule="evenodd">
        <g id="Landing-temp-1" transform="translate(-151.000000, -2406.000000)" fill-rule="nonzero">
            <g id="Group-7" transform="translate(0.000000, 1989.000000)">
                <g id="Group-5" transform="translate(149.000000, 297.000000)">
                    <g id="Group-8-Copy-3" transform="translate(0.000000, 117.000000)">
                        <g id="Untitled-1-07-Copy" transform="translate(2.000000, 3.000000)">
                            <path d="M43.7369479,11.0227633 L43.7369479,11.0227633 L42.6843918,8.48893435 L42.964071,9.83552195 C40.392827,6.39424253 35.6713614,4.21052632 29.6454781,4.21052632 C23.6804927,4.21052632 17.6688941,6.34786007 12.9865234,9.73078736 L12.9865234,9.73078736 C11.1841312,11.0193671 9.56068318,12.5391926 8.15829851,14.2508331 C6.64562512,16.1210936 5.49909087,18.1604257 4.8367324,20.3007519 C4.32925003,21.9405963 4.14204542,23.5228368 4.24279007,25.0138085 C3.8435706,24.7616973 3.30827068,24.4661962 3.30827068,24.4661962 L5.06303195,28.5014703 L5.06303195,28.5014703 C7.05537015,33.222008 12.4203986,36.3909774 19.6860425,36.3909774 C24.6571143,36.3909774 29.6605146,34.9059906 33.9000599,32.4537049 C34.5265814,32.0911238 35.1358108,31.7075957 35.7277483,31.3031206 C35.8916463,31.1916531 36.0532888,31.0786894 36.2141795,30.9634813 C40.1913377,28.1206853 43.2287137,24.3898895 44.4947882,20.3000038 C45.5608771,16.8482509 45.2090227,13.6441205 43.7369479,11.0227633 Z" id="Path" fill="url(#linearGradient-1)"></path>
                            <path d="M42.6918349,16.3909774 C41.4356897,20.479925 38.4203439,24.2135396 34.4720322,27.0502189 C34.3123084,27.1646735 34.1510919,27.2791281 33.989129,27.3905905 C33.4024801,27.7935505 32.7976694,28.1768115 32.1746969,28.5403732 C27.9644084,30.9962852 22.9987907,32.481203 18.0630279,32.481203 C7.19136282,32.481203 0.592681593,25.2772943 3.32291301,16.3909774 C3.98121375,14.2507508 5.11943215,12.2085212 6.62113406,10.3413399 C8.01306603,8.62978075 9.62449258,7.11002177 11.4135933,5.82150434 L11.4135933,5.82150434 C16.062749,2.43873434 22.0307453,0.30075188 27.9517201,0.30075188 C38.8241315,0.30075188 45.4228127,7.50391251 42.6918349,16.3909774 Z" id="Path" fill="url(#linearGradient-2)"></path>
                            <path d="M37.7814091,4.86326303 C35.3178513,2.94743998 31.8472209,1.80451128 27.6972458,1.80451128 C20.11546,1.80973354 12.4515555,5.6145223 8.10598884,11.0038937 C6.72714299,12.7145565 5.68125072,14.5848713 5.07730578,16.5447106 C3.56856325,21.4409515 5.16091744,25.7791567 8.84281659,28.4589216 C8.84726384,28.4612287 8.85129958,28.4642535 8.85476111,28.4678741 C11.2892042,30.2337437 14.6411359,31.2781955 18.6134362,31.2781955 C23.818262,31.2781955 29.0604144,29.4877067 33.2454766,26.6191944 C37.0893734,23.9841916 40.0389239,20.4390237 41.240095,16.5424724 C42.7032991,11.7879786 41.2415881,7.55869475 37.7814091,4.86326303 Z" id="Path" fill="url(#linearGradient-3)"></path>
                            <path d="M40.3636158,16.3913552 C39.1480389,20.4099561 36.0489856,24.0424872 32.0475261,26.6376919 C31.9258199,26.7132437 31.8033717,26.7933286 31.6809235,26.8703915 C27.8961601,29.2321411 23.3507336,30.6766917 18.8357336,30.6766917 C9.33671969,30.6766917 3.56532666,24.2812309 5.95195389,16.3913552 C6.45510478,14.7292153 7.28107372,13.1312945 8.35936022,11.6467014 C9.70777492,9.78963791 11.4517345,8.1086101 13.4584012,6.69352467 C17.4539239,3.87242003 22.4854328,2.10526316 27.4798362,2.10526316 C36.9825606,2.10526316 42.7502431,8.50147952 40.3636158,16.3913552 Z" id="Path" fill="url(#linearGradient-4)"></path>
                            <path d="M40.3633636,16.3909575 C39.1477681,20.4102019 36.0486675,24.0418764 32.0471468,26.6370089 C31.9254388,26.7125586 31.8029887,26.7926413 31.6805386,26.869702 C27.8957174,29.2313859 23.3502214,30.6766917 18.8351524,30.6766917 C17.875631,30.6785984 16.917244,30.6094134 15.9675938,30.4696456 C8.20945258,29.315246 3.81831792,23.4540997 5.95117596,16.3909575 C6.45433453,14.7288639 7.28031609,13.1309876 8.35861906,11.6464358 C9.70705436,9.78942397 11.4510406,8.10844297 13.4577379,6.69339693 C16.6540565,4.43597165 20.5138319,2.85471626 24.4864099,2.31151386 C25.4784379,2.17492616 26.4783274,2.10602222 27.4793871,2.10526316 C36.9822567,2.10526316 42.7507694,8.50130145 40.3633636,16.3909575 Z" id="Path" fill="url(#linearGradient-5)"></path>
                            <path d="M34.3462719,16.2409726 C33.8130187,17.9630125 32.9195399,19.6123111 31.7493661,21.1398792 L31.7359416,21.1562089 C30.9494363,22.1707538 30.0698198,23.1102936 29.1084576,23.9626886 C28.1343171,24.8279479 27.0912371,25.6131122 25.9894858,26.3104525 L25.6203105,26.5390681 C22.6579584,28.344241 19.233205,29.6053383 15.7197004,30.075188 C7.92301658,28.9387901 3.51006669,23.1803481 5.652775,16.2409726 C6.15992489,14.6080038 6.98926413,13.0373846 8.07217832,11.5795888 C9.32737431,9.89391955 10.9234049,8.35076397 12.7536193,7.02880145 C12.9027811,6.92117395 13.0482138,6.8165155 13.1973755,6.71408381 C13.2719564,6.65915668 13.3539953,6.60571406 13.433051,6.55227144 L13.5777379,6.45577783 C13.7574778,6.33701646 13.9402009,6.21899734 14.1236699,6.103205 C14.1684184,6.0764837 14.2116753,6.04827787 14.2564238,6.02155656 L14.287002,6.00151558 L14.3929068,5.93768134 C14.4451134,5.90502196 14.49732,5.87310485 14.5510182,5.84118773 C14.6696018,5.77067316 14.789677,5.69941634 14.910498,5.63038629 L15.0380313,5.55616043 L15.1774975,5.47748102 C15.2364164,5.44482165 15.2945895,5.41142001 15.355,5.37876063 C15.5973878,5.24515409 15.842013,5.11451658 16.0896215,4.98907488 C16.1328784,4.96606487 16.1761353,4.94453937 16.220138,4.92301387 L16.2477329,4.90891096 C16.3640791,4.85027253 16.4804252,4.79311862 16.5975172,4.73596471 L16.7809861,4.6483782 C16.9301479,4.57415234 17.0793096,4.50734907 17.2344378,4.43906128 L17.4484849,4.34330992 C17.5036747,4.31955765 17.5566272,4.29506311 17.6133086,4.26908406 C17.6580571,4.24830082 17.701314,4.22974436 17.7468084,4.21044564 C17.8631545,4.16071431 17.9802465,4.1124675 18.0965926,4.06199392 L18.5343823,3.88830541 L18.7536501,3.80443019 L18.9773927,3.72203949 C19.0519735,3.69383367 19.1340125,3.6663701 19.2123224,3.63667976 L19.4226404,3.5624539 L19.646383,3.48822804 C19.646383,3.48822804 19.646383,3.48822804 19.646383,3.48822804 L19.8701256,3.41400218 L20.0938682,3.33977633 C20.1624826,3.31750857 20.2303512,3.29746759 20.2989656,3.27594209 L20.3452058,3.26183918 C20.4130744,3.24179819 20.4794513,3.22101495 20.5458283,3.20245849 C20.6122053,3.18390203 20.69499,3.15643846 20.7695709,3.13491296 L21.0619279,3.05400677 L21.22526,3.01021352 C21.2826873,2.99536835 21.3408603,2.97903866 21.3997792,2.96493575 C21.6279967,2.90456538 21.8567113,2.84864857 22.0859232,2.79718531 L22.2350849,2.76452593 C22.2962412,2.75042302 22.3573976,2.7363201 22.4185539,2.72370171 C22.5423581,2.6969804 22.6666595,2.67223845 22.7914582,2.64947585 C22.8660391,2.63537294 22.9406199,2.62052777 23.0092343,2.60790937 L23.1494464,2.58118806 L23.1844994,2.57450773 L23.3485773,2.54555965 C23.4738731,2.52428157 23.5999148,2.50349833 23.7267023,2.48320993 L23.8937634,2.45797314 L23.9139002,2.45797314 L24.0712659,2.43496312 L24.2815839,2.40601504 C32.0745387,3.54463969 36.4919634,9.30456624 34.3462719,16.2409726 Z" id="Path" fill="url(#linearGradient-6)"></path>
                            <path d="M42.9870636,16.4014741 C41.7196634,20.4930891 38.6773003,24.2291393 34.6936121,27.0676692 L33.0044981,26.7091102 C33.1046551,26.6439857 33.203306,26.5766155 33.3057222,26.5092453 C37.1832289,23.8653404 40.1585696,20.3081954 41.3702434,16.3984798 C43.8967603,8.23396373 37.7811587,1.61671588 27.708226,1.61671588 C22.2146521,1.61671588 16.6789069,3.58542197 12.3698966,6.70016952 L11.4285714,5.82735153 L11.4285714,5.82735153 C16.1193832,2.44012907 22.1408522,0.30075188 28.1148785,0.30075188 C39.0847059,0.30075188 45.7425107,7.50861156 42.9870636,16.4014741 Z" id="Path" fill="#FFFFFF" opacity="0.2"></path>
                            <path d="M34.6440411,16.3864592 C34.1078477,18.1266078 33.2094424,19.7932502 32.0328165,21.336882 L32.0193179,21.3533835 L12.9323308,7.07741405 C13.082315,6.96865476 13.2285496,6.86289573 13.3785338,6.75938689 C13.4535259,6.70388215 13.5360172,6.64987753 13.6155088,6.59587292 L13.7609934,6.49836459 C13.9417244,6.37835434 14.125455,6.25909415 14.3099355,6.14208416 C14.3549308,6.11508185 14.3984262,6.08657942 14.4434215,6.05957711 L14.4741682,6.03932538 L14.580657,5.97481987 C14.6331515,5.94181705 14.6856459,5.9095643 14.7396402,5.87731154 C14.8588777,5.80605546 14.9796149,5.73404931 15.1011021,5.66429335 L15.2293386,5.58928694 L15.3695738,5.50978015 C15.4288175,5.47677733 15.4873114,5.44302445 15.548055,5.41002163 C15.7917793,5.2750101 16.0377533,5.14299882 16.2867271,5.01623799 C16.3302225,4.99298601 16.3737179,4.97123415 16.4179632,4.94948229 L16.4457103,4.93523107 C16.562698,4.87597601 16.6796856,4.81822108 16.7974232,4.76046615 L16.9819038,4.67195859 C17.1318879,4.59695218 17.2818721,4.52944641 17.4378557,4.46044052 L17.653083,4.36368226 C17.7085771,4.3396802 17.7618215,4.31492809 17.8188155,4.28867585 C17.8638108,4.26767405 17.9073062,4.24892245 17.9530513,4.22942079 C18.070039,4.17916649 18.1877766,4.13041233 18.3047643,4.07940797 L18.7449678,3.90389298 L18.9654446,3.81913574 L19.1904208,3.73587863 C19.2654129,3.7073762 19.3479042,3.67962383 19.4266459,3.64962126 L19.6381236,3.57461486 L19.8630999,3.49960845 C19.8630999,3.49960845 19.8630999,3.49960845 19.8630999,3.49960845 L20.0880762,3.42460204 L20.3130525,3.34959564 C20.3820452,3.32709371 20.450288,3.30684198 20.5192807,3.28509013 L20.5657758,3.27083891 C20.6340186,3.25058718 20.7007616,3.22958538 20.7675045,3.21083378 C20.8342475,3.19208218 20.9174887,3.16432981 20.9924808,3.14257795 L21.2864498,3.06082097 L21.4506825,3.01656719 C21.5084264,3.00156591 21.5669202,2.9850645 21.626164,2.97081328 C21.8556398,2.90980807 22.0856155,2.85330324 22.3160912,2.8012988 L22.4660754,2.76829598 C22.5275689,2.75404477 22.5890624,2.73979355 22.6505559,2.72704246 C22.7750428,2.70004015 22.9000296,2.67503802 23.0255164,2.65203605 C23.1005085,2.63778483 23.1755006,2.62278355 23.2444933,2.61003246 L23.3854784,2.58303016 L23.4207247,2.57627958 L23.5857073,2.54702708 C23.711694,2.52552525 23.8384307,2.50452345 23.9659172,2.4840217 L24.1338995,2.45851952 L24.1541474,2.45851952 L24.3123807,2.43526754 L24.5238584,2.40601504 C32.359782,3.55661332 36.8015636,9.37711049 34.6440411,16.3864592 Z" id="Path" fill="#FFFFFF" opacity="0.2"></path>
                        </g>
                    </g>
                </g>
            </g>
        </g>
    </g>
</svg>