<svg width="31" height="37" viewBox="0 0 31 37" fill="none" xmlns="http://www.w3.org/2000/svg">
<path d="M1 6.41077H29.875V33.1191V35.2858H27.3464H1V6.41077Z" stroke="white" stroke-width="2"/>
<path d="M7.05469 9.82141L8.8604 0.999984L21.9171 0.999984L23.8154 9.82141" stroke="white" stroke-width="2"/>
<rect x="14" y="14.2858" width="17" height="22" fill="white"/>
<path d="M18.325 26.5558H20.34C20.4093 26.7811 20.5133 26.9761 20.652 27.1408C20.9727 27.5308 21.4537 27.7258 22.095 27.7258C22.6323 27.7258 23.0483 27.6044 23.343 27.3618C23.6377 27.1191 23.785 26.8071 23.785 26.4258C23.785 26.0271 23.6507 25.7108 23.382 25.4768C23.122 25.2428 22.7363 25.1258 22.225 25.1258H20.015V23.6958L22.42 22.0708V22.0058H18.78V20.1858H25.215V22.0058L22.81 23.5008L22.68 23.5528V23.6308H23.005C23.785 23.6308 24.4437 23.9038 24.981 24.4498C25.527 24.9871 25.8 25.6458 25.8 26.4258C25.8 27.3011 25.4577 28.0421 24.773 28.6488C24.097 29.2468 23.2043 29.5458 22.095 29.5458C20.6563 29.5458 19.6033 29.0474 18.936 28.0508C18.6327 27.6174 18.429 27.1191 18.325 26.5558Z" fill="black"/>
</svg>
