<svg width="32" height="29" viewBox="0 0 32 29" fill="none" xmlns="http://www.w3.org/2000/svg">
<path d="M16 28.875L14.458 27.5C10.1807 23.5833 6.72933 20.1667 4.10399 17.25C1.47933 14.3333 0.166992 11.389 0.166992 8.417C0.166992 6.08367 0.944659 4.139 2.49999 2.583C4.05533 1.02767 5.98599 0.25 8.29199 0.25C9.59733 0.25 10.9307 0.576333 12.292 1.229C13.6527 1.88167 14.8887 3.01367 16 4.625C17.1947 3.01367 18.4447 1.88167 19.75 1.229C21.0553 0.576333 22.3747 0.25 23.708 0.25C26.014 0.25 27.9447 1.02767 29.5 2.583C31.0553 4.139 31.833 6.08367 31.833 8.417C31.833 11.389 30.5207 14.3333 27.896 17.25C25.2707 20.1667 21.8193 23.5833 17.542 27.5L16 28.875ZM16 26.083C20.0833 22.333 23.396 19.09 25.938 16.354C28.4793 13.618 29.75 10.9723 29.75 8.417C29.75 6.667 29.1737 5.21567 28.021 4.063C26.8683 2.90967 25.4307 2.333 23.708 2.333C22.3473 2.333 21.0837 2.729 19.917 3.521C18.7503 4.31233 17.7503 5.51367 16.917 7.125H15.083C14.2497 5.51367 13.2427 4.31233 12.062 3.521C10.882 2.729 9.62533 2.333 8.29199 2.333C6.54199 2.333 5.09733 2.90967 3.95799 4.063C2.81933 5.21567 2.24999 6.667 2.24999 8.417C2.24999 10.9723 3.52066 13.618 6.06199 16.354C8.60399 19.09 11.9167 22.333 16 26.083Z" fill="white"/>
</svg>
