<svg width="40" height="41" viewBox="0 0 40 41" fill="none" xmlns="http://www.w3.org/2000/svg">
<mask id="mask0_913_139" style="mask-type:alpha" maskUnits="userSpaceOnUse" x="0" y="0" width="40" height="41">
<rect y="0.299561" width="40" height="40" fill="#D9D9D9"/>
</mask>
<g mask="url(#mask0_913_139)">
<path d="M20 34.1746L18.458 32.7996C14.1807 28.8829 10.7293 25.4662 8.10399 22.5496C5.47933 19.6329 4.16699 16.6886 4.16699 13.7166C4.16699 11.3832 4.94466 9.43856 6.49999 7.88256C8.05533 6.32723 9.98599 5.54956 12.292 5.54956C13.5973 5.54956 14.9307 5.87589 16.292 6.52856C17.6527 7.18123 18.8887 8.31323 20 9.92456C21.1947 8.31323 22.4447 7.18123 23.75 6.52856C25.0553 5.87589 26.3747 5.54956 27.708 5.54956C30.014 5.54956 31.9447 6.32723 33.5 7.88256C35.0553 9.43856 35.833 11.3832 35.833 13.7166C35.833 16.6886 34.5207 19.6329 31.896 22.5496C29.2707 25.4662 25.8193 28.8829 21.542 32.7996L20 34.1746ZM20 31.3826C24.0833 27.6326 27.396 24.3896 29.938 21.6536C32.4793 18.9176 33.75 16.2719 33.75 13.7166C33.75 11.9666 33.1737 10.5152 32.021 9.36256C30.8683 8.20923 29.4307 7.63256 27.708 7.63256C26.3473 7.63256 25.0837 8.02856 23.917 8.82056C22.7503 9.61189 21.7503 10.8132 20.917 12.4246H19.083C18.2497 10.8132 17.2427 9.61189 16.062 8.82056C14.882 8.02856 13.6253 7.63256 12.292 7.63256C10.542 7.63256 9.09733 8.20923 7.95799 9.36256C6.81933 10.5152 6.24999 11.9666 6.24999 13.7166C6.24999 16.2719 7.52066 18.9176 10.062 21.6536C12.604 24.3896 15.9167 27.6326 20 31.3826Z" fill="#1C1B1F"/>
</g>
</svg>
