<svg width="24" height="24" viewBox="0 0 24 24" fill="none" xmlns="http://www.w3.org/2000/svg">
<mask id="mask0_632_1074" style="mask-type:alpha" maskUnits="userSpaceOnUse" x="0" y="0" width="24" height="24">
<rect width="24" height="24" fill="#D9D9D9"/>
</mask>
<g mask="url(#mask0_632_1074)">
<path d="M12.75 15.75H11.25V4.72498L9.4 6.57498L8.35 5.49998L12 1.84998L15.65 5.49998L14.6 6.57498L12.75 4.72498V15.75ZM8.875 9.99998H6.3C6.23333 9.99998 6.16667 10.0333 6.1 10.1C6.03333 10.1666 6 10.2333 6 10.3V20.7C6 20.7666 6.03333 20.8333 6.1 20.9C6.16667 20.9666 6.23333 21 6.3 21H17.7C17.7667 21 17.8333 20.9666 17.9 20.9C17.9667 20.8333 18 20.7666 18 20.7V10.3C18 10.2333 17.9667 10.1666 17.9 10.1C17.8333 10.0333 17.7667 9.99998 17.7 9.99998H15.125V8.49998H17.7C18.2 8.49998 18.625 8.67498 18.975 9.02498C19.325 9.37498 19.5 9.79998 19.5 10.3V20.7C19.5 21.2 19.325 21.625 18.975 21.975C18.625 22.325 18.2 22.5 17.7 22.5H6.3C5.8 22.5 5.375 22.325 5.025 21.975C4.675 21.625 4.5 21.2 4.5 20.7V10.3C4.5 9.79998 4.675 9.37498 5.025 9.02498C5.375 8.67498 5.8 8.49998 6.3 8.49998H8.875V9.99998Z" fill="#1C1B1F"/>
</g>
</svg>
