<svg width="27" height="28" viewBox="0 0 27 28" fill="none" xmlns="http://www.w3.org/2000/svg">
<path d="M12.6109 27.1143V24.8965C9.93237 24.6179 7.6768 23.5623 5.84422 21.7297C4.01251 19.898 2.95737 17.6429 2.67879 14.9643H0.460938V13.0357H2.67879C2.95737 10.3572 4.01251 8.1016 5.84422 6.26903C7.6768 4.43731 9.93237 3.38217 12.6109 3.1036V0.885742H14.5395V3.1036C17.2181 3.38217 19.4737 4.43731 21.3062 6.26903C23.1379 8.1016 24.1931 10.3572 24.4717 13.0357H26.6895V14.9643H24.4717C24.1931 17.6429 23.1379 19.898 21.3062 21.7297C19.4737 23.5623 17.2181 24.6179 14.5395 24.8965V27.1143H12.6109ZM13.5752 23C16.0609 23 18.1824 22.1215 19.9395 20.3643C21.6967 18.6072 22.5752 16.4857 22.5752 14C22.5752 11.5143 21.6967 9.39289 19.9395 7.63574C18.1824 5.8786 16.0609 5.00003 13.5752 5.00003C11.0895 5.00003 8.96808 5.8786 7.21094 7.63574C5.45379 9.39289 4.57522 11.5143 4.57522 14C4.57522 16.4857 5.45379 18.6072 7.21094 20.3643C8.96808 22.1215 11.0895 23 13.5752 23ZM13.5752 18.5C12.3324 18.5 11.2717 18.0607 10.3931 17.1822C9.51451 16.3036 9.07522 15.2429 9.07522 14C9.07522 12.7572 9.51451 11.6965 10.3931 10.8179C11.2717 9.93931 12.3324 9.50003 13.5752 9.50003C14.8181 9.50003 15.8788 9.93931 16.7574 10.8179C17.6359 11.6965 18.0752 12.7572 18.0752 14C18.0752 15.2429 17.6359 16.3036 16.7574 17.1822C15.8788 18.0607 14.8181 18.5 13.5752 18.5ZM13.5752 16.5715C14.2824 16.5715 14.8879 16.3195 15.3919 15.8155C15.8951 15.3123 16.1467 14.7072 16.1467 14C16.1467 13.2929 15.8951 12.6873 15.3919 12.1833C14.8879 11.6802 14.2824 11.4286 13.5752 11.4286C12.8681 11.4286 12.2629 11.6802 11.7598 12.1833C11.2558 12.6873 11.0038 13.2929 11.0038 14C11.0038 14.7072 11.2558 15.3123 11.7598 15.8155C12.2629 16.3195 12.8681 16.5715 13.5752 16.5715Z" fill="#1C1B1F"/>
</svg>
