<svg width="32" height="32" viewBox="0 0 32 32" fill="none" xmlns="http://www.w3.org/2000/svg">
<mask id="mask0_453_471" style="mask-type:alpha" maskUnits="userSpaceOnUse" x="0" y="0" width="32" height="32">
<rect x="0.144531" y="0.571533" width="30.8571" height="30.8571" fill="#C4C4C4"/>
</mask>
<g mask="url(#mask0_453_471)">
<path d="M14.6109 29.1143V26.8965C11.9324 26.6179 9.6768 25.5623 7.84422 23.7297C6.01251 21.898 4.95737 19.6429 4.67879 16.9643H2.46094V15.0357H4.67879C4.95737 12.3572 6.01251 10.1016 7.84422 8.26903C9.6768 6.43731 11.9324 5.38217 14.6109 5.1036V2.88574H16.5395V5.1036C19.2181 5.38217 21.4737 6.43731 23.3062 8.26903C25.1379 10.1016 26.1931 12.3572 26.4717 15.0357H28.6895V16.9643H26.4717C26.1931 19.6429 25.1379 21.898 23.3062 23.7297C21.4737 25.5623 19.2181 26.6179 16.5395 26.8965V29.1143H14.6109ZM15.5752 25C18.0609 25 20.1824 24.1215 21.9395 22.3643C23.6967 20.6072 24.5752 18.4857 24.5752 16C24.5752 13.5143 23.6967 11.3929 21.9395 9.63574C20.1824 7.8786 18.0609 7.00003 15.5752 7.00003C13.0895 7.00003 10.9681 7.8786 9.21094 9.63574C7.45379 11.3929 6.57522 13.5143 6.57522 16C6.57522 18.4857 7.45379 20.6072 9.21094 22.3643C10.9681 24.1215 13.0895 25 15.5752 25ZM15.5752 20.5C14.3324 20.5 13.2717 20.0607 12.3931 19.1822C11.5145 18.3036 11.0752 17.2429 11.0752 16C11.0752 14.7572 11.5145 13.6965 12.3931 12.8179C13.2717 11.9393 14.3324 11.5 15.5752 11.5C16.8181 11.5 17.8788 11.9393 18.7574 12.8179C19.6359 13.6965 20.0752 14.7572 20.0752 16C20.0752 17.2429 19.6359 18.3036 18.7574 19.1822C17.8788 20.0607 16.8181 20.5 15.5752 20.5ZM15.5752 18.5715C16.2824 18.5715 16.8879 18.3195 17.3919 17.8155C17.8951 17.3123 18.1467 16.7072 18.1467 16C18.1467 15.2929 17.8951 14.6873 17.3919 14.1833C16.8879 13.6802 16.2824 13.4286 15.5752 13.4286C14.8681 13.4286 14.2629 13.6802 13.7598 14.1833C13.2558 14.6873 13.0038 15.2929 13.0038 16C13.0038 16.7072 13.2558 17.3123 13.7598 17.8155C14.2629 18.3195 14.8681 18.5715 15.5752 18.5715Z" fill="#1C1B1F"/>
</g>
</svg>
