<svg width="115" height="25" viewBox="0 0 115 25" fill="none" xmlns="http://www.w3.org/2000/svg">
<path d="M10.4998 5.8541C11.0986 4.01148 13.7054 4.01148 14.3041 5.8541L14.7373 7.18758C15.0051 8.01162 15.773 8.56954 16.6395 8.56954H18.0416C19.979 8.56954 20.7846 11.0488 19.2171 12.1876L18.0828 13.0117C17.3818 13.521 17.0885 14.4237 17.3563 15.2478L17.7895 16.5813C18.3882 18.4239 16.2793 19.9561 14.7119 18.8173L13.5775 17.9932C12.8766 17.4839 11.9274 17.4839 11.2264 17.9932L10.0921 18.8173C8.52464 19.9561 6.41568 18.4239 7.01438 16.5813L7.44766 15.2478C7.7154 14.4237 7.42209 13.521 6.72111 13.0117L5.58679 12.1876C4.01937 11.0488 4.82491 8.56954 6.76236 8.56954H8.16446C9.03092 8.56954 9.79883 8.01162 10.0666 7.18758L10.4998 5.8541Z" fill="#0F0F0F"/>
<path d="M33.0506 5.8541C33.6493 4.01148 36.2562 4.01148 36.8549 5.8541L37.2881 7.18758C37.5559 8.01162 38.3238 8.56954 39.1902 8.56954H40.5923C42.5298 8.56954 43.3353 11.0488 41.7679 12.1876L40.6336 13.0117C39.9326 13.521 39.6393 14.4237 39.907 15.2478L40.3403 16.5813C40.939 18.4239 38.8301 19.9561 37.2626 18.8173L36.1283 17.9932C35.4273 17.4839 34.4781 17.4839 33.7772 17.9932L32.6429 18.8173C31.0754 19.9561 28.9665 18.4239 29.5652 16.5813L29.9984 15.2478C30.2662 14.4237 29.9729 13.521 29.2719 13.0117L28.1376 12.1876C26.5701 11.0488 27.3757 8.56954 29.3131 8.56954H30.7152C31.5817 8.56954 32.3496 8.01162 32.6174 7.18758L33.0506 5.8541Z" fill="#0F0F0F"/>
<path d="M55.5975 5.8541C56.1962 4.01148 58.803 4.01148 59.4017 5.8541L59.835 7.18758C60.1028 8.01162 60.8707 8.56954 61.7371 8.56954H63.1392C65.0767 8.56954 65.8822 11.0488 64.3148 12.1876L63.1805 13.0117C62.4795 13.521 62.1862 14.4237 62.4539 15.2478L62.8872 16.5813C63.4859 18.4239 61.3769 19.9561 59.8095 18.8173L58.6752 17.9932C57.9742 17.4839 57.025 17.4839 56.324 17.9932L55.1897 18.8173C53.6223 19.9561 51.5133 18.4239 52.112 16.5813L52.5453 15.2478C52.8131 14.4237 52.5197 13.521 51.8188 13.0117L50.6844 12.1876C49.117 11.0488 49.9226 8.56954 51.86 8.56954H53.2621C54.1286 8.56954 54.8965 8.01162 55.1642 7.18758L55.5975 5.8541Z" fill="#0F0F0F"/>
<path d="M78.1483 5.8541C78.747 4.01148 81.3538 4.01148 81.9525 5.8541L82.3858 7.18758C82.6535 8.01162 83.4214 8.56954 84.2879 8.56954H85.69C87.6274 8.56954 88.433 11.0488 86.8656 12.1876L85.7312 13.0117C85.0303 13.521 84.737 14.4237 85.0047 15.2478L85.438 16.5813C86.0367 18.4239 83.9277 19.9561 82.3603 18.8173L81.226 17.9932C80.525 17.4839 79.5758 17.4839 78.8748 17.9932L77.7405 18.8173C76.1731 19.9561 74.0641 18.4239 74.6628 16.5813L75.0961 15.2478C75.3638 14.4237 75.0705 13.521 74.3696 13.0117L73.2352 12.1876C71.6678 11.0488 72.4734 8.56954 74.4108 8.56954H75.8129C76.6794 8.56954 77.4473 8.01162 77.715 7.18758L78.1483 5.8541Z" fill="#0F0F0F"/>
<path d="M100.695 5.8541C101.294 4.01148 103.901 4.01148 104.499 5.8541L104.933 7.18758C105.2 8.01162 105.968 8.56954 106.835 8.56954H108.237C110.174 8.56954 110.98 11.0488 109.412 12.1876L108.278 13.0117C107.577 13.521 107.284 14.4237 107.552 15.2478L107.985 16.5813C108.584 18.4239 106.475 19.9561 104.907 18.8173L103.773 17.9932C103.072 17.4839 102.123 17.4839 101.422 17.9932L100.287 18.8173C98.72 19.9561 96.611 18.4239 97.2097 16.5813L97.643 15.2478C97.9107 14.4237 97.6174 13.521 96.9164 13.0117L95.7821 12.1876C94.2147 11.0488 95.0202 8.56954 96.9577 8.56954H98.3598C99.2262 8.56954 99.9941 8.01162 100.262 7.18758L100.695 5.8541Z" fill="#0F0F0F"/>
</svg>
