<svg width="32" height="32" viewBox="0 0 32 32" fill="none" xmlns="http://www.w3.org/2000/svg">
<mask id="mask0_632_1084" style="mask-type:alpha" maskUnits="userSpaceOnUse" x="0" y="0" width="32" height="32">
<rect width="32" height="32" fill="#D9D9D9"/>
</mask>
<g mask="url(#mask0_632_1084)">
<path d="M7.59896 25.5001C6.62118 25.5001 5.79363 25.1614 5.11629 24.4841C4.43807 23.8059 4.09896 22.9779 4.09896 22.0001H2.26562V8.83341C2.26562 8.21119 2.4714 7.69475 2.88296 7.28408C3.29363 6.87253 3.79896 6.66675 4.39896 6.66675H22.0656V11.5001H25.1323L29.7323 17.7001V22.0001H27.599C27.599 22.9779 27.2603 23.8059 26.583 24.4841C25.9047 25.1614 25.0767 25.5001 24.099 25.5001C23.1212 25.5001 22.2936 25.1614 21.6163 24.4841C20.9381 23.8059 20.599 22.9779 20.599 22.0001H11.0656C11.0656 22.9779 10.727 23.8059 10.0496 24.4841C9.3714 25.1614 8.55451 25.5001 7.59896 25.5001ZM7.59896 24.1667C8.19896 24.1667 8.70474 23.9556 9.11629 23.5334C9.52696 23.1112 9.73229 22.6001 9.73229 22.0001C9.73229 21.4001 9.52696 20.889 9.11629 20.4667C8.70474 20.0445 8.19896 19.8334 7.59896 19.8334C6.99896 19.8334 6.48785 20.0445 6.06563 20.4667C5.6434 20.889 5.43229 21.4001 5.43229 22.0001C5.43229 22.6001 5.6434 23.1112 6.06563 23.5334C6.48785 23.9556 6.99896 24.1667 7.59896 24.1667ZM3.59896 20.6667H4.46562C4.6434 20.089 5.02696 19.5836 5.61629 19.1507C6.20474 18.717 6.86562 18.5001 7.59896 18.5001C8.28785 18.5001 8.93229 18.7112 9.53229 19.1334C10.1323 19.5556 10.5323 20.0667 10.7323 20.6667H20.7323V8.00008H4.39896C4.19896 8.00008 4.01585 8.08364 3.84962 8.25075C3.68251 8.41697 3.59896 8.61119 3.59896 8.83341V20.6667ZM24.099 24.1667C24.699 24.1667 25.2101 23.9556 25.6323 23.5334C26.0545 23.1112 26.2656 22.6001 26.2656 22.0001C26.2656 21.4001 26.0545 20.889 25.6323 20.4667C25.2101 20.0445 24.699 19.8334 24.099 19.8334C23.499 19.8334 22.9878 20.0445 22.5656 20.4667C22.1434 20.889 21.9323 21.4001 21.9323 22.0001C21.9323 22.6001 22.1434 23.1112 22.5656 23.5334C22.9878 23.9556 23.499 24.1667 24.099 24.1667ZM22.0656 18.0001H28.3323L24.399 12.8334H22.0656V18.0001Z" fill="#1C1B1F"/>
</g>
</svg>
