<svg width="35" height="27" viewBox="0 0 35 27" fill="none" xmlns="http://www.w3.org/2000/svg">
<path d="M2.71872 24.6983H21.2625C24.3384 24.6983 26.9438 23.6007 29.0788 21.4056C31.2137 19.2111 32.2812 16.5609 32.2812 13.4549C32.2812 10.3194 31.1464 7.67673 28.8767 5.52673C26.6077 3.37673 23.8754 2.30173 20.6798 2.30173C18.9777 2.30173 17.3878 2.51099 15.91 2.92952C14.4316 3.34734 12.9459 3.97442 11.4531 4.81078L16.7829 6.87048C18.0672 7.34849 19.0078 8.08773 19.6048 9.0882C20.2025 10.0887 20.5014 11.2009 20.5014 12.425C20.5014 14.097 19.9338 15.5081 18.7986 16.6584C17.6641 17.8079 16.2906 18.3827 14.6781 18.3827H3.03262C2.91293 19.0097 2.83052 19.8085 2.78537 20.7788C2.74093 21.7492 2.71872 22.8615 2.71872 24.1156V24.6983ZM3.34544 16.0983H14.4986C15.5736 16.0983 16.4694 15.7475 17.1861 15.0459C17.9027 14.3435 18.2611 13.4699 18.2611 12.425C18.2611 11.6188 18.0522 10.9171 17.6343 10.3202C17.2165 9.72245 16.6342 9.27453 15.8875 8.9764L9.30309 6.2889C7.81028 7.54307 6.57116 8.99109 5.58574 10.633C4.60033 12.2756 3.85356 14.0973 3.34544 16.0983ZM0.479492 26.9375V21.7861C0.479492 18.6213 0.986893 15.7174 2.00169 13.0743C3.01721 10.432 4.4208 8.14758 6.21247 6.22118C8.00413 4.29549 10.1391 2.78763 12.6173 1.69757C15.0963 0.607525 17.7838 0.0625 20.6798 0.0625C22.5912 0.0625 24.3828 0.405784 26.0548 1.09235C27.7275 1.77963 29.191 2.72778 30.4451 3.9368C31.6993 5.14653 32.6919 6.56517 33.4229 8.19273C34.1546 9.81956 34.5204 11.5736 34.5204 13.4549C34.5204 15.3067 34.1696 17.0536 33.468 18.6955C32.7664 20.3381 31.8183 21.7714 30.6236 22.9955C29.4296 24.2203 28.0264 25.1835 26.4139 25.8851C24.8014 26.5867 23.0842 26.9375 21.2625 26.9375H0.479492Z" fill="white"/>
</svg>
