<svg width="67" height="67" viewBox="0 0 67 67" fill="none" xmlns="http://www.w3.org/2000/svg">
<rect x="0.5" y="0.5" width="66" height="66" fill="white" stroke="black"/>
<mask id="mask0_1354_867" style="mask-type:alpha" maskUnits="userSpaceOnUse" x="18" y="20" width="31" height="31">
<rect x="18.5" y="20.5" width="30" height="30" fill="#C4C4C4" stroke="black"/>
</mask>
<g mask="url(#mask0_1354_867)">
<path d="M33.5001 44.3133L33.1637 44.0076C30.0799 41.2041 27.5781 38.7835 25.6612 36.747L33.5001 44.3133ZM33.5001 44.3133L33.8364 44.0076M33.5001 44.3133L33.8364 44.0076M33.8364 44.0076C36.9203 41.2041 39.4226 38.7835 41.3403 36.747L41.3403 36.747M33.8364 44.0076L41.3403 36.747M41.3403 36.747C43.2921 34.6734 44.3334 32.5976 44.3334 30.5272M41.3403 36.747L44.3334 30.5272M44.3334 30.5272C44.3334 29.1118 43.8563 27.9055 42.8953 26.9445M44.3334 30.5272L42.8953 26.9445M42.8953 26.9445C41.9343 25.9835 40.7279 25.5063 39.3126 25.5063M42.8953 26.9445L39.3126 25.5063M39.3126 25.5063C38.2025 25.5063 37.1716 25.8151 36.2307 26.4267M39.3126 25.5063L36.2307 26.4267M36.2307 26.4267C35.3608 26.9922 34.6624 27.7899 34.1286 28.8001M36.2307 26.4267L34.1286 28.8001M34.1286 28.8001H32.8715C32.3378 27.7899 31.6394 26.9922 30.7695 26.4267C29.8285 25.8151 28.7977 25.5063 27.6876 25.5063C26.2722 25.5063 25.0659 25.9835 24.1049 26.9445C23.1439 27.9055 22.6667 29.1118 22.6667 30.5272C22.6667 32.5977 23.7085 34.6734 25.6611 36.747L34.1286 28.8001ZM33.902 27.434C34.6585 26.4117 35.5072 25.6903 36.4433 25.2467L36.4435 25.2466C37.4051 24.7913 38.3601 24.5688 39.3126 24.5688C41.0166 24.5688 42.421 25.1395 43.5599 26.2785C44.6999 27.4184 45.2709 28.8233 45.2709 30.5272C45.2709 32.698 44.3546 34.8331 42.4451 36.9404L42.445 36.9405C40.4913 39.0975 37.8843 41.6465 34.6197 44.589C34.6193 44.5894 34.6189 44.5898 34.6185 44.5902L33.5001 45.5842L32.3817 44.5902C32.3813 44.5898 32.3809 44.5894 32.3804 44.589C29.1158 41.6465 26.5084 39.0974 24.5538 36.9404C22.6452 34.8331 21.7292 32.6981 21.7292 30.5272C21.7292 28.8233 22.3003 27.4184 23.4402 26.2785C24.5792 25.1395 25.9836 24.5688 27.6876 24.5688C28.64 24.5688 29.5954 24.7913 30.5578 25.2465C31.4931 25.6902 32.3416 26.4116 33.0982 27.434L33.5001 27.9771L33.902 27.434Z" fill="#1C1B1F" stroke="black"/>
</g>
</svg>
