<!-- Generated by IcoMoon.io -->
<svg version="1.1" xmlns="http://www.w3.org/2000/svg" width="200" height="200" viewBox="0 0 200 200">
<title>cancel</title>
<path fill="#fff" d="M122.419 100.006l38.1 38.1c2.475 2.475 2.475 6.494 0 8.969l-13.444 13.444c-2.475 2.475-6.487 2.475-8.969 0l-38.106-38.1-38.106 38.1c-2.475 2.475-6.487 2.475-8.962 0l-13.45-13.444c-2.475-2.475-2.475-6.487 0-8.969l38.106-38.1-38.106-38.106c-2.475-2.475-2.475-6.494 0-8.969l13.456-13.444c2.475-2.475 6.488-2.475 8.962 0l38.1 38.106 38.106-38.106c2.475-2.475 6.488-2.475 8.969 0l13.444 13.45c2.475 2.475 2.475 6.488 0 8.969l-38.1 38.1z"></path>
</svg>
