<!-- Generated by IcoMoon.io -->
<svg version="1.1" xmlns="http://www.w3.org/2000/svg" width="263" height="200" viewBox="0 0 263 200">
<title>chat</title>
<path fill="#ccd6f6" d="M222.825 87.644c-1.65-0.513-3.4 0.388-3.925 2.031-0.519 1.644 0.387 3.4 2.031 3.925 24.425 7.781 35.319 19.388 35.319 37.65 0 16.244-14.819 28.85-23.644 34.925-0.85 0.588-1.356 1.544-1.356 2.575v23.894c-4.562-1.7-12.519-5.563-19.537-13.469-0.731-0.819-1.844-1.194-2.925-0.994-1.781 0.344-3.6 0.831-5.444 1.325-3.187 0.856-6.475 1.744-9.594 1.744-16.050 0-27.287-3.45-38.775-11.894-1.4-1.025-3.344-0.719-4.369 0.669-1.025 1.394-0.725 3.344 0.663 4.369 12.669 9.313 24.975 13.106 42.481 13.106 3.944 0 7.644-0.994 11.219-1.956 1.112-0.306 2.219-0.606 3.313-0.863 11.681 12.338 24.894 15.144 25.469 15.256 0.206 0.044 0.412 0.063 0.625 0.063 0.712 0 1.419-0.244 1.975-0.706 0.731-0.594 1.15-1.481 1.15-2.419v-26.494c16.138-11.506 25-25.356 25-39.131 0-21.131-12.606-34.987-39.675-43.606zM206.25 84.375c0-48.1-43.863-84.375-102.019-84.375-58.45 0-104.231 37.069-104.231 84.388 0 28.369 20.069 48.694 37.5 60.994v41.475c0 1.063 0.538 2.044 1.425 2.625 0.519 0.331 1.106 0.5 1.7 0.5 0.431 0 0.869-0.094 1.281-0.275 0.913-0.406 22.244-10.1 40.494-30.056 7.906 1.469 16.85 2.881 24.963 2.881 59.144 0 98.887-31.412 98.887-78.156zM107.356 156.281c-8.188 0-17.494-1.569-25.519-3.1-1.081-0.194-2.194 0.175-2.925 0.994-12.812 14.45-27.869 23.631-35.163 27.588v-38.013c0-1.031-0.506-1.988-1.356-2.575-16.488-11.344-36.144-30.394-36.144-56.788 0-43.819 43.038-78.138 97.981-78.138 54.6 0 95.769 33.587 95.769 78.125 0 43.012-37.231 71.906-92.644 71.906zM103.125 71.875c-6.894 0-12.5 5.606-12.5 12.5s5.606 12.5 12.5 12.5 12.5-5.606 12.5-12.5-5.606-12.5-12.5-12.5zM103.125 90.625c-3.444 0-6.25-2.8-6.25-6.25s2.806-6.25 6.25-6.25 6.25 2.8 6.25 6.25-2.806 6.25-6.25 6.25zM146.875 71.875c-6.894 0-12.5 5.606-12.5 12.5s5.606 12.5 12.5 12.5 12.5-5.606 12.5-12.5-5.606-12.5-12.5-12.5zM146.875 90.625c-3.444 0-6.25-2.8-6.25-6.25s2.806-6.25 6.25-6.25 6.25 2.8 6.25 6.25-2.806 6.25-6.25 6.25zM59.375 72.469c-6.894 0-12.5 5.606-12.5 12.5s5.606 12.5 12.5 12.5 12.5-5.606 12.5-12.5-5.606-12.5-12.5-12.5zM59.375 91.219c-3.444 0-6.25-2.8-6.25-6.25s2.806-6.25 6.25-6.25 6.25 2.8 6.25 6.25-2.806 6.25-6.25 6.25z"></path>
</svg>
