<!-- Generated by IcoMoon.io -->
<svg version="1.1" xmlns="http://www.w3.org/2000/svg" width="200" height="200" viewBox="0 0 200 200">
<title>facebook</title>
<path fill="#ccd6f6" d="M141.667 25v16.667h-16.667c-4.6 0-8.775 1.875-11.783 4.883s-4.883 7.183-4.883 11.783v25c0 4.6 3.733 8.333 8.333 8.333h22.658l-4.167 16.667h-18.492c-4.6 0-8.333 3.733-8.333 8.333v58.333h-16.667v-58.333c0-4.6-3.733-8.333-8.333-8.333h-16.667v-16.667h16.667c4.6 0 8.333-3.733 8.333-8.333v-25c0-9.208 3.725-17.525 9.767-23.567s14.358-9.767 23.567-9.767zM150 8.333h-25c-13.808 0-26.317 5.608-35.358 14.642s-14.642 21.55-14.642 35.358v16.667h-16.667c-4.6 0-8.333 3.733-8.333 8.333v33.333c0 4.6 3.733 8.333 8.333 8.333h16.667v58.333c0 4.6 3.733 8.333 8.333 8.333h33.333c4.6 0 8.333-3.733 8.333-8.333v-58.333h16.667c3.883 0 7.15-2.658 8.083-6.308l8.333-33.333c1.117-4.467-1.6-8.992-6.067-10.108-0.692-0.175-1.392-0.258-2.017-0.25h-25v-16.667h25c4.6 0 8.333-3.733 8.333-8.333v-33.333c0-4.6-3.733-8.333-8.333-8.333z"></path>
</svg>
