<!-- Generated by IcoMoon.io -->
<svg version="1.1" xmlns="http://www.w3.org/2000/svg" width="200" height="200" viewBox="0 0 200 200">
<title>github</title>
<path fill="#ccd6f6" d="M72.608 150.35c-10.567 3.167-17.167 2.792-21.525 1.417-1.925-0.608-3.592-1.467-5.117-2.517-3.425-2.367-6.058-5.625-9.325-9.767-2.967-3.758-7.083-9.225-12.925-12.3-1.542-0.817-3.217-1.475-5.033-1.933-4.467-1.117-8.992 1.6-10.108 6.067s1.6 8.992 6.067 10.108c0.617 0.192 1.292 0.5 1.292 0.5 2.1 1.108 4.058 3.367 7.617 7.883 3.050 3.867 7.133 9.15 12.942 13.158 2.767 1.908 5.925 3.55 9.575 4.7 8.458 2.675 18.633 2.467 31.333-1.35 4.408-1.325 6.908-5.967 5.583-10.375s-5.967-6.908-10.375-5.583zM141.667 183.333v-31.6c0.433-5.7-0.467-11.192-2.433-16.183 6.475-1.425 13.025-3.558 19.142-6.858 17.358-9.367 29.133-27.017 29.133-57.692 0-12.525-4.3-24.058-11.492-33.175 2.958-11.208 1.883-22.717-2.442-32.775-1.017-2.358-2.992-4.017-5.283-4.7-2.975-0.883-14.433-2.575-36.442 11.35-18.942-4.508-37.975-4.242-55.383-0.017-21.992-13.908-33.442-12.217-36.417-11.333-2.467 0.733-4.342 2.5-5.292 4.708-4.617 10.767-5.2 22.267-2.433 32.767-7.75 9.817-11.558 21.675-11.492 33.475 0 30.183 11.575 47.692 28.675 57.158 6.267 3.467 13 5.708 19.642 7.225-1.542 3.9-2.383 8.008-2.533 12.133-0.042 1.175-0.025 2.358 0.042 3.533l0.008 31.983c0 4.6 3.733 8.333 8.333 8.333s8.333-3.733 8.333-8.333v-32.25c0-0.175-0.008-0.375-0.017-0.575-0.050-0.7-0.058-1.4-0.033-2.1 0.167-4.733 2.008-9.383 5.542-13.033 1.208-1.242 2.050-2.892 2.283-4.767 0.567-4.567-2.675-8.733-7.242-9.3-2.833-0.35-5.642-0.783-8.383-1.325-6.583-1.3-12.65-3.208-17.892-6.108-10.875-6.025-19.925-17.258-20.083-42.017 0.108-10.342 3.492-19.325 10.2-26.375 2.142-2.275 2.917-5.592 1.767-8.667-2.333-6.233-2.842-13.167-1.167-19.933 4.092 0.892 11.283 3.467 22.058 10.683 1.958 1.308 4.442 1.783 6.875 1.108 16.642-4.642 35.35-5.017 53.917 0.017 2.258 0.608 4.742 0.275 6.817-1.125 10.775-7.217 17.967-9.792 22.058-10.683 1.575 6.383 1.308 13.292-1.175 19.933-1.075 2.933-0.483 6.292 1.775 8.667 6.317 6.625 10.2 15.6 10.2 25.5 0 25.625-9.283 37.042-20.375 43.025-5.192 2.8-11.192 4.625-17.692 5.833-2.683 0.5-5.425 0.883-8.192 1.192-1.75 0.192-3.483 0.95-4.867 2.292-3.308 3.2-3.4 8.475-0.2 11.783 0.558 0.583 1.083 1.192 1.567 1.833 2.833 3.742 4.342 8.458 3.95 13.475 0 0.2-0.008 0.425-0.025 0.65v32.267c0 4.6 3.733 8.333 8.333 8.333s8.333-3.733 8.333-8.333z"></path>
</svg>
