<!-- Generated by IcoMoon.io -->
<svg version="1.1" xmlns="http://www.w3.org/2000/svg" width="200" height="200" viewBox="0 0 200 200">
<title>grid</title>
<path fill="#fff" d="M25 16.667c-4.6 0-8.333 3.733-8.333 8.333v58.333c0 4.6 3.733 8.333 8.333 8.333h58.333c4.6 0 8.333-3.733 8.333-8.333v-58.333c0-4.6-3.733-8.333-8.333-8.333zM33.333 33.333h41.667v41.667h-41.667zM116.667 16.667c-4.6 0-8.333 3.733-8.333 8.333v58.333c0 4.6 3.733 8.333 8.333 8.333h58.333c4.6 0 8.333-3.733 8.333-8.333v-58.333c0-4.6-3.733-8.333-8.333-8.333zM125 33.333h41.667v41.667h-41.667zM116.667 108.333c-4.6 0-8.333 3.733-8.333 8.333v58.333c0 4.6 3.733 8.333 8.333 8.333h58.333c4.6 0 8.333-3.733 8.333-8.333v-58.333c0-4.6-3.733-8.333-8.333-8.333zM125 125h41.667v41.667h-41.667zM25 108.333c-4.6 0-8.333 3.733-8.333 8.333v58.333c0 4.6 3.733 8.333 8.333 8.333h58.333c4.6 0 8.333-3.733 8.333-8.333v-58.333c0-4.6-3.733-8.333-8.333-8.333zM33.333 125h41.667v41.667h-41.667z"></path>
</svg>
