<!-- Generated by IcoMoon.io -->
<svg version="1.1" xmlns="http://www.w3.org/2000/svg" width="200" height="200" viewBox="0 0 200 200">
<title>instagram</title>
<path fill="#ccd6f6" d="M58.333 8.333c-13.808 0-26.317 5.608-35.358 14.642s-14.642 21.55-14.642 35.358v83.333c0 13.808 5.608 26.317 14.642 35.358s21.55 14.642 35.358 14.642h83.333c13.808 0 26.317-5.608 35.358-14.642s14.642-21.55 14.642-35.358v-83.333c0-13.808-5.608-26.317-14.642-35.358s-21.55-14.642-35.358-14.642zM58.333 25h83.333c9.208 0 17.525 3.725 23.567 9.767s9.767 14.358 9.767 23.567v83.333c0 9.208-3.725 17.525-9.767 23.567s-14.358 9.767-23.567 9.767h-83.333c-9.208 0-17.525-3.725-23.567-9.767s-9.767-14.358-9.767-23.567v-83.333c0-9.208 3.725-17.525 9.767-23.567s14.358-9.767 23.567-9.767zM141.575 93.525c-1.25-8.1-4.758-15.475-9.95-21.392-6.283-7.175-15.033-12.208-25.075-13.7-3.867-0.617-8.083-0.642-12.308-0.017-11.383 1.683-21.008 7.842-27.35 16.392s-9.442 19.558-7.75 30.933 7.842 21.008 16.392 27.35 19.558 9.442 30.933 7.75 21.008-7.842 27.35-16.392 9.442-19.558 7.75-30.933zM125.092 95.975c1.017 6.833-0.833 13.408-4.65 18.558s-9.583 8.825-16.408 9.833-13.408-0.833-18.558-4.65-8.825-9.583-9.833-16.408 0.833-13.408 4.65-18.558 9.583-8.825 16.408-9.833c2.608-0.383 5.125-0.35 7.25-0.017 6.167 0.917 11.383 3.917 15.15 8.217 3.125 3.567 5.25 8.025 6 12.858zM145.833 62.5c4.6 0 8.333-3.733 8.333-8.333s-3.733-8.333-8.333-8.333-8.333 3.733-8.333 8.333 3.733 8.333 8.333 8.333z"></path>
</svg>
