<!-- Generated by IcoMoon.io -->
<svg version="1.1" xmlns="http://www.w3.org/2000/svg" width="200" height="200" viewBox="0 0 200 200">
<title>mail-envelope-open</title>
<path fill="#ccd6f6" d="M128.988 125h-52.072l14.027 12.377 14.17 0.068-10.604 0.055h21.116l0.125-0.111-0.621 0.003 13.86-12.392zM135.979 118.75l20.271-18.125v-50.571c0-3.482-2.842-6.304-6.25-6.304h-93.751c-3.452 0-6.25 2.773-6.25 6.263v51.237l19.833 17.5h66.145zM81.818 37.5l21.307-18.75 21.307 18.75h25.584c6.916 0 12.484 5.595 12.484 12.498v21.002l18.75 16.5v87.537c0 6.872-5.606 12.463-12.522 12.463h-131.205c-6.962 0-12.522-5.58-12.522-12.463v-87.537l18.75-16.5v-21.002c0-6.951 5.589-12.498 12.484-12.498h25.584zM115.174 37.5l-12.049-10.625-12.049 10.625h24.098zM162.5 79.233v16.6l9.375-8.333-9.375-8.267zM43.75 95.833v-16.6l-9.375 8.267 9.375 8.333zM84.375 143.75l-43.75 37.5h125l-43.75-37.5h-37.5zM173.032 179.532v0 0c1.212-1.146 1.968-2.763 1.968-4.532v-81.25l-50 43.857 48.032 41.926zM33.218 179.532l48.032-41.926-50-43.857v81.25c0 1.77 0.756 3.386 1.968 4.532v0 0zM62.5 62.5v6.25h81.25v-6.25h-81.25zM62.5 81.25v6.25h81.25v-6.25h-81.25zM62.5 100v6.25h81.25v-6.25h-81.25z"></path>
</svg>
