<!-- Generated by IcoMoon.io -->
<svg version="1.1" xmlns="http://www.w3.org/2000/svg" width="200" height="200" viewBox="0 0 200 200">
<title>social-skype-outline</title>
<path fill="#ccd6f6" d="M73.875 41.667c6.258 0 12 1.683 17.242 5.075 2.7-0.667 5.925-1.008 9.642-1.008 15.383 0 28.483 5.583 39.308 16.733 10.825 11.158 16.233 24.683 16.233 40.583 0 3.883-0.425 7.942-1.267 12.175 2.2 4.908 3.3 9.892 3.3 14.95 0 9.142-3.167 16.967-9.517 23.458-6.342 6.508-13.9 9.775-22.708 9.775-5.242 0-10.308-1.35-15.208-4.067-4.392 0.675-7.775 1.017-10.142 1.017-15.392 0-28.542-5.583-39.442-16.742s-16.358-24.683-16.358-40.567c0-3.725 0.425-7.517 1.267-11.417-3.033-5.075-4.558-10.733-4.558-16.992 0-9.133 3.133-16.908 9.383-23.325 6.25-6.433 13.867-9.65 22.825-9.65zM100 129.417c-3.383 0-6.075-0.508-8.125-1.525-2.192-1.183-3.708-2.367-4.558-3.542-2.025-3.725-3.133-5.675-3.3-5.833-0.675-2.025-1.683-3.725-3.033-5.075-1.692-1.167-3.383-1.775-5.083-1.775-2.367 0-4.308 0.758-5.833 2.283-1.525 1.517-2.283 3.3-2.283 5.325 0 3.217 1.2 6.675 3.567 10.4 2.192 3.375 5.242 6.175 9.133 8.358 5.4 2.883 12.083 4.325 20.033 4.325 6.583 0 12.417-1.017 17.5-3.042 5.075-2.367 8.792-5.325 11.158-8.875 2.533-3.892 3.8-8.125 3.8-12.683 0-3.708-0.667-7.1-2.017-10.142-1.358-2.533-3.467-4.817-6.35-6.833-3.042-1.875-6.25-3.392-9.633-4.567-5.742-1.7-9.817-2.8-12.175-3.3-1.192-0.175-2.667-0.458-4.442-0.892-1.775-0.417-2.917-0.708-3.417-0.883-2.025-0.667-3.467-1.267-4.317-1.767-1.358-0.675-2.45-1.608-3.3-2.8-0.858-0.833-1.267-1.942-1.267-3.3 0-2.025 1.183-3.792 3.55-5.325 2.208-1.692 5.408-2.542 9.633-2.542 4.233 0 7.367 0.767 9.392 2.275 2.192 1.875 3.8 3.983 4.808 6.35 1.358 2.2 2.458 3.717 3.3 4.558 1.35 1.025 2.958 1.533 4.817 1.533 2.2 0 4.15-0.85 5.825-2.55 1.533-1.508 2.292-3.367 2.292-5.575 0-1.683-0.6-3.892-1.783-6.592-1.35-2.025-3.133-4.050-5.325-6.075-2.367-1.867-5.492-3.475-9.392-4.825-4.042-1.192-8.367-1.775-12.933-1.775-6.083 0-11.5 0.917-16.233 2.792-4.717 1.667-8.358 4.208-10.892 7.592-2.542 3.383-3.808 7.267-3.808 11.667 0 4.392 1.192 8.2 3.55 11.417 2.883 3.375 6.083 5.733 9.633 7.092 4.067 1.867 8.967 3.392 14.717 4.567 1.008 0.175 2.25 0.467 3.675 0.883 1.433 0.433 2.7 0.767 3.808 1.025 1.092 0.233 1.983 0.458 2.658 0.625 2.367 0.858 4.308 2.025 5.825 3.558 1.525 1.175 2.283 2.95 2.283 5.325 0 2.883-1.35 5.242-4.050 7.108-3.033 2.025-6.842 3.033-11.408 3.033zM73.875 25c-13.408 0-25.442 5.083-34.783 14.708-9.208 9.45-14.092 21.542-14.092 34.933 0 6.933 1.3 13.492 3.883 19.567-0.392 2.975-0.583 5.942-0.583 8.85 0 20.317 7.108 37.892 21.1 52.225 14.108 14.433 31.4 21.75 51.367 21.75 2.117 0 4.558-0.167 7.467-0.5 5.75 2.358 11.742 3.55 17.883 3.55 13.233 0 25.208-5.117 34.642-14.808 9.308-9.525 14.242-21.667 14.242-35.092 0-5.642-0.925-11.242-2.767-16.7 0.492-3.558 0.742-7.050 0.742-10.425 0-20.308-7.050-37.867-20.942-52.192-14.042-14.458-31.292-21.792-51.267-21.792-2.325 0-4.55 0.108-6.675 0.317-6.3-2.917-13.067-4.392-20.217-4.392z"></path>
</svg>
