<!-- Generated by IcoMoon.io -->
<svg version="1.1" xmlns="http://www.w3.org/2000/svg" width="200" height="200" viewBox="0 0 200 200">
<title>twitter</title>
<path fill="#ccd6f6" d="M173.608 43.85c-1.55 2.017-3.258 3.958-5.133 5.8-1.942 1.933-2.892 4.725-2.317 7.567 0.308 1.517 0.5 3.367 0.508 5.283 0 43.8-20.242 74.758-48.417 90.817-22.058 12.575-49.483 16.292-76.85 9.333 10.375-3.008 20.5-7.675 29.942-14.083 1.225-0.825 2.275-2.025 2.933-3.508 1.867-4.208-0.025-9.133-4.233-11-23.117-10.275-34.417-24.425-39.742-38.275-3.475-9.033-4.55-18.317-4.333-26.892 0.175-6.758 1.15-13 2.317-18.183 3.283 2.858 6.692 5.883 10.292 8.65 17.092 13.142 38.533 20.658 61.625 20.058 4.525-0.125 8.133-3.808 8.133-8.333v-8.425c-0.017-1.492 0.075-2.975 0.283-4.442 0.942-6.717 4.2-13.075 9.683-17.842 6.042-5.258 13.633-7.567 21.050-7.050s14.608 3.858 19.867 9.9c2.1 2.383 5.408 3.467 8.608 2.533 1.925-0.558 3.858-1.192 5.792-1.9zM186.867 18.192c-6.167 4.35-12.692 7.717-19.058 10.042-7.758-6.967-17.425-10.85-27.3-11.542-11.65-0.808-23.633 2.825-33.142 11.1-8.633 7.508-13.767 17.567-15.25 28.1-0.308 2.208-0.458 4.433-0.45 6.667-16.017-1.183-30.775-7.083-42.917-16.417-6.458-4.967-12.183-10.908-16.95-17.633-2.667-3.75-7.867-4.642-11.617-1.975-1.283 0.908-2.225 2.108-2.792 3.408 0 0-1.1 2.492-2.375 6.333-0.933 2.808-2.008 6.458-2.975 10.75-1.358 6.017-2.517 13.35-2.717 21.425-0.258 10.225 1 21.767 5.433 33.3 5.692 14.792 16.383 28.983 34.558 40.192-13.075 6.050-27.042 8.658-40.608 8.058-4.6-0.2-8.492 3.358-8.692 7.958-0.142 3.242 1.583 6.133 4.275 7.65 40.875 22.708 86.883 22.317 122.217 2.175 33.667-19.175 56.825-55.833 56.825-105.283-0.008-1.392-0.067-2.75-0.192-4.075 8.383-9.292 13.967-20.242 16.633-31.508 1.058-4.475-1.717-8.967-6.192-10.025-2.417-0.575-4.833-0.025-6.725 1.3z"></path>
</svg>
