<svg width="40" height="32" viewBox="0 0 40 32" fill="none" xmlns="http://www.w3.org/2000/svg">
<path d="M32.5 17.5V14.5H40V17.5H32.5ZM35 32L28.95 27.5L30.75 25.1L36.8 29.6L35 32ZM30.9 6.85L29.1 4.45L35 0L36.8 2.4L30.9 6.85ZM6.5 30V22H3C2.16667 22 1.45833 21.7083 0.875 21.125C0.291667 20.5417 0 19.8333 0 19V13C0 12.1667 0.291667 11.4583 0.875 10.875C1.45833 10.2917 2.16667 10 3 10H12L22 4V28L12 22H9.5V30H6.5ZM24 22.7V9.3C24.9 10.1 25.625 11.075 26.175 12.225C26.725 13.375 27 14.6333 27 16C27 17.3667 26.725 18.625 26.175 19.775C25.625 20.925 24.9 21.9 24 22.7ZM3 13V19H12.8L19 22.7V9.3L12.8 13H3Z" fill="#1C1B1F"/>
</svg>
