<svg width="60" height="17" viewBox="0 0 60 17" fill="none" xmlns="http://www.w3.org/2000/svg">
<path d="M2.664 12.488C1.428 11.228 0.81 9.632 0.81 7.7C0.81 5.768 1.428 4.178 2.664 2.93C3.912 1.67 5.484 1.04 7.38 1.04C9.504 1.04 11.178 1.808 12.402 3.344C12.942 4.004 13.338 4.766 13.59 5.63H11.97C11.718 5.03 11.4 4.52 11.016 4.1C10.068 3.08 8.856 2.57 7.38 2.57C5.928 2.57 4.74 3.044 3.816 3.992C2.892 4.94 2.43 6.176 2.43 7.7C2.43 9.224 2.892 10.46 3.816 11.408C4.74 12.356 5.928 12.83 7.38 12.83C8.88 12.83 10.122 12.278 11.106 11.174C11.502 10.718 11.82 10.16 12.06 9.5H13.68C13.392 10.436 12.972 11.246 12.42 11.93C11.16 13.55 9.48 14.36 7.38 14.36C5.484 14.36 3.912 13.736 2.664 12.488ZM15.8365 14V1.4H17.4565V12.47H24.0265V14H15.8365ZM25.5572 14V1.4H34.3772V2.93H27.1772V6.89H33.0272V8.42H27.1772V12.47H34.3772V14H25.5572ZM35.4635 14L38.7035 1.4H43.6535L46.8935 14H45.2735L44.2835 10.31H38.0735L37.0835 14H35.4635ZM38.4335 8.78H43.9235L42.3935 2.93H39.9635L38.4335 8.78ZM48.69 14V1.4H54.09C55.494 1.4 56.61 1.772 57.438 2.516C58.266 3.26 58.68 4.208 58.68 5.36C58.68 6.308 58.386 7.118 57.798 7.79C57.222 8.462 56.406 8.912 55.35 9.14L58.59 14H56.7L53.64 9.32H50.31V14H48.69ZM50.31 7.79H54.09C55.062 7.79 55.8 7.574 56.304 7.142C56.808 6.698 57.06 6.104 57.06 5.36C57.06 4.616 56.808 4.028 56.304 3.596C55.8 3.152 55.062 2.93 54.09 2.93H50.31V7.79Z" fill="black"/>
</svg>
