<svg width="36" height="37" viewBox="0 0 36 37" fill="none" xmlns="http://www.w3.org/2000/svg">
<path d="M3 36.7968C2.2 36.7968 1.5 36.4968 0.9 35.8968C0.3 35.2968 0 34.5968 0 33.7968V3.79681C0 2.99681 0.3 2.29681 0.9 1.69681C1.5 1.09681 2.2 0.796814 3 0.796814H26.1L36 10.6968V33.7968C36 34.5968 35.7 35.2968 35.1 35.8968C34.5 36.4968 33.8 36.7968 33 36.7968H3ZM3 33.7968H33V12.3468H24.45V3.79681H3V33.7968ZM7.95 28.2468H28.05V25.2468H7.95V28.2468ZM7.95 12.3468H18V9.34681H7.95V12.3468ZM7.95 20.2968H28.05V17.2968H7.95V20.2968Z" fill="#1C1B1F"/>
</svg>
