<svg width="44" height="28" viewBox="0 0 44 28" fill="none" xmlns="http://www.w3.org/2000/svg">
<path d="M30 25C33.0667 25 35.6667 23.925 37.8 21.775C39.9333 19.625 41 17.0333 41 14C41 10.9333 39.9333 8.33333 37.8 6.2C35.6667 4.06667 33.0667 3 30 3C28.9667 3 27.975 3.13333 27.025 3.4C26.075 3.66667 25.1833 4.05 24.35 4.55C25.4833 5.81667 26.375 7.25 27.025 8.85C27.675 10.45 28 12.1667 28 14C28 15.8333 27.675 17.55 27.025 19.15C26.375 20.75 25.4833 22.1833 24.35 23.45C25.1833 23.95 26.075 24.3333 27.025 24.6C27.975 24.8667 28.9667 25 30 25ZM22 21.55C22.9333 20.5833 23.6667 19.45 24.2 18.15C24.7333 16.85 25 15.4667 25 14C25 12.5333 24.7333 11.15 24.2 9.85C23.6667 8.55 22.9333 7.41667 22 6.45C21.0667 7.41667 20.3333 8.55 19.8 9.85C19.2667 11.15 19 12.5333 19 14C19 15.4667 19.2667 16.85 19.8 18.15C20.3333 19.45 21.0667 20.5833 22 21.55ZM14 25C15.0333 25 16.025 24.8667 16.975 24.6C17.925 24.3333 18.8167 23.95 19.65 23.45C18.5167 22.1833 17.625 20.75 16.975 19.15C16.325 17.55 16 15.8333 16 14C16 12.1667 16.325 10.45 16.975 8.85C17.625 7.25 18.5167 5.81667 19.65 4.55C18.8167 4.05 17.925 3.66667 16.975 3.4C16.025 3.13333 15.0333 3 14 3C10.9667 3 8.375 4.06667 6.225 6.2C4.075 8.33333 3 10.9333 3 14C3 17.0333 4.075 19.625 6.225 21.775C8.375 23.925 10.9667 25 14 25ZM14 28C10.1 28 6.79167 26.6417 4.075 23.925C1.35833 21.2083 0 17.9 0 14C0 10.1 1.35833 6.79167 4.075 4.075C6.79167 1.35833 10.1 0 14 0C15.5 0 16.925 0.216666 18.275 0.65C19.625 1.08333 20.8667 1.7 22 2.5C23.1333 1.7 24.375 1.08333 25.725 0.65C27.075 0.216666 28.5 0 30 0C33.9 0 37.2083 1.35833 39.925 4.075C42.6417 6.79167 44 10.1 44 14C44 17.9 42.6417 21.2083 39.925 23.925C37.2083 26.6417 33.9 28 30 28C28.5 28 27.075 27.7833 25.725 27.35C24.375 26.9167 23.1333 26.3 22 25.5C20.8667 26.3 19.625 26.9167 18.275 27.35C16.925 27.7833 15.5 28 14 28Z" fill="#1C1B1F"/>
</svg>
