<svg width="178" height="68" viewBox="0 0 178 68" fill="none" xmlns="http://www.w3.org/2000/svg">
<rect width="178" height="68" fill="black"/>
<path d="M22.45 37.04H25.24C25.348 37.4 25.522 37.718 25.762 37.994C26.29 38.618 27.076 38.93 28.12 38.93C29.68 38.93 30.46 38.45 30.46 37.49C30.46 37.25 30.376 37.034 30.208 36.842C30.052 36.65 29.8 36.482 29.452 36.338C29.116 36.194 28.786 36.08 28.462 35.996C28.15 35.9 27.742 35.786 27.238 35.654C27.166 35.642 27.106 35.63 27.058 35.618C27.022 35.606 26.968 35.594 26.896 35.582C26.836 35.558 26.782 35.54 26.734 35.528C24.238 34.928 22.99 33.722 22.99 31.91C22.99 30.83 23.428 29.918 24.304 29.174C25.192 28.418 26.374 28.04 27.85 28.04C29.77 28.04 31.222 28.688 32.206 29.984C32.614 30.56 32.902 31.202 33.07 31.91H30.28C30.208 31.658 30.07 31.418 29.866 31.19C29.41 30.71 28.738 30.47 27.85 30.47C27.166 30.47 26.65 30.602 26.302 30.866C25.954 31.118 25.78 31.436 25.78 31.82C25.78 32.516 26.572 33.044 28.156 33.404C28.564 33.5 28.816 33.56 28.912 33.584C29.02 33.608 29.266 33.674 29.65 33.782C30.046 33.89 30.31 33.98 30.442 34.052C30.586 34.112 30.82 34.214 31.144 34.358C31.48 34.49 31.714 34.616 31.846 34.736C31.99 34.856 32.17 35.018 32.386 35.222C32.614 35.414 32.776 35.612 32.872 35.816C32.968 36.02 33.052 36.26 33.124 36.536C33.208 36.8 33.25 37.088 33.25 37.4C33.25 38.516 32.8 39.458 31.9 40.226C31 40.982 29.74 41.36 28.12 41.36C25.984 41.36 24.418 40.64 23.422 39.2C22.954 38.576 22.63 37.856 22.45 37.04ZM33.9728 41L37.3028 28.4H42.9728L46.3028 41H43.5128L42.7928 38.21H37.4828L36.7628 41H33.9728ZM38.1128 35.69H42.1628L40.9028 30.92H39.3728L38.1128 35.69ZM46.0335 28.4H48.8235L51.3435 38.48H52.8735L55.3935 28.4H58.1835L54.9435 41H49.2735L46.0335 28.4ZM59.5391 41V28.4H68.9891V30.92H62.2391V33.44H67.6391V35.78H62.2391V38.48H68.9891V41H59.5391ZM75.202 37.04H77.992C78.1 37.4 78.274 37.718 78.514 37.994C79.042 38.618 79.828 38.93 80.872 38.93C82.432 38.93 83.212 38.45 83.212 37.49C83.212 37.25 83.128 37.034 82.96 36.842C82.804 36.65 82.552 36.482 82.204 36.338C81.868 36.194 81.538 36.08 81.214 35.996C80.902 35.9 80.494 35.786 79.99 35.654C79.918 35.642 79.858 35.63 79.81 35.618C79.774 35.606 79.72 35.594 79.648 35.582C79.588 35.558 79.534 35.54 79.486 35.528C76.99 34.928 75.742 33.722 75.742 31.91C75.742 30.83 76.18 29.918 77.056 29.174C77.944 28.418 79.126 28.04 80.602 28.04C82.522 28.04 83.974 28.688 84.958 29.984C85.366 30.56 85.654 31.202 85.822 31.91H83.032C82.96 31.658 82.822 31.418 82.618 31.19C82.162 30.71 81.49 30.47 80.602 30.47C79.918 30.47 79.402 30.602 79.054 30.866C78.706 31.118 78.532 31.436 78.532 31.82C78.532 32.516 79.324 33.044 80.908 33.404C81.316 33.5 81.568 33.56 81.664 33.584C81.772 33.608 82.018 33.674 82.402 33.782C82.798 33.89 83.062 33.98 83.194 34.052C83.338 34.112 83.572 34.214 83.896 34.358C84.232 34.49 84.466 34.616 84.598 34.736C84.742 34.856 84.922 35.018 85.138 35.222C85.366 35.414 85.528 35.612 85.624 35.816C85.72 36.02 85.804 36.26 85.876 36.536C85.96 36.8 86.002 37.088 86.002 37.4C86.002 38.516 85.552 39.458 84.652 40.226C83.752 40.982 82.492 41.36 80.872 41.36C78.736 41.36 77.17 40.64 76.174 39.2C75.706 38.576 75.382 37.856 75.202 37.04ZM87.8048 41V28.4H97.2548V30.92H90.5048V33.44H95.9048V35.78H90.5048V38.48H97.2548V41H87.8048ZM98.0627 41L101.393 28.4H107.063L110.393 41H107.603L106.883 38.21H101.573L100.853 41H98.0627ZM102.203 35.69H106.253L104.993 30.92H103.463L102.203 35.69ZM111.658 41V28.4H117.598C119.098 28.4 120.298 28.808 121.198 29.624C122.098 30.428 122.548 31.43 122.548 32.63C122.548 33.566 122.284 34.364 121.756 35.024C121.228 35.684 120.532 36.176 119.668 36.5L122.548 41H119.488L116.878 36.86H114.358V41H111.658ZM114.358 34.34H117.508C118.252 34.34 118.81 34.19 119.182 33.89C119.566 33.578 119.758 33.158 119.758 32.63C119.758 32.102 119.566 31.688 119.182 31.388C118.81 31.076 118.252 30.92 117.508 30.92H114.358V34.34ZM125.754 39.47C124.458 38.198 123.81 36.608 123.81 34.7C123.81 32.792 124.458 31.208 125.754 29.948C127.062 28.676 128.724 28.04 130.74 28.04C133.008 28.04 134.748 28.838 135.96 30.434C136.512 31.142 136.902 31.934 137.13 32.81H134.34C134.184 32.402 133.944 32.03 133.62 31.694C132.864 30.938 131.904 30.56 130.74 30.56C129.564 30.56 128.592 30.95 127.824 31.73C127.068 32.498 126.69 33.488 126.69 34.7C126.69 35.96 127.056 36.968 127.788 37.724C128.532 38.468 129.516 38.84 130.74 38.84C131.964 38.84 132.948 38.42 133.692 37.58C134.028 37.184 134.274 36.764 134.43 36.32H137.22C136.944 37.268 136.53 38.108 135.978 38.84C134.682 40.52 132.936 41.36 130.74 41.36C128.724 41.36 127.062 40.73 125.754 39.47ZM138.922 41V28.4H141.622V33.35H147.202V28.4H149.902V41H147.202V35.87H141.622V41H138.922Z" fill="white"/>
</svg>
