<svg width="18" height="18" viewBox="0 0 18 18" fill="none" xmlns="http://www.w3.org/2000/svg">
<path d="M16.5504 17.7106L10.2504 11.4356C9.75039 11.8523 9.17539 12.1773 8.52539 12.4106C7.87539 12.644 7.20872 12.7606 6.52539 12.7606C4.80872 12.7606 3.35872 12.169 2.17539 10.9856C0.992057 9.80229 0.400391 8.35229 0.400391 6.63562C0.400391 4.93562 0.992057 3.48962 2.17539 2.29762C3.35872 1.10629 4.80872 0.51062 6.52539 0.51062C8.22539 0.51062 9.66706 1.10229 10.8504 2.28562C12.0337 3.46895 12.6254 4.91895 12.6254 6.63562C12.6254 7.35229 12.5087 8.03562 12.2754 8.68562C12.0421 9.33562 11.7254 9.90229 11.3254 10.3856L17.6004 16.6606L16.5504 17.7106ZM6.52539 11.2606C7.80872 11.2606 8.89639 10.8106 9.78839 9.91062C10.6797 9.01062 11.1254 7.91895 11.1254 6.63562C11.1254 5.35229 10.6797 4.26062 9.78839 3.36062C8.89639 2.46062 7.80872 2.01062 6.52539 2.01062C5.22539 2.01062 4.12972 2.46062 3.23839 3.36062C2.34639 4.26062 1.90039 5.35229 1.90039 6.63562C1.90039 7.91895 2.34639 9.01062 3.23839 9.91062C4.12972 10.8106 5.22539 11.2606 6.52539 11.2606Z" fill="white"/>
</svg>
