<svg width="41" height="40" viewBox="0 0 41 40" fill="none" xmlns="http://www.w3.org/2000/svg">
<path d="M21.0016 15.3L18.9016 13.2L22.6016 9.5H13.5016V6.5H22.6016L18.9016 2.8L21.0016 0.7L28.3016 8L21.0016 15.3ZM11.5016 40C10.5016 40 9.65156 39.65 8.95156 38.95C8.25156 38.25 7.90156 37.4 7.90156 36.4C7.90156 35.4 8.25156 34.55 8.95156 33.85C9.65156 33.15 10.5016 32.8 11.5016 32.8C12.5016 32.8 13.3516 33.15 14.0516 33.85C14.7516 34.55 15.1016 35.4 15.1016 36.4C15.1016 37.4 14.7516 38.25 14.0516 38.95C13.3516 39.65 12.5016 40 11.5016 40ZM31.7016 40C30.7016 40 29.8516 39.65 29.1516 38.95C28.4516 38.25 28.1016 37.4 28.1016 36.4C28.1016 35.4 28.4516 34.55 29.1516 33.85C29.8516 33.15 30.7016 32.8 31.7016 32.8C32.7016 32.8 33.5516 33.15 34.2516 33.85C34.9516 34.55 35.3016 35.4 35.3016 36.4C35.3016 37.4 34.9516 38.25 34.2516 38.95C33.5516 39.65 32.7016 40 31.7016 40ZM0.101562 3V0H5.90156L14.4016 18.2H28.8016L36.8016 4.2H40.1516L32.0516 19.35C31.6849 19.9833 31.2099 20.4917 30.6266 20.875C30.0432 21.2583 29.4016 21.45 28.7016 21.45H13.5516L10.7516 26.65H35.3016V29.65H11.2016C9.9349 29.65 8.97656 29.15 8.32656 28.15C7.67656 27.15 7.6349 26.1333 8.20156 25.1L11.4016 19.2L4.00156 3H0.101562Z" fill="#1C1B1F"/>
</svg>
