<svg width="40" height="48" viewBox="0 0 40 48" fill="none" xmlns="http://www.w3.org/2000/svg">
<path d="M6.5 48.2C6.1 48.2 5.75 48.05 5.45 47.75C5.15 47.45 5 47.1 5 46.7C5 46.2666 5.15 45.9083 5.45 45.625C5.75 45.3416 6.1 45.2 6.5 45.2H16V42.2H3.5C3.1 42.2 2.75 42.05 2.45 41.75C2.15 41.45 2 41.1 2 40.7C2 40.2666 2.15 39.9083 2.45 39.625C2.75 39.3416 3.1 39.2 3.5 39.2H16V36.2H1.5C1.1 36.2 0.75 36.05 0.45 35.75C0.15 35.45 0 35.1 0 34.7C0 34.2666 0.15 33.9083 0.45 33.625C0.75 33.3416 1.1 33.2 1.5 33.2H16V30.2H4.5C4.1 30.2 3.75 30.05 3.45 29.75C3.15 29.45 3 29.1 3 28.7C3 28.2666 3.15 27.9083 3.45 27.625C3.75 27.3416 4.1 27.2 4.5 27.2H21.3L19.05 22.8C18.75 22.1666 18.7 21.5333 18.9 20.9C19.1 20.2666 19.5333 19.7833 20.2 19.45L20.4 19.3L31.6 30C32.0667 30.4333 32.4167 30.9333 32.65 31.5C32.8833 32.0666 33 32.65 33 33.25V43.7C33 44.9333 32.5667 45.9916 31.7 46.875C30.8333 47.7583 29.7667 48.2 28.5 48.2H6.5ZM19 45.2H27.5C28.2 45.2 28.7917 44.95 29.275 44.45C29.7583 43.95 30 43.3666 30 42.7V33.65C30 33.2833 29.9417 32.9583 29.825 32.675C29.7083 32.3916 29.5167 32.1166 29.25 31.85L23 25.95V30.2H19V45.2ZM18.2 17.1L11.75 10.3C11.4833 9.99998 11.3583 9.64165 11.375 9.22498C11.3917 8.80831 11.55 8.44998 11.85 8.14998C12.15 7.88331 12.5083 7.75831 12.925 7.77498C13.3417 7.79165 13.6833 7.94998 13.95 8.24998L20.9 15.65C20.3333 15.9166 19.8417 16.1666 19.425 16.4C19.0083 16.6333 18.6 16.8666 18.2 17.1ZM13.85 21.2L9.45 16.6C9.18333 16.3 9.05833 15.9416 9.075 15.525C9.09167 15.1083 9.25 14.75 9.55 14.45C9.85 14.1833 10.2083 14.0583 10.625 14.075C11.0417 14.0916 11.3833 14.25 11.65 14.55L16.3 19.35C16.1333 19.6833 16.0083 20.0083 15.925 20.325C15.8417 20.6416 15.8 20.9333 15.8 21.2H13.85ZM34.7 29.05C34.5333 28.8166 34.35 28.5916 34.15 28.375C33.95 28.1583 33.7333 27.9333 33.5 27.7L32.7 26.9L36.25 23.6C36.5167 23.3333 36.7083 23.0583 36.825 22.775C36.9417 22.4916 37 22.1666 37 21.8V13.25L33.9 16.2L31.1 13.3L24.8 19.35L22.65 17.25L24.7 15.2L14.75 4.64998C14.4833 4.34998 14.35 3.99998 14.35 3.59998C14.35 3.19998 14.5 2.84998 14.8 2.54998C15.1 2.28331 15.4667 2.15831 15.9 2.17498C16.3333 2.19165 16.6833 2.34998 16.95 2.64998L26.9 13.15L29.1 11.05L21.15 2.74998C20.8833 2.44998 20.7583 2.09165 20.775 1.67498C20.7917 1.25831 20.95 0.899981 21.25 0.599981C21.55 0.333315 21.9083 0.208315 22.325 0.224981C22.7417 0.241648 23.0833 0.399981 23.35 0.699981L34.9 12.9L36.55 8.14998C36.7833 7.48331 37.2167 7.01665 37.85 6.74998C38.4833 6.48331 39.1333 6.44998 39.8 6.64998L40 6.74998V22.25C40 22.8833 39.875 23.4833 39.625 24.05C39.375 24.6166 39.0167 25.1166 38.55 25.55L34.7 29.05Z" fill="#1C1B1F"/>
</svg>
