<svg width="14" height="13" viewBox="0 0 14 13" fill="none" xmlns="http://www.w3.org/2000/svg">
<path d="M5.18612 1.8541C5.78483 0.0114793 8.39164 0.01148 8.99035 1.8541L9.12867 2.27982C9.39642 3.10386 10.1643 3.66178 11.0308 3.66178H11.4784C13.4159 3.66178 14.2214 6.14101 12.654 7.27982L12.2918 7.54292C11.5909 8.05221 11.2976 8.95494 11.5653 9.77899L11.7036 10.2047C12.3023 12.0473 10.1934 13.5796 8.62594 12.4408L8.2638 12.1777C7.56283 11.6684 6.61364 11.6684 5.91266 12.1777L5.55053 12.4408C3.9831 13.5796 1.87414 12.0473 2.47285 10.2047L2.61117 9.77899C2.87892 8.95494 2.5856 8.05221 1.88463 7.54292L1.52249 7.27982C-0.0449346 6.14101 0.760617 3.66178 2.69806 3.66178H3.14569C4.01214 3.66178 4.78005 3.10386 5.0478 2.27982L5.18612 1.8541Z" fill="white"/>
</svg>
