<svg width="42" height="36" viewBox="0 0 42 36" fill="none" xmlns="http://www.w3.org/2000/svg">
<path d="M39.0009 16.05V33C39.0009 33.8 38.7009 34.5 38.1009 35.1C37.5009 35.7 36.8009 36 36.0009 36H5.95094C5.15094 36 4.45094 35.7 3.85094 35.1C3.25094 34.5 2.95094 33.8 2.95094 33V16.05C2.0176 15.25 1.40094 14.2667 1.10094 13.1C0.800938 11.9333 0.834271 10.7667 1.20094 9.6L3.35094 2.85C3.6176 1.95 4.08427 1.25 4.75094 0.75C5.4176 0.25 6.18427 0 7.05094 0H34.7009C35.6343 0 36.4509 0.258333 37.1509 0.775C37.8509 1.29167 38.3343 1.98333 38.6009 2.85L40.8009 9.6C41.1676 10.7667 41.1926 11.9333 40.8759 13.1C40.5593 14.2667 39.9343 15.25 39.0009 16.05ZM25.5009 14.5C26.4676 14.5 27.2843 14.1833 27.9509 13.55C28.6176 12.9167 28.8843 12.15 28.7509 11.25L27.5009 3H22.5009V11.25C22.5009 12.1167 22.7843 12.875 23.3509 13.525C23.9176 14.175 24.6343 14.5 25.5009 14.5ZM16.1509 14.5C17.0843 14.5 17.8759 14.1833 18.5259 13.55C19.1759 12.9167 19.5009 12.15 19.5009 11.25V3H14.5009L13.2509 11.25C13.1176 12.1167 13.3509 12.875 13.9509 13.525C14.5509 14.175 15.2843 14.5 16.1509 14.5ZM7.05094 14.5C7.85094 14.5 8.5426 14.225 9.12594 13.675C9.70927 13.125 10.0509 12.45 10.1509 11.65L11.4509 3H6.45094L4.15094 10.3C3.8176 11.3333 3.95094 12.2917 4.55094 13.175C5.15094 14.0583 5.98427 14.5 7.05094 14.5ZM34.9009 14.5C35.9676 14.5 36.8093 14.0667 37.4259 13.2C38.0426 12.3333 38.1843 11.3667 37.8509 10.3L35.5509 3H30.5509L31.8509 11.65C31.9509 12.45 32.2926 13.125 32.8759 13.675C33.4593 14.225 34.1343 14.5 34.9009 14.5ZM5.95094 33H36.0009V17.45C36.0343 17.4833 35.9259 17.5 35.6759 17.5H34.9009C34.0676 17.5 33.2759 17.325 32.5259 16.975C31.7759 16.625 31.0343 16.0833 30.3009 15.35C29.7676 16.0167 29.1009 16.5417 28.3009 16.925C27.5009 17.3083 26.6176 17.5 25.6509 17.5C24.6509 17.5 23.7926 17.3583 23.0759 17.075C22.3593 16.7917 21.6676 16.3167 21.0009 15.65C20.5009 16.25 19.8676 16.7083 19.1009 17.025C18.3343 17.3417 17.4676 17.5 16.5009 17.5C15.4676 17.5 14.5509 17.3167 13.7509 16.95C12.9509 16.5833 12.2676 16.05 11.7009 15.35C10.9009 16.05 10.1176 16.5833 9.35094 16.95C8.58427 17.3167 7.8176 17.5 7.05094 17.5H6.37594C6.15927 17.5 6.0176 17.4833 5.95094 17.45V33Z" fill="#1C1B1F"/>
</svg>
