<svg width="80" height="80" viewBox="0 0 80 80" fill="none" xmlns="http://www.w3.org/2000/svg">
<rect x="0.5" y="0.5" width="79" height="79" fill="white"/>
<mask id="mask0_2023_8113" style="mask-type:alpha" maskUnits="userSpaceOnUse" x="28" y="28" width="24" height="24">
<rect x="28" y="28" width="24" height="24" fill="#D9D9D9"/>
</mask>
<g mask="url(#mask0_2023_8113)">
<path d="M40.75 43.75H39.25V32.725L37.4 34.575L36.35 33.5L40 29.85L43.65 33.5L42.6 34.575L40.75 32.725V43.75ZM36.875 38H34.3C34.2333 38 34.1667 38.0333 34.1 38.1C34.0333 38.1666 34 38.2333 34 38.3V48.7C34 48.7666 34.0333 48.8333 34.1 48.9C34.1667 48.9666 34.2333 49 34.3 49H45.7C45.7667 49 45.8333 48.9666 45.9 48.9C45.9667 48.8333 46 48.7666 46 48.7V38.3C46 38.2333 45.9667 38.1666 45.9 38.1C45.8333 38.0333 45.7667 38 45.7 38H43.125V36.5H45.7C46.2 36.5 46.625 36.675 46.975 37.025C47.325 37.375 47.5 37.8 47.5 38.3V48.7C47.5 49.2 47.325 49.625 46.975 49.975C46.625 50.325 46.2 50.5 45.7 50.5H34.3C33.8 50.5 33.375 50.325 33.025 49.975C32.675 49.625 32.5 49.2 32.5 48.7V38.3C32.5 37.8 32.675 37.375 33.025 37.025C33.375 36.675 33.8 36.5 34.3 36.5H36.875V38Z" fill="#1C1B1F"/>
</g>
<rect x="0.5" y="0.5" width="79" height="79" stroke="black"/>
</svg>
