<svg width="38" height="22" viewBox="0 0 38 22" fill="none" xmlns="http://www.w3.org/2000/svg">
<path d="M14.4526 14.9089L15.806 7.15857H17.9708L16.6164 14.9089H14.4526ZM24.4367 7.32554C24.0078 7.16852 23.3359 7 22.4966 7C20.3577 7 18.851 8.05115 18.8382 9.55766C18.8261 10.6713 19.9138 11.2926 20.7348 11.6633C21.5774 12.0432 21.8607 12.2854 21.8567 12.6246C21.8513 13.1442 21.1838 13.3816 20.5617 13.3816C19.6953 13.3816 19.2349 13.2641 18.5241 12.9747L18.2451 12.8515L17.9413 14.5865C18.4469 14.8028 19.3819 14.9903 20.3526 15C22.628 15 24.1051 13.9609 24.122 12.3522C24.1301 11.4704 23.5534 10.7995 22.3045 10.2463C21.5479 9.88788 21.0845 9.64856 21.0895 9.28555C21.0895 8.96342 21.4817 8.61887 22.329 8.61887C23.037 8.60816 23.5497 8.75881 23.9492 8.91582L24.1432 9.00529L24.4367 7.32541L24.4367 7.32554ZM30.0072 7.15832H28.3345C27.8164 7.15832 27.4286 7.29636 27.201 7.80109L23.9863 14.9038H26.2593C26.2593 14.9038 26.6309 13.9487 26.715 13.739C26.9635 13.739 29.1716 13.7424 29.4873 13.7424C29.552 14.0137 29.7506 14.9038 29.7506 14.9038H31.7593L30.0072 7.15811V7.15832ZM27.3533 12.163C27.5324 11.7165 28.2158 9.99649 28.2158 9.99649C28.203 10.0172 28.3935 9.54775 28.5029 9.25683L28.6491 9.92507C28.6491 9.92507 29.0636 11.7751 29.1503 12.163H27.3533ZM12.6154 7.15832L10.4962 12.4434L10.2703 11.3693C9.87583 10.1311 8.64662 8.78967 7.27246 8.11811L9.21021 14.8962L11.5005 14.8936L14.9083 7.15803H12.6154" fill="#393939"/>
<path d="M8.51813 7.15845H5.02762L5 7.31972C7.71552 7.96126 9.51223 9.5115 10.2585 11.3743L9.4995 7.81272C9.36846 7.32204 8.98845 7.17561 8.51829 7.15845" fill="#393939"/>
<rect x="0.5" y="0.5" width="37" height="21" stroke="black"/>
</svg>
