<svg xmlns="http://www.w3.org/2000/svg" width="26.144" height="27" viewBox="0 0 26.144 27">
  <path id="call-center" d="M26.361,13.123v-.3a1.653,1.653,0,0,0-.77-1.412V9.229a7.9,7.9,0,0,0-6.418-7.745h0A1.019,1.019,0,0,0,18.231.5h-7.36a1.019,1.019,0,0,0-.941.984h0A7.858,7.858,0,0,0,3.511,9.229v2.182a1.653,1.653,0,0,0-.77,1.412v.3A1.279,1.279,0,0,0,1.5,14.406v3.038a1.308,1.308,0,0,0,1.241,1.284v.3A1.671,1.671,0,0,0,4.41,20.7H5.565a1.671,1.671,0,0,0,1.669-1.669v-6.2a1.671,1.671,0,0,0-1.669-1.669H5.18V9.229A6.2,6.2,0,0,1,9.972,3.2a.963.963,0,0,0,.9.685,17.774,17.774,0,0,1,7.36,0,1.056,1.056,0,0,0,.9-.685,6.2,6.2,0,0,1,4.792,6.033v1.926h-.556a1.671,1.671,0,0,0-1.5,1.669v6.2A1.671,1.671,0,0,0,23.536,20.7h.043a8.966,8.966,0,0,1-6.632,4.322h0a1.749,1.749,0,0,0-1.5-.77,1.684,1.684,0,0,0-1.754,1.626A1.711,1.711,0,0,0,15.449,27.5a1.853,1.853,0,0,0,1.583-.9h0a10.864,10.864,0,0,0,5.691-2.482,10.445,10.445,0,0,0,2.7-3.552,1.723,1.723,0,0,0,.984-1.54v-.3a1.279,1.279,0,0,0,1.241-1.284V14.406A1.287,1.287,0,0,0,26.361,13.123Z" transform="translate(-1.5 -0.5)" fill="#fff"/>
</svg>
