<svg xmlns="http://www.w3.org/2000/svg" width="15.437" height="15.436" viewBox="0 0 15.437 15.436">
  <path id="call" d="M19.481,16.589a12.966,12.966,0,0,0-2.709-1.812c-.812-.39-1.109-.382-1.684.032-.478.346-.788.667-1.338.547a7.983,7.983,0,0,1-2.689-1.989,7.926,7.926,0,0,1-1.989-2.689c-.117-.555.2-.86.547-1.338.414-.575.426-.872.032-1.684A12.71,12.71,0,0,0,7.839,4.947c-.591-.591-.723-.462-1.049-.346a5.969,5.969,0,0,0-.96.51A2.9,2.9,0,0,0,4.677,6.33c-.229.494-.494,1.415.856,3.818a21.3,21.3,0,0,0,3.745,5h0l0,0,0,0h0a21.386,21.386,0,0,0,5,3.745c2.4,1.35,3.323,1.085,3.818.856A2.848,2.848,0,0,0,19.317,18.6a5.969,5.969,0,0,0,.51-.96C19.944,17.313,20.076,17.18,19.481,16.589Z" transform="translate(-4.49 -4.502)" fill="#fff"/>
</svg>
