<svg xmlns="http://www.w3.org/2000/svg" width="13.088" height="12.397" viewBox="0 0 13.088 12.397">
  <g id="chev-right" transform="translate(-1393 -8671.761)">
    <path id="Icon_ionic-ios-arrow-forward" data-name="Icon ionic-ios-arrow-forward" d="M16.2,12.392,11.507,7.7a.882.882,0,0,1,0-1.251.893.893,0,0,1,1.255,0l5.315,5.311a.884.884,0,0,1,.026,1.222l-5.337,5.348a.886.886,0,0,1-1.255-1.251Z" transform="translate(1381.754 8665.564)" fill="#d97803"/>
    <path id="Icon_ionic-ios-arrow-forward-2" data-name="Icon ionic-ios-arrow-forward" d="M16.2,12.392,11.507,7.7a.882.882,0,0,1,0-1.251.893.893,0,0,1,1.255,0l5.315,5.311a.884.884,0,0,1,.026,1.222l-5.337,5.348a.886.886,0,0,1-1.255-1.251Z" transform="translate(1387.754 8665.564)" fill="#d97803"/>
  </g>
</svg>
