<svg xmlns="http://www.w3.org/2000/svg" width="24.715" height="25.263" viewBox="0 0 24.715 25.263">
  <g id="clock" transform="translate(-8.271 -7.9)">
    <path id="Path_2" data-name="Path 2" d="M31.787,20.574a.554.554,0,0,0-.554.554A10.927,10.927,0,1,1,18.365,10.384v.594c0,.406.289.573.64.369l.495-.286,1.279-.739.495-.287a.39.39,0,0,0,0-.739l-.495-.286L19.5,8.273l-.495-.287c-.352-.2-.64-.037-.64.369v.907A12.03,12.03,0,1,0,32.342,21.128.554.554,0,0,0,31.787,20.574Z" fill="#fff"/>
    <path id="Path_3" data-name="Path 3" d="M27.585,12.456a.74.74,0,0,0,.909-.524l.632-2.354a.742.742,0,0,0-1.434-.384l-.631,2.354A.743.743,0,0,0,27.585,12.456Z" transform="translate(-4.903 -0.194)" fill="#fff"/>
    <path id="Path_4" data-name="Path 4" d="M30.646,13.81a.74.74,0,0,0,1.013-.272l1.219-2.11a.742.742,0,0,0-1.285-.742L30.373,12.8A.743.743,0,0,0,30.646,13.81Z" transform="translate(-5.749 -0.631)" fill="#fff"/>
    <path id="Path_5" data-name="Path 5" d="M33.275,15.964a.739.739,0,0,0,1.049,0l1.723-1.721A.742.742,0,1,0,35,13.192l-1.724,1.722A.741.741,0,0,0,33.275,15.964Z" transform="translate(-6.476 -1.326)" fill="#fff"/>
    <path id="Path_6" data-name="Path 6" d="M35.291,18.77a.738.738,0,0,0,1.013.27l2.109-1.216a.742.742,0,1,0-.742-1.286l-2.109,1.218A.741.741,0,0,0,35.291,18.77Z" transform="translate(-7.033 -2.231)" fill="#fff"/>
    <path id="Path_7" data-name="Path 7" d="M40.344,21.024a.743.743,0,0,0-.909-.525l-2.355.63a.742.742,0,0,0,.385,1.434l2.352-.629A.744.744,0,0,0,40.344,21.024Z" transform="translate(-7.384 -3.285)" fill="#fff"/>
    <path id="Path_8" data-name="Path 8" d="M26.885,19.08c-.4-.4-.833-.446-1.453,0-.372.27-1.786,1.38-2.851,2.221-.074-.007-.144-.021-.219-.021-.033,0-.065.008-.1.01-1.327-1.113-3.9-3.266-4.361-3.6-.619-.447-1.05-.4-1.452,0s-.447.833,0,1.452c.329.457,2.483,3.033,3.6,4.361,0,.033-.01.064-.01.1a2.325,2.325,0,0,0,4.65,0c0-.076-.015-.146-.021-.221.841-1.064,1.951-2.478,2.221-2.851C27.332,19.913,27.285,19.481,26.885,19.08Zm-4.524,5.288a.764.764,0,1,1,.763-.764A.764.764,0,0,1,22.361,24.368Z" transform="translate(-2.054 -2.476)" fill="#fff"/>
  </g>
</svg>
