<svg xmlns="http://www.w3.org/2000/svg" xmlns:xlink="http://www.w3.org/1999/xlink" width="20" height="13.762" viewBox="0 0 20 13.762">
  <defs>
    <clipPath id="clip-path">
      <path id="Path_59" data-name="Path 59" d="M222.14,340h20v13.762h-20Z" transform="translate(-222.14 -340)" fill="#fff"/>
    </clipPath>
  </defs>
  <g id="envelope" transform="translate(-222.14 -340)">
    <g id="Group_188" data-name="Group 188" transform="translate(222.14 340)" clip-path="url(#clip-path)">
      <path id="Path_58" data-name="Path 58" d="M242.14,343.717v7.725l-5.173-4.621Zm-11.608,3.578a3.117,3.117,0,0,0,3.215,0l8.347-5.008a2.5,2.5,0,0,0-2.454-2.048h-15a2.5,2.5,0,0,0-2.454,2.048Zm5.312.2-1.453.872h0a4.366,4.366,0,0,1-4.5,0l-1.453-.872-5.923,5.291a2.493,2.493,0,0,0,2.127,1.2h15a2.493,2.493,0,0,0,2.127-1.2Zm-13.7-3.777v7.726l5.173-4.622Z" transform="translate(-222.14 -340.232)" fill="#fff"/>
    </g>
  </g>
</svg>
