<svg xmlns="http://www.w3.org/2000/svg" width="21.064" height="28.663" viewBox="0 0 21.064 28.663">
  <g id="map-marker" transform="translate(-19.14 -8)">
    <path id="Path_1" data-name="Path 1" d="M29.67,20.735A3.726,3.726,0,1,0,25.944,17a3.726,3.726,0,0,0,3.726,3.73Zm0-5.835A2.105,2.105,0,1,1,27.565,17,2.105,2.105,0,0,1,29.67,14.9Zm4.777,12.243c2.887-4.378,4.31-7.794,4.224-10.165A9.118,9.118,0,0,0,29.67,8a9.019,9.019,0,0,0-9.008,9c0,2.406,1.433,5.8,4.259,10.128-3.593.822-5.78,2.5-5.78,4.508,0,2.863,4.525,5.023,10.53,5.023S40.2,34.5,40.2,31.64C40.2,29.637,38.027,27.965,34.447,27.143ZM29.67,9.621a7.51,7.51,0,0,1,7.388,7.415c.075,2.133-1.566,5.757-4.624,10.2h0c-.819,1.191-1.607,2.245-2.215,3.037l-.543.682c-.444-.566-1.092-1.409-1.819-2.419-.3-.413-.607-.853-.921-1.314h0c-3.044-4.463-4.651-8-4.651-10.237A7.394,7.394,0,0,1,29.67,9.621Zm0,25.421c-5.1,0-8.913-1.8-8.913-3.412,0-1.058,1.761-2.416,5.118-3.071l.017.024.147.208.174.246.147.208.164.229.15.208.15.2.154.208.133.181.171.246.123.164.143.191.116.154.14.181.1.136.13.171.092.119.123.157.078.1.116.15.058.075.109.14.048.058.1.123.031.038.089.109h0l.171.208a.809.809,0,0,0,.621.293h0a.812.812,0,0,0,.621-.29l.314-.386h0l.14-.174.027-.034.147-.184.038-.048.157-.2.055-.068.164-.208.068-.089.167-.218.078-.1.177-.232.089-.119.184-.242.1-.13.194-.263.1-.133.2-.283.1-.136.222-.307.092-.13.256-.362.065-.092.031-.041c3.361.645,5.118,2,5.118,3.054C38.583,33.251,34.772,35.042,29.67,35.042Z" fill="#fff"/>
  </g>
</svg>
